<?xml version="1.0" standalone="no"?>
<!DOCTYPE svg PUBLIC "-//W3C//DTD SVG 1.1//EN" "http://www.w3.org/Graphics/SVG/1.1/DTD/svg11.dtd" >
<svg xmlns="http://www.w3.org/2000/svg" xmlns:xlink="http://www.w3.org/1999/xlink" version="1.1">
<metadata>
Created by FontForge 20161116 at Mon Jul 18 22:58:17 2016
 By Jimmy Wärting
Copyright (c) 2004 - 2007 Linotype GmbH, www.linotype.com. All rights reserved.
</metadata>
<defs>
<font id="AvenirNext-UltraLight" horiz-adv-x="666" >
  <font-face 
    font-family="Avenir Next Ultra Light"
    font-weight="275"
    font-stretch="normal"
    units-per-em="1000"
    panose-1="2 11 2 3 2 2 2 2 2 4"
    ascent="800"
    descent="-200"
    x-height="460"
    cap-height="708"
    bbox="-360 -368 1322 1192"
    underline-thickness="50"
    underline-position="-100"
    unicode-range="U+000D-FE48"
  />
<missing-glyph horiz-adv-x="512" 
d="M222 117v67h56v-67h-56zM225 234l-2 17q0 56 13 81q7 13 18 27.5t28 31.5q16 15 26 26.5t15 21t7 18t2 17.5q0 36 -22.5 60.5t-53.5 24.5t-53.5 -22t-28.5 -73l-50 8q7 72 44 104.5t91 32.5t89 -35.5t35 -95.5q0 -32 -12.5 -58.5t-50.5 -61.5q-37 -33 -43 -52
q-6 -20 -6 -72h-46zM462 50v617h-412v-617h412zM512 718v-718h-512v718h512z" />
    <glyph glyph-name="IJ" unicode="IJ" horiz-adv-x="707" 
d="M106 0v708h22v-708h-22zM605 193q0 -98 -45.5 -154.5t-135.5 -56.5q-63 0 -107 32.5t-61 78.5l19 9q20 -45 59 -72.5t90 -27.5q43 0 73 14.5t49 40.5t28 61.5t9 77.5v512h22v-515z" />
    <glyph glyph-name="ij" unicode="ij" horiz-adv-x="455" 
d="M113 633q-9 0 -16 7t-7 19q0 11 7 18t16 7t16 -7t7 -18q0 -12 -7.5 -19t-15.5 -7zM102 0v460h22v-460h-22zM353 -97q0 -35 -4.5 -62t-17 -45t-34.5 -27.5t-56 -9.5q-7 0 -15 0.5t-14 2.5l4 19q13 -3 25 -3q32 0 50 11t27 28.5t11 39.5t2 44v559h22v-557zM342 633
q-9 0 -16 7t-7 19q0 11 7 18t16 7t16 -7t7 -18q0 -12 -7.5 -19t-15.5 -7z" />
    <glyph glyph-name="napostrophe" unicode="&#x22;n" horiz-adv-x="572" 
d="M128 339q10 32 29 57t43 42.5t52 26.5t58 9q48 0 80 -17t51 -45t27 -63t8 -71v-278h-22v276q0 28 -6 60t-22.5 58t-44.5 43.5t-71 17.5q-38 0 -71.5 -15.5t-58 -44.5t-39 -70.5t-14.5 -94.5v-230h-22v344q0 11 -0.5 27t-1 32.5t-1.5 31.5t-2 25h22q1 -10 1.5 -25t1 -32.5
t1 -34t0.5 -29.5h2zM75 523h-17l51 185h24z" />
    <glyph glyph-name="fl" unicode="fl" horiz-adv-x="494" 
d="M370 0v756h22v-756h-22zM282 745q-10 2 -20 3.5t-21 1.5q-27 0 -46 -11t-30.5 -28.5t-16.5 -39.5t-5 -45v-166h125v-19h-125v-441h-22v441h-97v19h96v165q0 42 11 70t28.5 44t38.5 22.5t42 6.5q26 0 46 -6z" />
    <glyph glyph-name="fi" unicode="fi" horiz-adv-x="494" 
d="M381 633q-9 0 -16 7t-7 19q0 11 7 18t16 7t16 -7t7 -18q0 -12 -7.5 -19t-15.5 -7zM370 0v460h22v-460h-22zM282 745q-10 2 -20 3.5t-21 1.5q-27 0 -46 -11t-30.5 -28.5t-16.5 -39.5t-5 -45v-166h125v-19h-125v-441h-22v441h-97v19h96v165q0 42 11 70t28.5 44t38.5 22.5
t42 6.5q26 0 46 -6z" />
    <glyph glyph-name=".notdef" horiz-adv-x="512" 
d="M222 117v67h56v-67h-56zM225 234l-2 17q0 56 13 81q7 13 18 27.5t28 31.5q16 15 26 26.5t15 21t7 18t2 17.5q0 36 -22.5 60.5t-53.5 24.5t-53.5 -22t-28.5 -73l-50 8q7 72 44 104.5t91 32.5t89 -35.5t35 -95.5q0 -32 -12.5 -58.5t-50.5 -61.5q-37 -33 -43 -52
q-6 -20 -6 -72h-46zM462 50v617h-412v-617h412zM512 718v-718h-512v718h512z" />
    <glyph glyph-name=".null" horiz-adv-x="500" 
 />
    <glyph glyph-name=".null" horiz-adv-x="500" 
 />
    <glyph glyph-name="nonmarkingreturn" unicode="&#xd;" horiz-adv-x="0" 
 />
    <glyph glyph-name="space" unicode=" " horiz-adv-x="250" 
 />
    <glyph glyph-name="exclam" unicode="!" horiz-adv-x="276" 
d="M138 45q8 0 15.5 -7t7.5 -19q0 -11 -7 -18t-16 -7t-16 7t-7 18q0 12 7 19t16 7zM149 195h-22v513h22v-513z" />
    <glyph glyph-name="quotedbl" unicode="&#x22;" horiz-adv-x="404" 
d="M119 480v228h22v-228h-22zM263 480v228h22v-228h-22z" />
    <glyph glyph-name="numbersign" unicode="#" horiz-adv-x="550" 
d="M378 453l-26 -196h112v-17h-114l-30 -240h-19l30 240h-172l-30 -240h-19l30 240h-111v17h113l27 196h-111v17h113l30 238h19l-31 -238h172l31 238h19l-31 -238h112v-17h-114zM188 453l-26 -196h171l26 196h-171z" />
    <glyph glyph-name="dollar" unicode="$" horiz-adv-x="560" 
d="M277 -84h-22v71q-63 2 -113.5 25t-86.5 64l17 15q36 -40 84.5 -61.5t98.5 -23.5v343q-41 13 -75.5 28.5t-59.5 37.5t-38.5 52t-13.5 73q0 39 14 70.5t39 54.5t59 37t75 18v72h22v-71q58 0 108 -18.5t83 -59.5l-17 -15q-28 35 -73 54.5t-101 19.5v-338q43 -14 80 -29
t64.5 -36.5t43.5 -52t16 -73.5t-15.5 -77t-43 -57.5t-65 -36.5t-80.5 -15v-71zM277 6q37 1 70 13t58 33t39.5 52t14.5 70t-15.5 66t-41 46.5t-58.5 32.5t-67 24v-337zM255 700q-32 -3 -61.5 -15t-52.5 -32t-37 -48.5t-14 -65.5q0 -39 14 -66t37 -46.5t52.5 -32.5t61.5 -23
v329z" />
    <glyph glyph-name="percent" unicode="%" horiz-adv-x="820" 
d="M366 556q0 -34 -12.5 -63t-34 -50t-50 -33t-60.5 -12t-60.5 12t-49.5 33t-33.5 50t-12.5 63q0 33 12.5 62t33.5 50.5t49.5 34t60.5 12.5t60.5 -12.5t50 -34t34 -50.5t12.5 -62zM344 556q0 29 -10.5 54.5t-29 44.5t-43 30t-52.5 11t-52.5 -11t-42.5 -30t-28.5 -44.5
t-10.5 -54.5q0 -30 10.5 -55t28.5 -44t42.5 -29.5t52.5 -10.5t52.5 10.5t43 29.5t29 44t10.5 55zM767 150q0 -34 -12.5 -63t-34 -50t-50 -33t-60.5 -12t-60.5 12t-49.5 33t-33.5 50t-12.5 63q0 33 12.5 62t33.5 50.5t49.5 34t60.5 12.5t60.5 -12.5t50 -34t34 -50.5t12.5 -62
zM745 150q0 29 -10.5 54.5t-29 44.5t-43 30t-52.5 11t-52.5 -11t-42.5 -30t-28.5 -44.5t-10.5 -54.5q0 -30 10.5 -55t28.5 -44t42.5 -29.5t52.5 -10.5t52.5 10.5t43 29.5t29 44t10.5 55zM195 -27l-16 11l440 752l16 -11z" />
    <glyph glyph-name="ampersand" unicode="&#x26;" horiz-adv-x="704" 
d="M617 0l-116 124q-45 -70 -101 -106t-125 -36q-42 0 -78.5 13.5t-63.5 39t-42.5 62t-15.5 82.5q0 39 12.5 69.5t35.5 56t55 46.5t70 42q-27 30 -45 54t-29 45t-15.5 41t-4.5 41q0 34 12 62t32.5 48t49 31t61.5 11q31 0 58.5 -11t47 -30t31 -44.5t11.5 -54.5
q0 -36 -13 -63.5t-36.5 -50.5t-56 -43t-70.5 -41l215 -231l115 212h25l-124 -225l134 -144h-29zM435 582q0 28 -10 51.5t-27.5 40t-41 25.5t-49.5 9q-27 0 -51 -10t-41.5 -27.5t-28 -42t-10.5 -53.5q0 -48 24.5 -87t67.5 -87q36 19 66.5 38t53 40t35 46t12.5 57zM262 378
q-33 -16 -62.5 -35.5t-52.5 -43.5t-36.5 -54t-13.5 -66q0 -41 14.5 -74t39.5 -56t58 -35.5t71 -12.5q64 0 117.5 38t88.5 101z" />
    <glyph glyph-name="quotesingle" unicode="'" horiz-adv-x="260" 
d="M119 480v228h22v-228h-22z" />
    <glyph glyph-name="parenleft" unicode="(" horiz-adv-x="300" 
d="M74 288q0 60 9 120t25.5 117t40.5 109.5t54 97.5l20 -10q-30 -41 -53.5 -93.5t-40 -110t-25 -117t-8.5 -113.5t8.5 -113.5t25 -117t40 -110t53.5 -93.5l-20 -10q-30 45 -54 97.5t-40.5 109.5t-25.5 117t-9 120z" />
    <glyph glyph-name="parenright" unicode=")" horiz-adv-x="300" 
d="M224 288q0 -60 -9 -120t-25.5 -117t-40.5 -109.5t-54 -97.5l-20 10q30 41 53.5 93.5t40 110t25 117t8.5 113.5t-8.5 113.5t-25 117t-40 110t-53.5 93.5l20 10q30 -45 54 -97.5t40.5 -109.5t25.5 -117t9 -120z" />
    <glyph glyph-name="asterisk" unicode="*" horiz-adv-x="444" 
d="M394 589l6 -17l-165 -50l102 -142l-14 -10l-101 143l-101 -143l-14 10l102 142l-165 50l6 17l163 -52v171h18v-171z" />
    <glyph glyph-name="plus" unicode="+" 
d="M345 65h-21v230h-224v19h224v230h21v-230h221v-19h-221v-230z" />
    <glyph glyph-name="comma" unicode="," horiz-adv-x="240" 
d="M88 -138h-17l57 228h24z" />
    <glyph glyph-name="hyphen" unicode="-" horiz-adv-x="300" 
d="M60 244v20h180v-20h-180z" />
    <glyph glyph-name="period" unicode="." horiz-adv-x="240" 
d="M120 -6q-9 0 -16 7t-7 19q0 11 7 18t16 7t16 -7t7 -18q0 -12 -7.5 -19t-15.5 -7z" />
    <glyph glyph-name="slash" unicode="/" horiz-adv-x="370" 
d="M42 -15l-19 7l307 737l19 -7z" />
    <glyph glyph-name="zero" unicode="0" horiz-adv-x="560" 
d="M280 -12q-68 0 -111 34.5t-67 87.5t-33 118t-9 126t9 126t33 118t67 87.5t111 34.5t111 -34.5t67 -87.5t33 -118t9 -126t-9 -126t-33 -118t-67 -87.5t-111 -34.5zM280 700q-45 0 -77.5 -18.5t-54.5 -48t-35 -67t-20 -76t-9 -74.5t-2 -62q0 -27 2 -62.5t9 -74t20 -76
t35 -67t54.5 -48t77.5 -18.5t77.5 18.5t54.5 48t35 67t20 76t9 74t2 62.5q0 26 -2 62t-9 74.5t-20 76t-35 67t-54.5 48t-77.5 18.5z" />
    <glyph glyph-name="one" unicode="1" horiz-adv-x="560" 
d="M290 0v682l-134 -114l-13 17l147 123h22v-708h-22z" />
    <glyph glyph-name="two" unicode="2" horiz-adv-x="560" 
d="M63 0v26l247 290q56 65 89 118t33 107q0 37 -12 66.5t-33.5 50.5t-51 32t-63.5 11q-58 0 -102 -30.5t-62 -90.5l-21 7q19 64 69 98.5t116 34.5q40 0 73.5 -13t57.5 -36.5t37.5 -55t13.5 -67.5q0 -33 -8.5 -62t-26 -58.5t-43 -62t-58.5 -71.5l-232 -273h374v-21h-397z" />
    <glyph glyph-name="three" unicode="3" horiz-adv-x="560" 
d="M465 186q0 -39 -12 -74.5t-36.5 -63t-63 -44t-91.5 -16.5q-68 0 -120.5 31t-78.5 82l21 9q22 -46 70 -73t108 -29q44 -1 78 13t57 38.5t34.5 57.5t11.5 70q0 46 -19.5 79t-49.5 54.5t-66 31.5t-68 10h-22v20h22q32 0 63.5 9.5t57 29.5t41.5 51t16 75q0 35 -12 63.5
t-33 48.5t-49.5 31t-61.5 11q-44 0 -84 -19t-63 -54l-18 12q26 37 68.5 58.5t96.5 21.5q38 0 70.5 -12t56 -34.5t37 -54.5t13.5 -72q0 -30 -8.5 -58.5t-26.5 -51.5t-46.5 -40t-67.5 -23v-2q45 -7 78 -25t54.5 -43t32 -55.5t10.5 -62.5z" />
    <glyph glyph-name="four" unicode="4" horiz-adv-x="560" 
d="M396 184v-184h-22v184h-331v27l319 497h34v-504h118v-20h-118zM374 684h-3l-308 -480h311v480z" />
    <glyph glyph-name="five" unicode="5" horiz-adv-x="560" 
d="M476 215q0 -56 -18.5 -98.5t-49 -71t-69 -43t-78.5 -14.5q-69 0 -115.5 26t-76.5 68l18 14q28 -41 70.5 -64.5t103.5 -23.5q35 0 69.5 13t62 39t44.5 64.5t17 90.5q0 43 -14 80.5t-40 65t-64 43t-87 15.5q-35 0 -68.5 -10t-62.5 -26l5 325h323v-20h-301l-6 -275
q28 14 60 19.5t59 5.5q51 0 91 -17t68.5 -46.5t43.5 -70.5t15 -89z" />
    <glyph glyph-name="six" unicode="6" horiz-adv-x="560" 
d="M70 201q0 39 13.5 83.5t46.5 101.5l187 322h26l-213 -360l2 -1q26 32 67.5 51t88.5 19q43 0 80 -16.5t64 -45t42.5 -68.5t15.5 -86t-15.5 -85t-43.5 -67.5t-67 -44.5t-85 -16t-84.5 15.5t-66 44t-43 67.5t-15.5 86zM92 201q0 -42 14 -77.5t39 -61.5t59.5 -40.5
t75.5 -14.5t75.5 14.5t59.5 40.5t39 61.5t14 77.5t-13.5 78t-38 62.5t-58 41.5t-73.5 15q-39 0 -74 -15t-61.5 -41.5t-42 -62.5t-15.5 -78z" />
    <glyph glyph-name="seven" unicode="7" horiz-adv-x="560" 
d="M459 681l-295 -681h-24l300 688h-364v20h383v-27z" />
    <glyph glyph-name="eight" unicode="8" horiz-adv-x="560" 
d="M489 188q0 -46 -16 -83t-43.5 -63t-66 -40t-83.5 -14t-83.5 14t-66 40t-43.5 63t-16 83q0 31 9 60.5t27.5 55t46.5 45t66 30.5v2q-63 24 -92.5 70.5t-29.5 95.5q0 39 14 70.5t38 54.5t57.5 35.5t72.5 12.5t72.5 -12.5t57.5 -35.5t38 -54.5t14 -70.5q0 -49 -29.5 -96
t-92.5 -70v-2q39 -12 67.5 -32t46.5 -45t26.5 -54t8.5 -60zM441 547q0 34 -12.5 62.5t-34.5 49t-51 31.5t-63 11t-63.5 -11t-51 -31.5t-34 -49t-12.5 -62.5q0 -32 12 -60.5t33.5 -50.5t51 -35t64.5 -13t64.5 13t51 35t33.5 50.5t12 60.5zM467 188q0 40 -14.5 73.5t-40 58
t-59.5 38t-73 13.5t-73 -13.5t-59.5 -38t-40 -58t-14.5 -73.5q0 -38 13.5 -71t38 -57.5t59 -38.5t76.5 -14t76.5 14t59 38.5t38 57.5t13.5 71z" />
    <glyph glyph-name="nine" unicode="9" horiz-adv-x="560" 
d="M490 509q0 -39 -14 -81.5t-46 -99.5l-188 -328h-26l214 366l-2 1q-26 -32 -67.5 -51t-88.5 -19q-43 0 -80 15.5t-64 44t-42.5 67t-15.5 85.5q0 46 15.5 85t43.5 67t67 43.5t85 15.5t84.5 -15.5t66 -43t43 -66.5t15.5 -86zM468 509q0 42 -14 77t-39 60.5t-59.5 40
t-75.5 14.5t-75.5 -14.5t-59.5 -40t-39 -60.5t-14 -77t13.5 -77.5t38 -61t58 -40t73.5 -14.5q39 0 74 14.5t61.5 40t42 61t15.5 77.5z" />
    <glyph glyph-name="colon" unicode=":" horiz-adv-x="280" 
d="M140 409q-9 0 -16 7t-7 19q0 11 7 18t16 7t16 -7t7 -18q0 -12 -7.5 -19t-15.5 -7zM140 -6q-9 0 -16 7t-7 19q0 11 7 18t16 7t16 -7t7 -18q0 -12 -7.5 -19t-15.5 -7z" />
    <glyph glyph-name="semicolon" unicode=";" horiz-adv-x="280" 
d="M140 409q-9 0 -16 7t-7 19q0 11 7 18t16 7t16 -7t7 -18q0 -12 -7.5 -19t-15.5 -7zM98 -138h-17l57 228h24z" />
    <glyph glyph-name="less" unicode="&#x3c;" 
d="M100 291v24l466 224v-20l-454 -216l454 -216v-20z" />
    <glyph glyph-name="equal" unicode="=" 
d="M100 380v19h466v-19h-466zM100 209v19h466v-19h-466z" />
    <glyph glyph-name="greater" unicode="&#x3e;" 
d="M100 87l454 216l-454 216v20l466 -224v-24l-466 -224v20z" />
    <glyph glyph-name="question" unicode="?" horiz-adv-x="472" 
d="M241 45q8 0 15.5 -7t7.5 -19q0 -11 -7 -18t-16 -7t-16 7t-7 18q0 12 7 19t16 7zM250 200h-22v53q0 16 2.5 33t10 34.5t21 35t35.5 34.5l34 30q15 14 27.5 27.5t22 29t15 34.5t5.5 45q0 36 -12.5 64t-34.5 47t-51.5 28.5t-62.5 9.5q-69 0 -112 -40.5t-54 -103.5l-21 4
q14 78 65 119.5t124 41.5q37 0 70 -11t58 -32.5t39 -53t14 -72.5q0 -32 -7.5 -55.5t-20 -42t-28.5 -34t-34 -30.5q-26 -21 -42 -38.5t-25 -34t-12.5 -35.5t-3.5 -43v-44z" />
    <glyph glyph-name="at" unicode="@" horiz-adv-x="800" 
d="M760 415q0 -54 -13 -101t-37.5 -81t-61 -53.5t-83.5 -19.5q-38 0 -62.5 21t-18.5 68h-2q-8 -15 -20.5 -31t-29.5 -28.5t-38.5 -21t-46.5 -8.5q-30 0 -51.5 11t-35.5 28.5t-20.5 40.5t-6.5 47q0 44 14 91t40 86t63 64t82 25q46 0 72.5 -24.5t31.5 -66.5h4l20 73h21
l-68 -237q-4 -14 -7 -31t-3 -29q0 -32 18 -45t44 -13q46 0 79 20t54 53t31 75t10 87q0 63 -24.5 116.5t-68 93t-102.5 61.5t-128 22q-76 0 -139.5 -29t-109.5 -78t-72 -113t-26 -133q0 -73 25.5 -137.5t72 -113t111.5 -76.5t143 -28q86 0 159.5 37.5t122.5 95.5l15 -13
q-54 -64 -130 -102t-167 -38q-84 0 -153 29.5t-118 80.5t-76 119t-27 146t28.5 146t78.5 118.5t117 79.5t145 29q75 0 138 -23.5t109 -65.5t71.5 -99.5t25.5 -124.5zM523 432q0 20 -5.5 38.5t-16.5 32.5t-28 22t-41 8q-42 0 -75 -24t-55.5 -60.5t-34.5 -80t-12 -82.5
q0 -45 23.5 -75.5t73.5 -30.5q42 0 74 29.5t53.5 70t32.5 83t11 69.5z" />
    <glyph glyph-name="A" unicode="A" 
d="M624 0l-84 203h-411l-87 -203h-24l307 708h28l295 -708h-24zM338 694l-201 -472h396z" />
    <glyph glyph-name="B" unicode="B" horiz-adv-x="612" 
d="M551 189q0 -57 -21.5 -93.5t-55 -57.5t-74 -29.5t-77.5 -8.5h-217v708h193q40 0 79.5 -8t70.5 -27t50 -51t19 -81q0 -38 -12 -66t-32.5 -48t-46.5 -32.5t-53 -18.5v-2q27 -3 58 -14.5t57.5 -33.5t44 -56t17.5 -81zM496 538q0 43 -17 72t-45 46t-64.5 24.5t-76.5 7.5h-165
v-305h170q36 0 71.5 9t63.5 27.5t45.5 48t17.5 70.5zM529 186q0 48 -19.5 82t-49.5 55t-66 30.5t-70 9.5h-196v-343h185q46 0 86 9.5t68.5 29.5t45 51.5t16.5 75.5z" />
    <glyph glyph-name="C" unicode="C" horiz-adv-x="724" 
d="M686 87q-45 -54 -113.5 -80.5t-139.5 -26.5q-80 0 -146 28t-114 77.5t-74.5 118.5t-26.5 150t26.5 150t74.5 118.5t114.5 77.5t145.5 28q66 0 128.5 -22.5t106.5 -68.5l-14 -16q-21 22 -47.5 38.5t-56 27.5t-59.5 16t-58 5q-76 0 -138.5 -27.5t-107 -75.5t-69 -112.5
t-24.5 -138.5t24 -138.5t68.5 -112.5t107 -75.5t139.5 -27.5q66 0 130.5 25.5t106.5 76.5l16 -15v0z" />
    <glyph glyph-name="D" unicode="D" horiz-adv-x="770" 
d="M698 354q0 -92 -30 -158.5t-83 -110t-124.5 -64.5t-153.5 -21h-201v708h201q82 0 153.5 -20.5t124.5 -64t83 -110.5t30 -159zM129 688v-668h173q78 0 146.5 19.5t118.5 60t79 103.5t29 151t-29 151.5t-79 104t-118.5 59.5t-146.5 19h-173z" />
    <glyph glyph-name="E" unicode="E" horiz-adv-x="590" 
d="M106 0v708h412v-20h-391v-311h368v-20h-368v-337h407v-20h-428z" />
    <glyph glyph-name="F" unicode="F" horiz-adv-x="560" 
d="M128 688v-311h355v-20h-355v-357h-22v708h404v-20h-382z" />
    <glyph glyph-name="G" unicode="G" horiz-adv-x="795" 
d="M699 41q-42 -23 -106 -42t-148 -19t-153 29t-118 79.5t-75.5 119t-26.5 148.5t27 148.5t75.5 118t116.5 77.5t150 28q72 0 132 -22t106 -60l-16 -16q-20 19 -46.5 33.5t-56 24.5t-60.5 15t-60 5q-78 0 -142 -27.5t-109.5 -75.5t-70 -112t-24.5 -137t24 -138t69.5 -113.5
t111 -76.5t148.5 -28q72 0 128 15t103 38v278h-184v19h205v-309v0z" />
    <glyph glyph-name="H" unicode="H" horiz-adv-x="732" 
d="M604 0v356h-476v-356h-22v708h22v-332h476v332h22v-708h-22z" />
    <glyph glyph-name="I" unicode="I" horiz-adv-x="234" 
d="M106 0v708h22v-708h-22z" />
    <glyph glyph-name="J" unicode="J" horiz-adv-x="480" 
d="M378 193q0 -98 -45.5 -154.5t-135.5 -56.5q-63 0 -107 32.5t-61 78.5l19 9q20 -45 59 -72.5t90 -27.5q43 0 73 14.5t49 40.5t28 61.5t9 77.5v512h22v-515v0z" />
    <glyph glyph-name="K" unicode="K" horiz-adv-x="565" 
d="M129 383l356 325h32l-360 -325l378 -383h-31l-375 381h-1v-381h-22v708h22v-325h1z" />
    <glyph glyph-name="L" unicode="L" horiz-adv-x="498" 
d="M106 0v708h22v-688h352v-20h-374z" />
    <glyph glyph-name="M" unicode="M" horiz-adv-x="906" 
d="M778 0v683h-4l-313 -683h-18l-312 683h-3v-683h-22v708h39l308 -676l308 676h39v-708h-22z" />
    <glyph glyph-name="N" unicode="N" horiz-adv-x="777" 
d="M639 0l-508 680h-3v-680h-22v708h31l509 -679h3v679h22v-708h-32z" />
    <glyph glyph-name="O" unicode="O" horiz-adv-x="872" 
d="M800 354q0 -82 -27.5 -150.5t-76 -118t-115.5 -77.5t-145 -28t-145 28t-115.5 77.5t-76 118t-27.5 150.5t27.5 150.5t76 118t115 77.5t145.5 28t145.5 -28t115 -77.5t76 -118t27.5 -150.5zM778 354q0 74 -25 138.5t-70.5 112.5t-108.5 75.5t-138 27.5t-138 -27.5
t-108.5 -75.5t-70.5 -112.5t-25 -138.5t24.5 -138.5t69.5 -112.5t108 -75.5t140 -27.5t140 27.5t108 75.5t69.5 112.5t24.5 138.5z" />
    <glyph glyph-name="P" unicode="P" horiz-adv-x="572" 
d="M517 532q0 -45 -16.5 -79.5t-44.5 -57.5t-65.5 -35t-79.5 -12h-183v-348h-22v708h192q38 0 77 -8.5t70.5 -28.5t51.5 -54t20 -85zM495 532q0 45 -17 75t-44 48t-60.5 26t-66.5 8h-179v-322h184q33 0 66 9t59 29t42 51.5t16 75.5z" />
    <glyph glyph-name="Q" unicode="Q" horiz-adv-x="883" 
d="M800 361q0 -59 -19 -115.5t-53 -102.5t-79.5 -78t-98.5 -43v-2h288v-20h-404q-74 0 -140 25.5t-115.5 73t-78 114t-28.5 148.5q0 80 27.5 147.5t76 116t115 76t145.5 27.5t145.5 -28t115 -77t76 -116t27.5 -146zM778 361q0 71 -25 134t-70.5 110.5t-108.5 75t-138 27.5
t-138 -27t-108.5 -74t-70.5 -110.5t-25 -135.5q0 -71 25.5 -133t71 -108.5t108.5 -73t138 -26.5q78 0 141 28.5t107.5 76t68.5 109t24 127.5z" />
    <glyph glyph-name="R" unicode="R" horiz-adv-x="594" 
d="M508 0l-214 357h-166v-357h-22v708h196q39 0 79 -7t71.5 -26.5t51.5 -53.5t20 -88q0 -50 -19 -83t-49 -53.5t-66.5 -29.5t-71.5 -9l215 -358h-25zM502 533q0 46 -18 76.5t-47.5 48t-68 24.5t-78.5 7h-162v-313h173q98 0 149.5 41t51.5 116z" />
    <glyph glyph-name="S" unicode="S" horiz-adv-x="570" 
d="M498 170q0 -45 -17.5 -80.5t-46.5 -60t-68.5 -37t-82.5 -12.5q-66 0 -120.5 23.5t-90.5 63.5l17 15q38 -41 88.5 -61.5t104.5 -20.5q39 0 74 11.5t62 33t42.5 53t15.5 72.5t-17 69t-44 48t-61.5 33.5t-69.5 24.5q-44 14 -80.5 29.5t-63 38t-41 54t-14.5 76.5
q0 44 17.5 78.5t47.5 58t69.5 36t83.5 12.5q54 0 102.5 -20.5t79.5 -58.5l-17 -15q-28 35 -71.5 54.5t-94.5 19.5q-36 0 -70.5 -10t-62.5 -30.5t-45 -51.5t-17 -73q0 -41 15 -69.5t40 -48.5t56.5 -33t64.5 -24q45 -15 84 -30.5t68.5 -37.5t46 -53.5t16.5 -76.5z" />
    <glyph glyph-name="T" unicode="T" horiz-adv-x="540" 
d="M281 688v-688h-22v688h-241v20h504v-20h-241z" />
    <glyph glyph-name="U" unicode="U" horiz-adv-x="732" 
d="M636 268q0 -60 -14 -112.5t-46 -91.5t-83.5 -61.5t-126.5 -22.5t-126.5 22.5t-83.5 61.5t-46 91.5t-14 112.5v440h22v-436q0 -42 8.5 -89.5t35 -88t75 -67.5t129.5 -27q79 0 127.5 26t75.5 66.5t36 88t9 91.5v436h22v-440v0z" />
    <glyph glyph-name="V" unicode="V" horiz-adv-x="606" 
d="M318 0h-34l-266 708h24l258 -688h2l262 688h24z" />
    <glyph glyph-name="W" unicode="W" horiz-adv-x="956" 
d="M716 0h-34l-205 687h-2l-201 -687h-34l-212 708h23l204 -688h3l201 688h34l205 -688h3l204 688h23z" />
    <glyph glyph-name="X" unicode="X" horiz-adv-x="590" 
d="M531 0l-236 354l-237 -354h-26l250 371l-226 337h26l213 -320l213 320h25l-225 -337l250 -371h-27z" />
    <glyph glyph-name="Y" unicode="Y" horiz-adv-x="538" 
d="M280 310v-310h-22v310l-243 398h26l229 -376l228 376h25z" />
    <glyph glyph-name="Z" unicode="Z" horiz-adv-x="594" 
d="M54 0v27l466 661h-453v20h473v-29l-465 -659h477v-20h-498z" />
    <glyph glyph-name="bracketleft" unicode="[" horiz-adv-x="300" 
d="M80 -156v888h140v-19h-118v-850h118v-19h-140z" />
    <glyph glyph-name="backslash" unicode="\" horiz-adv-x="370" 
d="M42 729l307 -737l-19 -7l-307 737z" />
    <glyph glyph-name="bracketright" unicode="]" horiz-adv-x="300" 
d="M80 -137h118v850h-118v19h140v-888h-140v19z" />
    <glyph glyph-name="asciicircum" unicode="^" 
d="M321 708h24l224 -466h-20l-216 454l-216 -454h-20z" />
    <glyph glyph-name="underscore" unicode="_" horiz-adv-x="500" 
d="M0 -114v20h500v-20h-500z" />
    <glyph glyph-name="grave" unicode="`" horiz-adv-x="240" 
d="M47 708l103 -144h-19l-111 144h27z" />
    <glyph glyph-name="a" unicode="a" horiz-adv-x="512" 
d="M418 104q0 -26 2.5 -55.5t5.5 -48.5h-21q-2 10 -3 24.5t-2.5 30t-2 30.5t-0.5 25h-3q-20 -63 -69 -93.5t-105 -30.5q-28 0 -55.5 8t-49.5 24t-35.5 41t-13.5 59q0 49 25.5 79t63.5 46.5t81.5 21.5t79.5 5h80v37q0 77 -41 112.5t-107 35.5q-41 0 -76.5 -15t-63.5 -40
l-12 17q32 28 72.5 42.5t79.5 14.5q79 0 124.5 -40.5t45.5 -127.5v-202zM396 251h-71q-38 0 -80 -4.5t-77 -18.5t-57.5 -40t-22.5 -70q0 -32 12.5 -53.5t32 -34.5t43 -19t44.5 -6q51 0 85 19t54.5 48.5t28.5 65t8 69.5v44z" />
    <glyph glyph-name="b" unicode="b" horiz-adv-x="626" 
d="M127 335q30 69 85.5 104t121.5 35q51 0 93.5 -18.5t73 -51t47 -77.5t16.5 -98q0 -52 -17 -96.5t-47.5 -77t-73 -51t-92.5 -18.5q-33 0 -64.5 9t-58.5 26.5t-49 43t-35 59.5h-3v-124h-22v756h22v-421h3zM542 229q0 45 -14.5 86t-41.5 72t-65.5 49.5t-86.5 18.5
q-46 0 -84.5 -18t-66.5 -48.5t-44 -71.5t-16 -87t16 -87t44 -71.5t66.5 -48.5t84.5 -18q48 0 86.5 18t65.5 48.5t41.5 71.5t14.5 86z" />
    <glyph glyph-name="c" unicode="c" horiz-adv-x="480" 
d="M430 398q-26 27 -61 42t-73 15q-49 0 -88 -18.5t-66.5 -49.5t-42.5 -72t-15 -86t15 -86t42.5 -71.5t66.5 -48.5t88 -18q38 0 74.5 13t63.5 39l15 -14q-30 -30 -70.5 -43.5t-82.5 -13.5q-51 0 -93.5 18t-74 50t-49 77t-17.5 98t17.5 98t49 77.5t74 51t93.5 18.5
q44 0 83.5 -16t67.5 -45z" />
    <glyph glyph-name="d" unicode="d" horiz-adv-x="626" 
d="M502 756h22v-756h-22v124h-3q-30 -68 -85.5 -103t-121.5 -35q-50 0 -92.5 18.5t-73 51t-47.5 77t-17 96.5t17 97t47.5 78t73 51.5t92.5 18.5q66 0 121.5 -35t85.5 -104h3v421zM84 229q0 -45 14.5 -86t41.5 -71.5t65.5 -48.5t86.5 -18q46 0 84.5 18t66.5 48.5t44 71.5
t16 87t-16 87t-44 71.5t-66.5 48.5t-84.5 18q-48 0 -86.5 -18.5t-65.5 -49.5t-41.5 -72t-14.5 -86z" />
    <glyph glyph-name="e" unicode="e" horiz-adv-x="556" 
d="M84 235q0 -42 12.5 -83t38 -73.5t64.5 -52.5t92 -20q54 0 96 21.5t73 62.5l16 -14q-34 -44 -79.5 -67t-105.5 -23q-51 0 -93 18.5t-72.5 51.5t-47 79t-16.5 100q0 52 17 96t46.5 76t69.5 49.5t86 17.5q54 0 94 -19t66.5 -50t39.5 -70.5t13 -80.5v-19h-410zM473 254
q-1 45 -15.5 82t-39.5 63.5t-60 41t-78 14.5q-52 0 -89 -21.5t-60.5 -53t-34.5 -66t-11 -60.5h388z" />
    <glyph glyph-name="f" unicode="f" horiz-adv-x="282" 
d="M282 745q-10 2 -20 3.5t-21 1.5q-27 0 -46 -11t-30.5 -28.5t-16.5 -39.5t-5 -45v-166h125v-19h-125v-441h-22v441h-97v19h96v165q0 42 11 70t28.5 44t38.5 22.5t42 6.5q26 0 46 -6z" />
    <glyph glyph-name="g" unicode="g" horiz-adv-x="626" 
d="M502 124h-3q-13 -34 -35 -59.5t-49 -43t-58.5 -26.5t-64.5 -9q-50 0 -92.5 18.5t-73 51t-47.5 77t-17 96.5t17 97t47.5 78t73 51.5t92.5 18.5q66 0 121.5 -35t85.5 -104h3v125h22v-434q0 -55 -11.5 -105t-38 -88t-70 -60.5t-107.5 -22.5q-65 0 -116 22.5t-87 63.5l15 15
q38 -43 86.5 -62.5t101.5 -19.5q60 0 100 22t63 58t32.5 82.5t9.5 96.5v96zM84 229q0 -45 14.5 -86t41.5 -72t65.5 -49t86.5 -18q46 0 84.5 18t66.5 49t44 72t16 87t-16 87t-44 71.5t-66.5 48.5t-84.5 18q-48 0 -86.5 -18.5t-65.5 -49.5t-41.5 -72t-14.5 -86z" />
    <glyph glyph-name="h" unicode="h" horiz-adv-x="569" 
d="M126 339q10 32 28.5 57t42.5 42.5t52 26.5t58 9q48 0 80 -17t51 -45t27 -63t8 -71v-278h-22v276q0 28 -6 60t-22.5 58t-44.5 43.5t-71 17.5q-38 0 -71.5 -15.5t-58 -44.5t-39 -70.5t-14.5 -94.5v-230h-22v756h22v-417h2z" />
    <glyph glyph-name="i" unicode="i" horiz-adv-x="226" 
d="M113 633q-9 0 -16 7t-7 19q0 11 7 18t16 7t16 -7t7 -18q0 -12 -7.5 -19t-15.5 -7zM102 0v460h22v-460h-22z" />
    <glyph glyph-name="j" unicode="j" horiz-adv-x="226" 
d="M124 -97q0 -35 -4.5 -62t-17 -45t-34.5 -27.5t-56 -9.5q-7 0 -15 0.5t-14 2.5l4 19q13 -3 25 -3q32 0 50 11t27 28.5t11 39.5t2 44v559h22v-557zM113 633q-9 0 -16 7t-7 19q0 11 7 18t16 7t16 -7t7 -18q0 -12 -7.5 -19t-15.5 -7z" />
    <glyph glyph-name="k" unicode="k" horiz-adv-x="445" 
d="M125 248l238 212h31l-243 -213l271 -247h-33l-264 243h-1v-243h-22v756h22v-508h1z" />
    <glyph glyph-name="l" unicode="l" horiz-adv-x="226" 
d="M102 0v756h22v-756h-22z" />
    <glyph glyph-name="m" unicode="m" horiz-adv-x="889" 
d="M454 333q20 68 68 104.5t109 36.5q46 0 77.5 -17t50 -45t26.5 -63t8 -71v-278h-22v276q0 28 -6.5 60t-22.5 58t-43 43.5t-68 17.5q-36 0 -67.5 -15.5t-55 -44.5t-37.5 -70.5t-14 -94.5v-230h-22v276q0 28 -5.5 60t-20.5 58t-41.5 43.5t-67.5 17.5q-36 0 -67.5 -15.5
t-55 -44.5t-37 -70.5t-13.5 -94.5v-230h-22v344q0 11 -0.5 27t-1 32.5t-1.5 31.5t-2 25h22q1 -10 1.5 -25t1 -32.5t1 -34t0.5 -29.5h2q10 32 28 57t40.5 42.5t49 26.5t54.5 9q36 0 62.5 -11t44.5 -30t29 -44.5t16 -55.5h2z" />
    <glyph glyph-name="n" unicode="n" horiz-adv-x="572" 
d="M128 339q10 32 29 57t43 42.5t52 26.5t58 9q48 0 80 -17t51 -45t27 -63t8 -71v-278h-22v276q0 28 -6 60t-22.5 58t-44.5 43.5t-71 17.5q-38 0 -71.5 -15.5t-58 -44.5t-39 -70.5t-14.5 -94.5v-230h-22v344q0 11 -0.5 27t-1 32.5t-1.5 31.5t-2 25h22q1 -10 1.5 -25t1 -32.5
t1 -34t0.5 -29.5h2v0z" />
    <glyph glyph-name="o" unicode="o" horiz-adv-x="605" 
d="M543 231q0 -54 -17.5 -99t-49.5 -77.5t-76.5 -50.5t-97.5 -18t-97 18t-76 50.5t-49.5 77.5t-17.5 99t17.5 98.5t49.5 76.5t76 50t97 18t97.5 -18t76.5 -50t49.5 -76.5t17.5 -98.5zM521 231q0 46 -15 87t-43.5 71.5t-69 48t-91.5 17.5t-91 -17.5t-68.5 -48t-43.5 -71.5
t-15 -87q0 -47 15 -88t43.5 -71.5t68.5 -48.5t91 -18t91.5 18t69 48.5t43.5 71.5t15 88z" />
    <glyph glyph-name="p" unicode="p" horiz-adv-x="626" 
d="M127 335q30 69 85.5 104t121.5 35q51 0 93.5 -18.5t73 -51t47 -77.5t16.5 -98q0 -52 -17 -96.5t-47.5 -77t-73 -51t-92.5 -18.5q-33 0 -64.5 9t-58.5 26.5t-49 43t-35 59.5h-3v-364h-22v700h22v-125h3zM542 229q0 45 -14.5 86t-41.5 72t-65.5 49.5t-86.5 18.5
q-46 0 -84.5 -18t-66.5 -48.5t-44 -71.5t-16 -87t16 -87t44 -71.5t66.5 -48.5t84.5 -18q48 0 86.5 18t65.5 48.5t41.5 71.5t14.5 86z" />
    <glyph glyph-name="q" unicode="q" horiz-adv-x="626" 
d="M502 460h22v-700h-22v364h-3q-13 -34 -35 -59.5t-49 -43t-58.5 -26.5t-64.5 -9q-50 0 -92.5 18.5t-73 51t-47.5 77t-17 96.5q0 53 16.5 98t47 77.5t73 51t93.5 18.5q66 0 121.5 -35t85.5 -104h3v125zM84 229q0 -45 14.5 -86t41.5 -71.5t65.5 -48.5t86.5 -18q46 0 84.5 18
t66.5 48.5t44 71.5t16 87t-16 87t-44 71.5t-66.5 48.5t-84.5 18q-48 0 -86.5 -18.5t-65.5 -49.5t-41.5 -72t-14.5 -86z" />
    <glyph glyph-name="r" unicode="r" horiz-adv-x="317" 
d="M128 339q20 72 64 103.5t95 31.5h9t9 -1v-19q-4 1 -7.5 1h-5.5q-44 0 -75 -19.5t-51 -51t-29.5 -70t-9.5 -76.5v-238h-22v344q0 11 -0.5 27t-1 32.5t-1.5 31.5t-2 25h22q1 -10 1.5 -25t1 -32.5t1 -34t0.5 -29.5h2v0z" />
    <glyph glyph-name="s" unicode="s" horiz-adv-x="415" 
d="M361 120q0 -31 -12 -55.5t-32.5 -41.5t-47.5 -26t-58 -9q-51 0 -92.5 19.5t-68.5 57.5l18 12q50 -70 144 -70q22 0 44.5 7t41 21t30 35t11.5 48q0 32 -14.5 52t-36.5 32t-48.5 19.5t-49.5 13.5q-25 7 -47 15.5t-38.5 22t-26 33.5t-9.5 50t12 52t32 36.5t45.5 22t51.5 7.5
q94 0 141 -67l-19 -11q-23 30 -52 44.5t-70 14.5q-19 0 -40 -5t-38.5 -16.5t-29 -30.5t-11.5 -46q0 -30 9.5 -48t26.5 -29t41 -18.5t53 -14.5q27 -7 52.5 -16.5t45 -23.5t31 -35t11.5 -52z" />
    <glyph glyph-name="t" unicode="t" horiz-adv-x="304" 
d="M280 -1q-12 -5 -28 -8t-31 -3q-54 0 -77.5 30.5t-23.5 76.5v346h-100v19h99v135h23v-135h135v-19h-135v-346q0 -47 23 -67.5t61 -20.5q28 0 51 9l3 -17v0z" />
    <glyph glyph-name="u" unicode="u" horiz-adv-x="572" 
d="M442 121q-11 -32 -29.5 -57.5t-42.5 -42.5t-52 -26t-58 -9q-48 0 -80 17t-51 45t-27 63t-8 71v278h22v-276q0 -29 6 -60.5t22.5 -57.5t44 -43.5t71.5 -17.5q38 0 71.5 15.5t58 44.5t39 70.5t14.5 94.5v230h22v-344q0 -11 0.5 -27t1 -32.5t1.5 -31.5t2 -25h-22
q-1 10 -1.5 25t-1 32.5t-1 34t-0.5 29.5h-2v0z" />
    <glyph glyph-name="v" unicode="v" horiz-adv-x="434" 
d="M234 0h-29l-181 460h24l171 -438h2l165 438h24z" />
    <glyph glyph-name="w" unicode="w" horiz-adv-x="698" 
d="M529 0h-30l-150 436h-2l-149 -436h-30l-134 460h23l126 -438h2l148 438h31l149 -438h2l126 438h23z" />
    <glyph glyph-name="x" unicode="x" horiz-adv-x="452" 
d="M224 228l-168 -228h-28l182 243l-159 217h28l146 -202l145 202h29l-160 -217l185 -243h-29z" />
    <glyph glyph-name="y" unicode="y" horiz-adv-x="428" 
d="M176 -152q-16 -43 -42.5 -66.5t-68.5 -23.5q-9 0 -21 2t-20 5l6 19q6 -2 16.5 -4t20.5 -2q21 0 36.5 8t26.5 20.5t18.5 28.5t13.5 32l44 120l-182 473h24l169 -448l163 448h24z" />
    <glyph glyph-name="z" unicode="z" horiz-adv-x="438" 
d="M49 0v21l304 420h-288v19h310v-22l-301 -419h313v-19h-338z" />
    <glyph glyph-name="braceleft" unicode="{" horiz-adv-x="300" 
d="M0 297q16 0 30.5 5t24.5 17.5t16 35t6 57.5v195q0 70 30 97.5t76 27.5h47v-19h-47q-44 0 -64 -27.5t-20 -78.5v-196q0 -63 -19 -90t-48 -32v-2q29 -5 48 -32t19 -90v-196q0 -51 20 -78.5t64 -27.5h47v-19h-47q-23 0 -42.5 6.5t-33.5 21t-22 38.5t-8 59v195q0 35 -6 57.5
t-16 35t-24.5 17.5t-30.5 5v18z" />
    <glyph glyph-name="bar" unicode="|" horiz-adv-x="222" 
d="M122 750v-1000h-22v1000h22z" />
    <glyph glyph-name="braceright" unicode="}" horiz-adv-x="300" 
d="M300 279q-17 0 -31 -5t-24 -17.5t-16 -35t-6 -57.5v-195q0 -35 -8 -59t-22 -38.5t-33.5 -21t-42.5 -6.5h-47v19h47q44 0 64 27.5t20 78.5v196q0 63 19 90t48 32v2q-29 5 -48 32t-19 90v196q0 51 -20 78.5t-64 27.5h-47v19h47q46 0 76 -27.5t30 -97.5v-195q0 -35 6 -57.5
t16 -35t24 -17.5t31 -5v-18v0z" />
    <glyph glyph-name="asciitilde" unicode="~" 
d="M93 264q32 55 64.5 74t67.5 19q28 0 50.5 -8t49.5 -27q44 -31 71 -40.5t48 -9.5q40 0 67.5 25.5t48.5 59.5l15 -16q-30 -47 -63.5 -68.5t-67.5 -21.5t-55 9t-46 26q-22 15 -38 24.5t-28.5 15t-24 8t-25.5 2.5q-41 0 -68 -23t-49 -63l-17 14v0z" />
    <glyph glyph-name="uni00A0" unicode="&#xa0;" horiz-adv-x="250" 
 />
    <glyph glyph-name="exclamdown" unicode="&#xa1;" horiz-adv-x="276" 
d="M138 441q-9 0 -16 7t-7 19q0 11 7 18t16 7t16 -7t7 -18q0 -12 -7.5 -19t-15.5 -7zM127 -222v513h22v-513h-22z" />
    <glyph glyph-name="cent" unicode="&#xa2;" horiz-adv-x="560" 
d="M323 6q37 1 72 14t61 38l15 -14q-29 -29 -68.5 -42.5t-79.5 -14.5v-59h-22v59q-47 3 -87 22t-69 51t-45 75t-16 94t16 94t45 75.5t68.5 52t87.5 22.5v67h22v-67q42 -1 80.5 -17t65.5 -44l-17 -15q-26 26 -59.5 41t-69.5 16v-448zM301 454q-45 -3 -81 -22t-61.5 -50
t-39 -70.5t-13.5 -82.5t13.5 -82t39 -69.5t61.5 -49.5t81 -22v448z" />
    <glyph glyph-name="sterling" unicode="&#xa3;" horiz-adv-x="560" 
d="M377 379v-19h-170v-340h256v-20h-387v20h109v340h-98v19h98v136q0 98 45.5 154.5t135.5 56.5q36 0 66 -11.5t53 -31.5l-14 -16q-21 18 -47.5 28.5t-57.5 10.5q-43 0 -73 -14.5t-49 -40.5t-28 -61.5t-9 -77.5v-133h170z" />
    <glyph glyph-name="currency" unicode="&#xa4;" horiz-adv-x="560" 
d="M434 118q-29 -26 -68 -40.5t-85 -14.5q-47 0 -85.5 14.5t-67.5 41.5l-90 -89l-14 15l89 89q-26 29 -40.5 69t-14.5 88q0 45 13.5 83.5t38.5 67.5l-86 85l15 15l85 -85q29 29 69 44.5t88 15.5t87.5 -15.5t68.5 -43.5l84 84l15 -15l-84 -84q26 -29 39.5 -67.5t13.5 -84.5
q0 -48 -15 -88.5t-42 -70.5l88 -87l-14 -15zM485 291q0 43 -14 81t-40.5 66t-64.5 44.5t-85 16.5t-85 -16.5t-64 -44.5t-40 -66t-14 -81q0 -44 14 -82t40 -67t64 -45.5t85 -16.5t85 16.5t64.5 45.5t40.5 67t14 82z" />
    <glyph glyph-name="yen" unicode="&#xa5;" horiz-adv-x="560" 
d="M79 354v19h182l-235 335h26l229 -331l228 331h25l-233 -335h180v-19h-190v-131h190v-19h-190v-204h-22v204h-190v19h190v131h-190z" />
    <glyph glyph-name="brokenbar" unicode="&#xa6;" horiz-adv-x="222" 
d="M103 344v331h17v-331h-17zM103 -175v331h17v-331h-17z" />
    <glyph glyph-name="section" unicode="&#xa7;" horiz-adv-x="560" 
d="M317 147q51 -21 80 -51.5t29 -80.5q0 -36 -14 -64t-37.5 -46.5t-55 -28.5t-67.5 -10q-52 0 -94 18t-72 50l17 17q56 -65 151 -65q30 0 57.5 8t48 24t32.5 39.5t12 55.5q0 27 -11 47.5t-29.5 35.5t-43 27t-51.5 23l-37 15q-33 13 -58.5 26.5t-42 30t-25 38.5t-8.5 53
t12 55t31 41t42.5 27.5t45.5 14.5q-25 11 -44 22.5t-32.5 26.5t-20.5 35.5t-7 49.5q0 35 13.5 62.5t37 46t54.5 28.5t67 10q47 0 85.5 -15t62.5 -48l-17 -15q-19 29 -55 44t-79 15q-27 0 -53.5 -8t-47.5 -24.5t-34 -41t-13 -57.5q0 -30 11 -50.5t29 -34.5t41.5 -24.5
t48.5 -20.5l32 -13q35 -14 62 -28.5t45.5 -32t28 -38.5t9.5 -49q0 -32 -11.5 -56.5t-30.5 -42t-43.5 -27.5t-50.5 -14zM292 159q26 2 51 10.5t44.5 24t31.5 38t12 53.5q0 27 -11 47.5t-29.5 36.5t-43.5 27.5t-52 22.5l-41 16q-23 -3 -47 -12t-43.5 -24.5t-31.5 -38.5
t-12 -54q0 -29 11 -49.5t29 -35.5t41 -25.5t47 -19.5z" />
    <glyph glyph-name="dieresis" unicode="&#xa8;" horiz-adv-x="240" 
d="M43 633q-9 0 -16 7t-7 19q0 11 7 18t16 7t16 -7t7 -18q0 -12 -7.5 -19t-15.5 -7zM197 633q-9 0 -16 7t-7 19q0 11 7 18t16 7t16 -7t7 -18q0 -12 -7.5 -19t-15.5 -7z" />
    <glyph glyph-name="copyright" unicode="&#xa9;" horiz-adv-x="800" 
d="M20 353q0 79 30 147.5t81.5 119.5t121 80.5t148.5 29.5q78 0 147 -29.5t120.5 -80.5t81.5 -119.5t30 -147.5q0 -78 -30 -146.5t-81.5 -119.5t-120.5 -80t-147 -29q-79 0 -148.5 29t-121 80t-81.5 119.5t-30 146.5zM42 353q0 -74 28.5 -138t77 -112t114 -75.5t139.5 -27.5
q73 0 138 27.5t114 75.5t77 112t28 138t-28 138.5t-77 112.5t-114 76t-138 28q-74 0 -139.5 -28t-114 -76t-77 -112.5t-28.5 -138.5zM538 505q-23 25 -55 39t-66 14q-44 0 -80 -16.5t-61.5 -45t-39 -66t-13.5 -79.5t13.5 -79t39 -65t61.5 -44.5t80 -16.5q35 0 68 12.5
t57 35.5l15 -14q-28 -28 -65 -41t-75 -13q-47 0 -86.5 16.5t-68.5 46.5t-45 71.5t-16 90.5t16 90.5t45 71.5t68.5 47t86.5 17q40 0 76 -15.5t62 -41.5z" />
    <glyph glyph-name="ordfeminine" unicode="&#xaa;" horiz-adv-x="350" 
d="M266 615q0 44 -23 65.5t-66 21.5q-30 0 -56 -10.5t-44 -28.5l-11 17q17 17 46 28.5t65 11.5q49 0 79 -25.5t30 -76.5v-124q0 -16 1.5 -33.5t3.5 -29.5h-20q-2 11 -3.5 25t-1.5 39h-1q-18 -37 -51 -54t-67 -17q-16 0 -33.5 4.5t-31.5 14.5t-23.5 26.5t-9.5 39.5
q0 33 18.5 51.5t49 28.5t69.5 12.5t80 2.5v11zM251 586q-37 0 -70 -2.5t-58 -10.5t-39.5 -23.5t-14.5 -40.5q0 -19 7.5 -31.5t19.5 -20t27 -11t30 -3.5q27 0 48 9.5t35.5 25.5t22 37t7.5 44v27h-15z" />
    <glyph glyph-name="guillemotleft" unicode="&#xab;" horiz-adv-x="481" 
d="M371 40l-123 197l122 196l16 -11l-113 -185l114 -185zM205 40l-123 197l122 196l16 -11l-113 -185l114 -185z" />
    <glyph glyph-name="logicalnot" unicode="&#xac;" 
d="M551 134v246h-457v19h479v-265h-22z" />
    <glyph glyph-name="uni00AD" unicode="&#xad;" horiz-adv-x="300" 
d="M60 244v20h180v-20h-180z" />
    <glyph glyph-name="registered" unicode="&#xae;" horiz-adv-x="600" 
d="M374 371l-74 110h-55v-110h-21v251h84q38 0 60 -17.5t22 -52.5q0 -33 -21 -49.5t-46 -18.5l77 -113h-26zM369 553q0 30 -19 40t-42 10h-63v-105h48q35 0 55.5 11.5t20.5 43.5zM72 494q0 47 18 88.5t49 72t73 48t89 17.5t88.5 -17.5t72 -48t48.5 -72t18 -88.5t-18 -88
t-48.5 -71.5t-72 -48t-88.5 -17.5t-89 17.5t-73 48t-49 71.5t-18 88zM93 494q0 -42 16.5 -79.5t45 -65.5t66 -44.5t80.5 -16.5q42 0 79.5 16.5t65.5 44.5t44.5 65.5t16.5 79.5t-16.5 79.5t-44.5 65.5t-65.5 44.5t-79.5 16.5q-43 0 -80.5 -16.5t-66 -44.5t-45 -65.5
t-16.5 -79.5z" />
    <glyph glyph-name="macron" unicode="&#xaf;" horiz-adv-x="240" 
d="M4 621v20h232v-20h-232z" />
    <glyph glyph-name="degree" unicode="&#xb0;" horiz-adv-x="400" 
d="M345 571q0 -30 -11.5 -56.5t-31 -46t-46 -31t-56.5 -11.5t-56.5 11.5t-46 31t-31 46t-11.5 56.5t11.5 56.5t31 46t46 31t56.5 11.5t56.5 -11.5t46 -31t31 -46t11.5 -56.5zM325 571q0 26 -10 48.5t-27 39.5t-39.5 27t-48.5 10t-48.5 -10t-39.5 -27t-27 -39.5t-10 -48.5
t10 -48.5t27 -39.5t39.5 -27t48.5 -10t48.5 10t39.5 27t27 39.5t10 48.5z" />
    <glyph glyph-name="plusminus" unicode="&#xb1;" 
d="M342 342v-192h-22v192h-226v20h225v196h22v-196h232v-20h-231zM98 48v20h471v-20h-471z" />
    <glyph glyph-name="twosuperior" unicode="&#xb2;" horiz-adv-x="350" 
d="M298 306v-18h-249v20l154 169q23 25 37 44.5t22 35t11 28t3 24.5q0 45 -26.5 68.5t-68.5 23.5q-35 0 -61.5 -17.5t-37.5 -57.5l-19 6q12 47 45 67t73 20q58 0 87 -31.5t29 -73.5q0 -20 -3.5 -35.5t-13 -32.5t-26 -37t-42.5 -48l-141 -155h227z" />
    <glyph glyph-name="threesuperior" unicode="&#xb3;" horiz-adv-x="350" 
d="M284 399q0 -60 -36 -90.5t-88 -30.5q-45 0 -75.5 19.5t-45.5 50.5l18 7q16 -32 45.5 -45.5t57.5 -13.5q51 0 78 28t27 76q0 25 -10.5 44t-28 31.5t-39 19t-43.5 6.5h-17v18h16q54 0 80.5 29t26.5 66q0 45 -27 67t-63 22q-27 0 -50 -12t-35 -31l-15 11q17 23 41.5 36
t58.5 13q54 0 81.5 -29t27.5 -77q0 -45 -25 -71.5t-67 -31.5v-2q51 -5 79 -34.5t28 -75.5z" />
    <glyph glyph-name="acute" unicode="&#xb4;" horiz-adv-x="240" 
d="M109 564h-19l103 144h27z" />
    <glyph glyph-name="mu" unicode="&#xb5;" horiz-adv-x="556" 
d="M116 460v-276q0 -29 6 -60.5t22.5 -57.5t44 -43.5t71.5 -17.5q38 0 71.5 15.5t58 44.5t39 70.5t14.5 94.5v230h22v-344q0 -11 0.5 -27t1 -32.5t1 -31.5t0.5 -25h-24v121h-2q-11 -32 -29.5 -57.5t-42.5 -42.5t-52 -26t-58 -9q-57 0 -92 24t-52 62v-300h-22v688h22z" />
    <glyph glyph-name="paragraph" unicode="&#xb6;" horiz-adv-x="600" 
d="M467 -126v817h-155v-817h-22v467q-50 0 -89.5 14t-67 38.5t-42.5 57t-15 68.5q0 94 58 141.5t164 47.5h191v-834h-22z" />
    <glyph glyph-name="periodcentered" unicode="&#xb7;" horiz-adv-x="240" 
d="M120 229q-9 0 -16 7t-7 19q0 11 7 18t16 7t16 -7t7 -18q0 -12 -7.5 -19t-15.5 -7z" />
    <glyph glyph-name="cedilla" unicode="&#xb8;" horiz-adv-x="240" 
d="M219 -146q0 -24 -11.5 -39.5t-28.5 -24.5t-36.5 -12.5t-35.5 -3.5q-19 0 -43.5 5t-46.5 15l5 17q19 -10 43.5 -14t42.5 -4q15 0 30.5 2.5t29 9t22 18.5t8.5 31q0 16 -7 26t-17.5 15.5t-23 7.5t-24.5 2q-14 0 -35.5 -4t-33.5 -11l-10 9l69 101h21l-59 -86q14 5 27 6.5
t27 1.5q15 0 30.5 -3.5t28 -11t20.5 -21t8 -32.5z" />
    <glyph glyph-name="onesuperior" unicode="&#xb9;" horiz-adv-x="350" 
d="M169 288v398l-96 -64l-12 16l109 70h21v-420h-22z" />
    <glyph glyph-name="ordmasculine" unicode="&#xba;" horiz-adv-x="350" 
d="M317 573q0 -33 -10.5 -60t-29 -47t-45 -31t-57.5 -11q-32 0 -58 11t-44.5 31t-29 47t-10.5 60t10.5 60t29 46.5t44.5 30.5t58 11q31 0 57.5 -11t45 -30.5t29 -46.5t10.5 -60zM53 573q0 -27 8.5 -51t24 -42t38 -28.5t51.5 -10.5t51.5 10.5t38.5 28.5t24 42t8 51t-8 50.5
t-24 41.5t-38.5 28t-51.5 10t-51.5 -10t-38 -28t-24 -41.5t-8.5 -50.5z" />
    <glyph glyph-name="guillemotright" unicode="&#xbb;" horiz-adv-x="481" 
d="M277 41l-16 11l113 185l-114 185l16 12l123 -197zM111 41l-16 11l113 185l-114 185l16 12l123 -197z" />
    <glyph glyph-name="onequarter" unicode="&#xbc;" horiz-adv-x="800" 
d="M455 107v22l185 296h31v-300h67v-18h-67v-107h-20v107h-196zM651 125v277h-3l-173 -277h176zM172 -27l-16 11l440 752l16 -11zM169 288v398l-96 -64l-12 16l109 70h21v-420h-22z" />
    <glyph glyph-name="onehalf" unicode="&#xbd;" horiz-adv-x="800" 
d="M172 -27l-16 11l440 752l16 -11zM727 18v-18h-249v20l154 169q23 25 37 44.5t22 35t11 28t3 24.5q0 45 -26.5 68.5t-68.5 23.5q-35 0 -61.5 -17.5t-37.5 -57.5l-19 6q12 47 45 67t73 20q58 0 87 -31.5t29 -73.5q0 -20 -3.5 -35.5t-13 -32.5t-26 -37t-42.5 -48l-141 -155
h227zM169 288v398l-96 -64l-12 16l109 70h21v-420h-22z" />
    <glyph glyph-name="threequarters" unicode="&#xbe;" horiz-adv-x="800" 
d="M455 107v22l185 296h31v-300h67v-18h-67v-107h-20v107h-196zM651 125v277h-3l-173 -277h176zM172 -27l-16 11l440 752l16 -11zM284 399q0 -60 -36 -90.5t-88 -30.5q-45 0 -75.5 19.5t-45.5 50.5l18 7q16 -32 45.5 -45.5t57.5 -13.5q51 0 78 28t27 76q0 25 -10.5 44
t-28 31.5t-39 19t-43.5 6.5h-17v18h16q54 0 80.5 29t26.5 66q0 45 -27 67t-63 22q-27 0 -50 -12t-35 -31l-15 11q17 23 41.5 36t58.5 13q54 0 81.5 -29t27.5 -77q0 -45 -25 -71.5t-67 -31.5v-2q51 -5 79 -34.5t28 -75.5z" />
    <glyph glyph-name="questiondown" unicode="&#xbf;" horiz-adv-x="472" 
d="M230 441q-8 0 -15.5 7t-7.5 19q0 11 7 18t16 7t16 -7t7 -18q0 -12 -7 -19t-16 -7zM221 286h22v-53q0 -33 -13 -68t-56 -69l-34 -30q-15 -14 -27.5 -27.5t-22 -29t-15 -35t-5.5 -44.5q0 -36 12.5 -64t34.5 -47t51.5 -28.5t62.5 -9.5q69 0 112 40.5t54 103.5l21 -4
q-14 -78 -65 -119.5t-124 -41.5q-38 0 -70.5 11t-57.5 32.5t-39 53t-14 72.5q0 31 7.5 55t20 42.5t28.5 34t34 30.5q26 21 42 38.5t25 34t12.5 35.5t3.5 43v44z" />
    <glyph glyph-name="Agrave" unicode="&#xc0;" 
d="M624 0l-84 203h-411l-87 -203h-24l307 708h28l295 -708h-24zM338 694l-201 -472h396zM248 908l103 -144h-19l-111 144h27z" />
    <glyph glyph-name="Aacute" unicode="&#xc1;" 
d="M624 0l-84 203h-411l-87 -203h-24l307 708h28l295 -708h-24zM338 694l-201 -472h396zM344 764h-19l103 144h27z" />
    <glyph glyph-name="Acircumflex" unicode="&#xc2;" 
d="M624 0l-84 203h-411l-87 -203h-24l307 708h28l295 -708h-24zM338 694l-201 -472h396zM352 908l103 -144h-23l-94 132l-94 -132h-23l103 144h28z" />
    <glyph glyph-name="Atilde" unicode="&#xc3;" 
d="M624 0l-84 203h-411l-87 -203h-24l307 708h28l295 -708h-24zM338 694l-201 -472h396zM342 838q13 -8 22 -13t15.5 -7.5t11 -3t10.5 -0.5q33 0 40 48h16q-4 -36 -20 -51.5t-36 -15.5q-16 0 -28.5 5t-35.5 19q-26 16 -37 20t-22 4q-32 0 -40 -51h-16q4 36 20 53t36 17
q16 0 29 -5t35 -19z" />
    <glyph glyph-name="Adieresis" unicode="&#xc4;" 
d="M624 0l-84 203h-411l-87 -203h-24l307 708h28l295 -708h-24zM338 694l-201 -472h396zM261 833q-9 0 -16 7t-7 19q0 11 7 18t16 7t16 -7t7 -18q0 -12 -7.5 -19t-15.5 -7zM415 833q-9 0 -16 7t-7 19q0 11 7 18t16 7t16 -7t7 -18q0 -12 -7.5 -19t-15.5 -7z" />
    <glyph glyph-name="Aring" unicode="&#xc5;" 
d="M624 0l-84 203h-411l-87 -203h-24l307 708h28l295 -708h-24zM338 694l-201 -472h396zM434 850q0 -20 -7.5 -37.5t-21 -30.5t-31 -20t-36.5 -7q-20 0 -37 7t-30.5 20t-21 30.5t-7.5 37.5t7.5 37.5t21 30t30.5 20t37 7.5q19 0 36.5 -7.5t31 -20t21 -30t7.5 -37.5zM415 850
q0 32 -22.5 55t-54.5 23t-54.5 -23t-22.5 -55t22.5 -55t54.5 -23t54.5 23t22.5 55z" />
    <glyph glyph-name="AE" unicode="&#xc6;" horiz-adv-x="968" 
d="M491 0v206h-324l-135 -206h-26l460 708h429v-20h-382v-311h358v-20h-358v-337h399v-20h-421zM491 688h-13l-298 -462h311v462z" />
    <glyph glyph-name="Ccedilla" unicode="&#xc7;" horiz-adv-x="724" 
d="M535 -146q0 -24 -11.5 -39.5t-28.5 -24.5t-36.5 -12.5t-35.5 -3.5q-19 0 -43.5 5t-46.5 15l5 17q19 -10 43.5 -14t42.5 -4q15 0 30.5 2.5t29 9t22 18.5t8.5 31q0 16 -7 26t-17.5 15.5t-23 7.5t-24.5 2q-14 0 -35.5 -4t-33.5 -11l-10 9l55 82q-77 3 -140.5 31.5t-109 78
t-71 116.5t-25.5 147q0 81 26.5 150t74.5 118.5t114.5 77.5t145.5 28q66 0 128.5 -22.5t106.5 -68.5l-14 -16q-21 22 -47.5 38.5t-56 27.5t-59.5 16t-58 5q-76 0 -138.5 -27.5t-107 -75.5t-69 -112.5t-24.5 -138.5t24 -138.5t68.5 -112.5t107 -75.5t139.5 -27.5
q66 0 130.5 25.5t106.5 76.5l16 -15q-22 -27 -50.5 -46.5t-60.5 -33t-67 -20t-69 -7.5l-45 -66q14 5 27 6.5t27 1.5q15 0 30.5 -3.5t28 -11t20.5 -21t8 -32.5z" />
    <glyph glyph-name="Egrave" unicode="&#xc8;" horiz-adv-x="590" 
d="M106 0v708h412v-20h-391v-311h368v-20h-368v-337h407v-20h-428zM233 908l103 -144h-19l-111 144h27z" />
    <glyph glyph-name="Eacute" unicode="&#xc9;" horiz-adv-x="590" 
d="M106 0v708h412v-20h-391v-311h368v-20h-368v-337h407v-20h-428zM306 764h-19l103 144h27z" />
    <glyph glyph-name="Ecircumflex" unicode="&#xca;" horiz-adv-x="590" 
d="M106 0v708h412v-20h-391v-311h368v-20h-368v-337h407v-20h-428zM329 908l103 -144h-23l-94 132l-94 -132h-23l103 144h28z" />
    <glyph glyph-name="Edieresis" unicode="&#xcb;" horiz-adv-x="590" 
d="M106 0v708h412v-20h-391v-311h368v-20h-368v-337h407v-20h-428zM238 833q-9 0 -16 7t-7 19q0 11 7 18t16 7t16 -7t7 -18q0 -12 -7.5 -19t-15.5 -7zM392 833q-9 0 -16 7t-7 19q0 11 7 18t16 7t16 -7t7 -18q0 -12 -7.5 -19t-15.5 -7z" />
    <glyph glyph-name="Igrave" unicode="&#xcc;" horiz-adv-x="234" 
d="M106 0v708h22v-708h-22zM26 908l103 -144h-19l-111 144h27z" />
    <glyph glyph-name="Iacute" unicode="&#xcd;" horiz-adv-x="234" 
d="M106 0v708h22v-708h-22zM123 764h-19l103 144h27z" />
    <glyph glyph-name="Icircumflex" unicode="&#xce;" horiz-adv-x="234" 
d="M106 0v708h22v-708h-22zM130 908l103 -144h-23l-94 132l-94 -132h-23l103 144h28z" />
    <glyph glyph-name="Idieresis" unicode="&#xcf;" horiz-adv-x="234" 
d="M106 0v708h22v-708h-22zM40 833q-9 0 -16 7t-7 19q0 11 7 18t16 7t16 -7t7 -18q0 -12 -7.5 -19t-15.5 -7zM194 833q-9 0 -16 7t-7 19q0 11 7 18t16 7t16 -7t7 -18q0 -12 -7.5 -19t-15.5 -7z" />
    <glyph glyph-name="Eth" unicode="&#xd0;" horiz-adv-x="770" 
d="M26 358v20h80v330h201q82 0 153.5 -20.5t124.5 -64t83 -110.5t30 -159t-30 -158.5t-83 -110t-124.5 -64.5t-153.5 -21h-201v358h-80zM397 378v-20h-268v-338h173q78 0 146.5 19.5t118.5 60t79 103.5t29 151t-29 151.5t-79 104t-118.5 59.5t-146.5 19h-173v-310h268z" />
    <glyph glyph-name="Ntilde" unicode="&#xd1;" horiz-adv-x="777" 
d="M639 0l-508 680h-3v-680h-22v708h31l509 -679h3v679h22v-708h-32zM395 838q13 -8 22 -13t15.5 -7.5t11 -3t10.5 -0.5q33 0 40 48h16q-4 -36 -20 -51.5t-36 -15.5q-16 0 -28.5 5t-35.5 19q-26 16 -37 20t-22 4q-32 0 -40 -51h-16q4 36 20 53t36 17q16 0 29 -5t35 -19z" />
    <glyph glyph-name="Ograve" unicode="&#xd2;" horiz-adv-x="872" 
d="M800 354q0 -82 -27.5 -150.5t-76 -118t-115.5 -77.5t-145 -28t-145 28t-115.5 77.5t-76 118t-27.5 150.5t27.5 150.5t76 118t115 77.5t145.5 28t145.5 -28t115 -77.5t76 -118t27.5 -150.5zM778 354q0 74 -25 138.5t-70.5 112.5t-108.5 75.5t-138 27.5t-138 -27.5
t-108.5 -75.5t-70.5 -112.5t-25 -138.5t24.5 -138.5t69.5 -112.5t108 -75.5t140 -27.5t140 27.5t108 75.5t69.5 112.5t24.5 138.5zM369 908l103 -144h-19l-111 144h27z" />
    <glyph glyph-name="Oacute" unicode="&#xd3;" horiz-adv-x="872" 
d="M800 354q0 -82 -27.5 -150.5t-76 -118t-115.5 -77.5t-145 -28t-145 28t-115.5 77.5t-76 118t-27.5 150.5t27.5 150.5t76 118t115 77.5t145.5 28t145.5 -28t115 -77.5t76 -118t27.5 -150.5zM778 354q0 74 -25 138.5t-70.5 112.5t-108.5 75.5t-138 27.5t-138 -27.5
t-108.5 -75.5t-70.5 -112.5t-25 -138.5t24.5 -138.5t69.5 -112.5t108 -75.5t140 -27.5t140 27.5t108 75.5t69.5 112.5t24.5 138.5zM429 764h-19l103 144h27z" />
    <glyph glyph-name="Ocircumflex" unicode="&#xd4;" horiz-adv-x="872" 
d="M800 354q0 -82 -27.5 -150.5t-76 -118t-115.5 -77.5t-145 -28t-145 28t-115.5 77.5t-76 118t-27.5 150.5t27.5 150.5t76 118t115 77.5t145.5 28t145.5 -28t115 -77.5t76 -118t27.5 -150.5zM778 354q0 74 -25 138.5t-70.5 112.5t-108.5 75.5t-138 27.5t-138 -27.5
t-108.5 -75.5t-70.5 -112.5t-25 -138.5t24.5 -138.5t69.5 -112.5t108 -75.5t140 -27.5t140 27.5t108 75.5t69.5 112.5t24.5 138.5zM452 908l103 -144h-23l-94 132l-94 -132h-23l103 144h28z" />
    <glyph glyph-name="Otilde" unicode="&#xd5;" horiz-adv-x="872" 
d="M800 354q0 -82 -27.5 -150.5t-76 -118t-115.5 -77.5t-145 -28t-145 28t-115.5 77.5t-76 118t-27.5 150.5t27.5 150.5t76 118t115 77.5t145.5 28t145.5 -28t115 -77.5t76 -118t27.5 -150.5zM778 354q0 74 -25 138.5t-70.5 112.5t-108.5 75.5t-138 27.5t-138 -27.5
t-108.5 -75.5t-70.5 -112.5t-25 -138.5t24.5 -138.5t69.5 -112.5t108 -75.5t140 -27.5t140 27.5t108 75.5t69.5 112.5t24.5 138.5zM441 838q13 -8 22 -13t15.5 -7.5t11 -3t10.5 -0.5q33 0 40 48h16q-4 -36 -20 -51.5t-36 -15.5q-16 0 -28.5 5t-35.5 19q-26 16 -37 20t-22 4
q-32 0 -40 -51h-16q4 36 20 53t36 17q16 0 29 -5t35 -19z" />
    <glyph glyph-name="Odieresis" unicode="&#xd6;" horiz-adv-x="872" 
d="M800 354q0 -82 -27.5 -150.5t-76 -118t-115.5 -77.5t-145 -28t-145 28t-115.5 77.5t-76 118t-27.5 150.5t27.5 150.5t76 118t115 77.5t145.5 28t145.5 -28t115 -77.5t76 -118t27.5 -150.5zM778 354q0 74 -25 138.5t-70.5 112.5t-108.5 75.5t-138 27.5t-138 -27.5
t-108.5 -75.5t-70.5 -112.5t-25 -138.5t24.5 -138.5t69.5 -112.5t108 -75.5t140 -27.5t140 27.5t108 75.5t69.5 112.5t24.5 138.5zM361 833q-9 0 -16 7t-7 19q0 11 7 18t16 7t16 -7t7 -18q0 -12 -7.5 -19t-15.5 -7zM515 833q-9 0 -16 7t-7 19q0 11 7 18t16 7t16 -7t7 -18
q0 -12 -7.5 -19t-15.5 -7z" />
    <glyph glyph-name="multiply" unicode="&#xd7;" 
d="M527 128l-14 -13l-179 179l-179 -179l-14 13l180 180l-180 180l13 13l180 -180l180 180l13 -13l-180 -180z" />
    <glyph glyph-name="Oslash" unicode="&#xd8;" horiz-adv-x="872" 
d="M640 632q-42 35 -97 55.5t-120 20.5q-75 0 -138 -27.5t-108.5 -75.5t-70.5 -112.5t-25 -138.5q0 -75 26 -141t74 -115zM670 636q55 -50 86 -121.5t31 -160.5q0 -82 -27.5 -150.5t-76 -118t-115.5 -77.5t-145 -28q-71 0 -132.5 23t-109.5 65l-68 -79l-14 14l68 78
q-51 49 -79.5 118.5t-28.5 154.5q0 82 27.5 150.5t76 118t115 77.5t145.5 28q67 0 125.5 -20.5t106.5 -58.5l67 78l15 -13zM195 84q44 -39 101 -61.5t127 -22.5q77 0 140 27.5t108 75.5t69.5 112.5t24.5 138.5q0 79 -28.5 147t-81.5 118z" />
    <glyph glyph-name="Ugrave" unicode="&#xd9;" horiz-adv-x="732" 
d="M636 268q0 -60 -14 -112.5t-46 -91.5t-83.5 -61.5t-126.5 -22.5t-126.5 22.5t-83.5 61.5t-46 91.5t-14 112.5v440h22v-436q0 -42 8.5 -89.5t35 -88t75 -67.5t129.5 -27q79 0 127.5 26t75.5 66.5t36 88t9 91.5v436h22v-440zM298 908l103 -144h-19l-111 144h27z" />
    <glyph glyph-name="Uacute" unicode="&#xda;" horiz-adv-x="732" 
d="M636 268q0 -60 -14 -112.5t-46 -91.5t-83.5 -61.5t-126.5 -22.5t-126.5 22.5t-83.5 61.5t-46 91.5t-14 112.5v440h22v-436q0 -42 8.5 -89.5t35 -88t75 -67.5t129.5 -27q79 0 127.5 26t75.5 66.5t36 88t9 91.5v436h22v-440zM342 764h-19l103 144h27z" />
    <glyph glyph-name="Ucircumflex" unicode="&#xdb;" horiz-adv-x="732" 
d="M636 268q0 -60 -14 -112.5t-46 -91.5t-83.5 -61.5t-126.5 -22.5t-126.5 22.5t-83.5 61.5t-46 91.5t-14 112.5v440h22v-436q0 -42 8.5 -89.5t35 -88t75 -67.5t129.5 -27q79 0 127.5 26t75.5 66.5t36 88t9 91.5v436h22v-440zM380 908l103 -144h-23l-94 132l-94 -132h-23
l103 144h28z" />
    <glyph glyph-name="Udieresis" unicode="&#xdc;" horiz-adv-x="732" 
d="M636 268q0 -60 -14 -112.5t-46 -91.5t-83.5 -61.5t-126.5 -22.5t-126.5 22.5t-83.5 61.5t-46 91.5t-14 112.5v440h22v-436q0 -42 8.5 -89.5t35 -88t75 -67.5t129.5 -27q79 0 127.5 26t75.5 66.5t36 88t9 91.5v436h22v-440zM289 833q-9 0 -16 7t-7 19q0 11 7 18t16 7
t16 -7t7 -18q0 -12 -7.5 -19t-15.5 -7zM443 833q-9 0 -16 7t-7 19q0 11 7 18t16 7t16 -7t7 -18q0 -12 -7.5 -19t-15.5 -7z" />
    <glyph glyph-name="Yacute" unicode="&#xdd;" horiz-adv-x="538" 
d="M280 310v-310h-22v310l-243 398h26l229 -376l228 376h25zM272 764h-19l103 144h27z" />
    <glyph glyph-name="Thorn" unicode="&#xde;" horiz-adv-x="572" 
d="M517 374q0 -45 -16.5 -79.5t-44.5 -57.5t-65.5 -35t-79.5 -12h-183v-190h-22v708h22v-158h170q38 0 77 -8.5t70.5 -28.5t51.5 -54t20 -85zM495 374q0 45 -17 75t-44 48t-60.5 26t-66.5 8h-179v-322h184q33 0 66 9t59 29t42 51.5t16 75.5z" />
    <glyph glyph-name="germandbls" unicode="&#xdf;" horiz-adv-x="589" 
d="M527 208q0 -49 -15.5 -89t-44.5 -68.5t-70 -44.5t-92 -16q-11 0 -23.5 0.5t-24.5 2.5v21q15 -2 26.5 -3t20.5 -1q46 0 83 14t63.5 40.5t40.5 63t14 81.5q0 54 -16.5 93t-45 64.5t-66.5 37.5t-81 12h-16v21h16q34 0 64.5 10.5t52.5 30.5t35 50t13 68q0 36 -12 64
t-33.5 47.5t-51 30t-63.5 10.5q-50 0 -84 -18t-54.5 -48t-29.5 -68.5t-9 -78.5v-535h-22v538q0 49 12.5 91.5t37.5 73t62 48t86 17.5q40 0 73.5 -12t58 -34.5t38 -54.5t13.5 -72q0 -36 -10.5 -64.5t-29 -49t-43.5 -33.5t-53 -19v-2q36 -5 69 -20t57.5 -41t39 -65t14.5 -93z
" />
    <glyph glyph-name="agrave" unicode="&#xe0;" horiz-adv-x="512" 
d="M418 104q0 -26 2.5 -55.5t5.5 -48.5h-21q-2 10 -3 24.5t-2.5 30t-2 30.5t-0.5 25h-3q-20 -63 -69 -93.5t-105 -30.5q-28 0 -55.5 8t-49.5 24t-35.5 41t-13.5 59q0 49 25.5 79t63.5 46.5t81.5 21.5t79.5 5h80v37q0 77 -41 112.5t-107 35.5q-41 0 -76.5 -15t-63.5 -40
l-12 17q32 28 72.5 42.5t79.5 14.5q79 0 124.5 -40.5t45.5 -127.5v-202zM396 251h-71q-38 0 -80 -4.5t-77 -18.5t-57.5 -40t-22.5 -70q0 -32 12.5 -53.5t32 -34.5t43 -19t44.5 -6q51 0 85 19t54.5 48.5t28.5 65t8 69.5v44zM191 708l103 -144h-19l-111 144h27z" />
    <glyph glyph-name="aacute" unicode="&#xe1;" horiz-adv-x="512" 
d="M418 104q0 -26 2.5 -55.5t5.5 -48.5h-21q-2 10 -3 24.5t-2.5 30t-2 30.5t-0.5 25h-3q-20 -63 -69 -93.5t-105 -30.5q-28 0 -55.5 8t-49.5 24t-35.5 41t-13.5 59q0 49 25.5 79t63.5 46.5t81.5 21.5t79.5 5h80v37q0 77 -41 112.5t-107 35.5q-41 0 -76.5 -15t-63.5 -40
l-12 17q32 28 72.5 42.5t79.5 14.5q79 0 124.5 -40.5t45.5 -127.5v-202zM396 251h-71q-38 0 -80 -4.5t-77 -18.5t-57.5 -40t-22.5 -70q0 -32 12.5 -53.5t32 -34.5t43 -19t44.5 -6q51 0 85 19t54.5 48.5t28.5 65t8 69.5v44zM252 564h-19l103 144h27z" />
    <glyph glyph-name="acircumflex" unicode="&#xe2;" horiz-adv-x="512" 
d="M418 104q0 -26 2.5 -55.5t5.5 -48.5h-21q-2 10 -3 24.5t-2.5 30t-2 30.5t-0.5 25h-3q-20 -63 -69 -93.5t-105 -30.5q-28 0 -55.5 8t-49.5 24t-35.5 41t-13.5 59q0 49 25.5 79t63.5 46.5t81.5 21.5t79.5 5h80v37q0 77 -41 112.5t-107 35.5q-41 0 -76.5 -15t-63.5 -40
l-12 17q32 28 72.5 42.5t79.5 14.5q79 0 124.5 -40.5t45.5 -127.5v-202zM396 251h-71q-38 0 -80 -4.5t-77 -18.5t-57.5 -40t-22.5 -70q0 -32 12.5 -53.5t32 -34.5t43 -19t44.5 -6q51 0 85 19t54.5 48.5t28.5 65t8 69.5v44zM262 708l103 -144h-23l-94 132l-94 -132h-23
l103 144h28z" />
    <glyph glyph-name="atilde" unicode="&#xe3;" horiz-adv-x="512" 
d="M418 104q0 -26 2.5 -55.5t5.5 -48.5h-21q-2 10 -3 24.5t-2.5 30t-2 30.5t-0.5 25h-3q-20 -63 -69 -93.5t-105 -30.5q-28 0 -55.5 8t-49.5 24t-35.5 41t-13.5 59q0 49 25.5 79t63.5 46.5t81.5 21.5t79.5 5h80v37q0 77 -41 112.5t-107 35.5q-41 0 -76.5 -15t-63.5 -40
l-12 17q32 28 72.5 42.5t79.5 14.5q79 0 124.5 -40.5t45.5 -127.5v-202zM396 251h-71q-38 0 -80 -4.5t-77 -18.5t-57.5 -40t-22.5 -70q0 -32 12.5 -53.5t32 -34.5t43 -19t44.5 -6q51 0 85 19t54.5 48.5t28.5 65t8 69.5v44zM253 638q13 -8 22 -13t15.5 -7.5t11 -3t10.5 -0.5
q33 0 40 48h16q-4 -36 -20 -51.5t-36 -15.5q-16 0 -28.5 5t-35.5 19q-26 16 -37 20t-22 4q-32 0 -40 -51h-16q4 36 20 53t36 17q16 0 29 -5t35 -19z" />
    <glyph glyph-name="adieresis" unicode="&#xe4;" horiz-adv-x="512" 
d="M418 104q0 -26 2.5 -55.5t5.5 -48.5h-21q-2 10 -3 24.5t-2.5 30t-2 30.5t-0.5 25h-3q-20 -63 -69 -93.5t-105 -30.5q-28 0 -55.5 8t-49.5 24t-35.5 41t-13.5 59q0 49 25.5 79t63.5 46.5t81.5 21.5t79.5 5h80v37q0 77 -41 112.5t-107 35.5q-41 0 -76.5 -15t-63.5 -40
l-12 17q32 28 72.5 42.5t79.5 14.5q79 0 124.5 -40.5t45.5 -127.5v-202zM396 251h-71q-38 0 -80 -4.5t-77 -18.5t-57.5 -40t-22.5 -70q0 -32 12.5 -53.5t32 -34.5t43 -19t44.5 -6q51 0 85 19t54.5 48.5t28.5 65t8 69.5v44zM174 633q-9 0 -16 7t-7 19q0 11 7 18t16 7t16 -7
t7 -18q0 -12 -7.5 -19t-15.5 -7zM328 633q-9 0 -16 7t-7 19q0 11 7 18t16 7t16 -7t7 -18q0 -12 -7.5 -19t-15.5 -7z" />
    <glyph glyph-name="aring" unicode="&#xe5;" horiz-adv-x="512" 
d="M418 104q0 -26 2.5 -55.5t5.5 -48.5h-21q-2 10 -3 24.5t-2.5 30t-2 30.5t-0.5 25h-3q-20 -63 -69 -93.5t-105 -30.5q-28 0 -55.5 8t-49.5 24t-35.5 41t-13.5 59q0 49 25.5 79t63.5 46.5t81.5 21.5t79.5 5h80v37q0 77 -41 112.5t-107 35.5q-41 0 -76.5 -15t-63.5 -40
l-12 17q32 28 72.5 42.5t79.5 14.5q79 0 124.5 -40.5t45.5 -127.5v-202zM396 251h-71q-38 0 -80 -4.5t-77 -18.5t-57.5 -40t-22.5 -70q0 -32 12.5 -53.5t32 -34.5t43 -19t44.5 -6q51 0 85 19t54.5 48.5t28.5 65t8 69.5v44zM347 650q0 -20 -7.5 -37.5t-21 -30.5t-31 -20
t-36.5 -7q-20 0 -37 7t-30.5 20t-21 30.5t-7.5 37.5t7.5 37.5t21 30t30.5 20t37 7.5q19 0 36.5 -7.5t31 -20t21 -30t7.5 -37.5zM328 650q0 32 -22.5 55t-54.5 23t-54.5 -23t-22.5 -55t22.5 -55t54.5 -23t54.5 23t22.5 55z" />
    <glyph glyph-name="ae" unicode="&#xe6;" horiz-adv-x="879" 
d="M796 255q-2 45 -15.5 81.5t-37 63t-57 41t-73.5 14.5q-50 0 -84.5 -22.5t-57 -54t-32.5 -65.5t-10 -58h367zM426 338q24 61 74 98.5t114 37.5q51 0 89 -19t63.5 -50t38 -70.5t12.5 -80.5v-19h-389q0 -40 11 -80.5t35 -73.5t61 -53.5t89 -20.5q49 0 90.5 21t70.5 62
l15 -13q-32 -44 -76 -67t-101 -23q-73 0 -127 42t-76 114q-4 -31 -17.5 -59.5t-37.5 -50t-59.5 -34.5t-81.5 -13q-29 0 -57 7t-50.5 22t-36.5 39t-14 58q0 46 25 74t63.5 43.5t83.5 20.5t85 5h84v47q0 75 -40 114t-114 39q-42 0 -78.5 -15t-65.5 -40l-12 17q32 28 74 42.5
t82 14.5q42 0 73.5 -10.5t52.5 -29t32.5 -43.5t14.5 -53zM407 235h-75q-43 0 -86.5 -4.5t-78 -17.5t-56.5 -37t-22 -64q0 -32 13 -52.5t33 -32.5t43.5 -17t45.5 -5q53 0 88 16.5t56 43t30 59.5t9 67v44z" />
    <glyph glyph-name="ccedilla" unicode="&#xe7;" horiz-adv-x="480" 
d="M399 -146q0 -24 -11.5 -39.5t-28.5 -24.5t-36.5 -12.5t-35.5 -3.5q-19 0 -43.5 5t-46.5 15l5 17q19 -10 43.5 -14t42.5 -4q15 0 30.5 2.5t29 9t22 18.5t8.5 31q0 16 -7 26t-17.5 15.5t-23 7.5t-24.5 2q-14 0 -35.5 -4t-33.5 -11l-10 9l59 87q-49 2 -90 20.5t-71 50.5
t-46.5 76t-16.5 96q0 53 17.5 98t49 77.5t74 51t93.5 18.5q44 0 83.5 -16t67.5 -45l-17 -15q-26 27 -61 42t-73 15q-49 0 -88 -18.5t-66.5 -49.5t-42.5 -72t-15 -86t15 -86t42.5 -71.5t66.5 -48.5t88 -18q38 0 74.5 13t63.5 39l15 -14q-29 -29 -66.5 -42t-75.5 -15l-49 -72
q14 5 27 6.5t27 1.5q15 0 30.5 -3.5t28 -11t20.5 -21t8 -32.5z" />
    <glyph glyph-name="egrave" unicode="&#xe8;" horiz-adv-x="556" 
d="M84 235q0 -42 12.5 -83t38 -73.5t64.5 -52.5t92 -20q54 0 96 21.5t73 62.5l16 -14q-34 -44 -79.5 -67t-105.5 -23q-51 0 -93 18.5t-72.5 51.5t-47 79t-16.5 100q0 52 17 96t46.5 76t69.5 49.5t86 17.5q54 0 94 -19t66.5 -50t39.5 -70.5t13 -80.5v-19h-410zM473 254
q-1 45 -15.5 82t-39.5 63.5t-60 41t-78 14.5q-52 0 -89 -21.5t-60.5 -53t-34.5 -66t-11 -60.5h388zM212 708l103 -144h-19l-111 144h27z" />
    <glyph glyph-name="eacute" unicode="&#xe9;" horiz-adv-x="556" 
d="M84 235q0 -42 12.5 -83t38 -73.5t64.5 -52.5t92 -20q54 0 96 21.5t73 62.5l16 -14q-34 -44 -79.5 -67t-105.5 -23q-51 0 -93 18.5t-72.5 51.5t-47 79t-16.5 100q0 52 17 96t46.5 76t69.5 49.5t86 17.5q54 0 94 -19t66.5 -50t39.5 -70.5t13 -80.5v-19h-410zM473 254
q-1 45 -15.5 82t-39.5 63.5t-60 41t-78 14.5q-52 0 -89 -21.5t-60.5 -53t-34.5 -66t-11 -60.5h388zM276 564h-19l103 144h27z" />
    <glyph glyph-name="ecircumflex" unicode="&#xea;" horiz-adv-x="556" 
d="M84 235q0 -42 12.5 -83t38 -73.5t64.5 -52.5t92 -20q54 0 96 21.5t73 62.5l16 -14q-34 -44 -79.5 -67t-105.5 -23q-51 0 -93 18.5t-72.5 51.5t-47 79t-16.5 100q0 52 17 96t46.5 76t69.5 49.5t86 17.5q54 0 94 -19t66.5 -50t39.5 -70.5t13 -80.5v-19h-410zM473 254
q-1 45 -15.5 82t-39.5 63.5t-60 41t-78 14.5q-52 0 -89 -21.5t-60.5 -53t-34.5 -66t-11 -60.5h388zM300 708l103 -144h-23l-94 132l-94 -132h-23l103 144h28z" />
    <glyph glyph-name="edieresis" unicode="&#xeb;" horiz-adv-x="556" 
d="M84 235q0 -42 12.5 -83t38 -73.5t64.5 -52.5t92 -20q54 0 96 21.5t73 62.5l16 -14q-34 -44 -79.5 -67t-105.5 -23q-51 0 -93 18.5t-72.5 51.5t-47 79t-16.5 100q0 52 17 96t46.5 76t69.5 49.5t86 17.5q54 0 94 -19t66.5 -50t39.5 -70.5t13 -80.5v-19h-410zM473 254
q-1 45 -15.5 82t-39.5 63.5t-60 41t-78 14.5q-52 0 -89 -21.5t-60.5 -53t-34.5 -66t-11 -60.5h388zM206 633q-9 0 -16 7t-7 19q0 11 7 18t16 7t16 -7t7 -18q0 -12 -7.5 -19t-15.5 -7zM360 633q-9 0 -16 7t-7 19q0 11 7 18t16 7t16 -7t7 -18q0 -12 -7.5 -19t-15.5 -7z" />
    <glyph glyph-name="igrave" unicode="&#xec;" horiz-adv-x="226" 
d="M102 0v460h22v-460h-22zM22 708l103 -144h-19l-111 144h27z" />
    <glyph glyph-name="iacute" unicode="&#xed;" horiz-adv-x="226" 
d="M102 0v460h22v-460h-22zM120 564h-19l103 144h27z" />
    <glyph glyph-name="icircumflex" unicode="&#xee;" horiz-adv-x="226" 
d="M102 0v460h22v-460h-22zM128 708l103 -144h-23l-94 132l-94 -132h-23l103 144h28z" />
    <glyph glyph-name="idieresis" unicode="&#xef;" horiz-adv-x="226" 
d="M102 0v460h22v-460h-22zM37 633q-9 0 -16 7t-7 19q0 11 7 18t16 7t16 -7t7 -18q0 -12 -7.5 -19t-15.5 -7zM191 633q-9 0 -16 7t-7 19q0 11 7 18t16 7t16 -7t7 -18q0 -12 -7.5 -19t-15.5 -7z" />
    <glyph glyph-name="eth" unicode="&#xf0;" horiz-adv-x="605" 
d="M488 399q-15 36 -35.5 73t-44 71.5t-47 63.5t-44.5 49l-112 -61l-12 14l110 62q-29 27 -53 47t-44 33l17 12q25 -16 49.5 -37t48.5 -45l105 59l16 -13l-105 -59q15 -15 36 -40t44 -57.5t45.5 -71t40.5 -81.5t29 -89t11 -93q0 -55 -17.5 -101t-49.5 -79t-76.5 -51.5
t-97.5 -18.5t-97 18t-76 50.5t-49.5 77.5t-17.5 99t17.5 98.5t49.5 76.5t76 50t97 18q52 0 98 -18.5t82 -58.5zM521 231q0 46 -15 87t-43.5 71.5t-69 48t-91.5 17.5t-91 -17.5t-68.5 -48t-43.5 -71.5t-15 -87q0 -47 15 -88t43.5 -71.5t68.5 -48.5t91 -18t91.5 18t69 48.5
t43.5 71.5t15 88z" />
    <glyph glyph-name="ntilde" unicode="&#xf1;" horiz-adv-x="572" 
d="M128 339q10 32 29 57t43 42.5t52 26.5t58 9q48 0 80 -17t51 -45t27 -63t8 -71v-278h-22v276q0 28 -6 60t-22.5 58t-44.5 43.5t-71 17.5q-38 0 -71.5 -15.5t-58 -44.5t-39 -70.5t-14.5 -94.5v-230h-22v344q0 11 -0.5 27t-1 32.5t-1.5 31.5t-2 25h22q1 -10 1.5 -25t1 -32.5
t1 -34t0.5 -29.5h2zM293 638q13 -8 22 -13t15.5 -7.5t11 -3t10.5 -0.5q33 0 40 48h16q-4 -36 -20 -51.5t-36 -15.5q-16 0 -28.5 5t-35.5 19q-26 16 -37 20t-22 4q-32 0 -40 -51h-16q4 36 20 53t36 17q16 0 29 -5t35 -19z" />
    <glyph glyph-name="ograve" unicode="&#xf2;" horiz-adv-x="605" 
d="M543 231q0 -54 -17.5 -99t-49.5 -77.5t-76.5 -50.5t-97.5 -18t-97 18t-76 50.5t-49.5 77.5t-17.5 99t17.5 98.5t49.5 76.5t76 50t97 18t97.5 -18t76.5 -50t49.5 -76.5t17.5 -98.5zM521 231q0 46 -15 87t-43.5 71.5t-69 48t-91.5 17.5t-91 -17.5t-68.5 -48t-43.5 -71.5
t-15 -87q0 -47 15 -88t43.5 -71.5t68.5 -48.5t91 -18t91.5 18t69 48.5t43.5 71.5t15 88zM239 708l103 -144h-19l-111 144h27z" />
    <glyph glyph-name="oacute" unicode="&#xf3;" horiz-adv-x="605" 
d="M543 231q0 -54 -17.5 -99t-49.5 -77.5t-76.5 -50.5t-97.5 -18t-97 18t-76 50.5t-49.5 77.5t-17.5 99t17.5 98.5t49.5 76.5t76 50t97 18t97.5 -18t76.5 -50t49.5 -76.5t17.5 -98.5zM521 231q0 46 -15 87t-43.5 71.5t-69 48t-91.5 17.5t-91 -17.5t-68.5 -48t-43.5 -71.5
t-15 -87q0 -47 15 -88t43.5 -71.5t68.5 -48.5t91 -18t91.5 18t69 48.5t43.5 71.5t15 88zM286 564h-19l103 144h27z" />
    <glyph glyph-name="ocircumflex" unicode="&#xf4;" horiz-adv-x="605" 
d="M543 231q0 -54 -17.5 -99t-49.5 -77.5t-76.5 -50.5t-97.5 -18t-97 18t-76 50.5t-49.5 77.5t-17.5 99t17.5 98.5t49.5 76.5t76 50t97 18t97.5 -18t76.5 -50t49.5 -76.5t17.5 -98.5zM521 231q0 46 -15 87t-43.5 71.5t-69 48t-91.5 17.5t-91 -17.5t-68.5 -48t-43.5 -71.5
t-15 -87q0 -47 15 -88t43.5 -71.5t68.5 -48.5t91 -18t91.5 18t69 48.5t43.5 71.5t15 88zM318 708l103 -144h-23l-94 132l-94 -132h-23l103 144h28z" />
    <glyph glyph-name="otilde" unicode="&#xf5;" horiz-adv-x="605" 
d="M543 231q0 -54 -17.5 -99t-49.5 -77.5t-76.5 -50.5t-97.5 -18t-97 18t-76 50.5t-49.5 77.5t-17.5 99t17.5 98.5t49.5 76.5t76 50t97 18t97.5 -18t76.5 -50t49.5 -76.5t17.5 -98.5zM521 231q0 46 -15 87t-43.5 71.5t-69 48t-91.5 17.5t-91 -17.5t-68.5 -48t-43.5 -71.5
t-15 -87q0 -47 15 -88t43.5 -71.5t68.5 -48.5t91 -18t91.5 18t69 48.5t43.5 71.5t15 88zM307 638q13 -8 22 -13t15.5 -7.5t11 -3t10.5 -0.5q33 0 40 48h16q-4 -36 -20 -51.5t-36 -15.5q-16 0 -28.5 5t-35.5 19q-26 16 -37 20t-22 4q-32 0 -40 -51h-16q4 36 20 53t36 17
q16 0 29 -5t35 -19z" />
    <glyph glyph-name="odieresis" unicode="&#xf6;" horiz-adv-x="605" 
d="M543 231q0 -54 -17.5 -99t-49.5 -77.5t-76.5 -50.5t-97.5 -18t-97 18t-76 50.5t-49.5 77.5t-17.5 99t17.5 98.5t49.5 76.5t76 50t97 18t97.5 -18t76.5 -50t49.5 -76.5t17.5 -98.5zM521 231q0 46 -15 87t-43.5 71.5t-69 48t-91.5 17.5t-91 -17.5t-68.5 -48t-43.5 -71.5
t-15 -87q0 -47 15 -88t43.5 -71.5t68.5 -48.5t91 -18t91.5 18t69 48.5t43.5 71.5t15 88zM227 633q-9 0 -16 7t-7 19q0 11 7 18t16 7t16 -7t7 -18q0 -12 -7.5 -19t-15.5 -7zM381 633q-9 0 -16 7t-7 19q0 11 7 18t16 7t16 -7t7 -18q0 -12 -7.5 -19t-15.5 -7z" />
    <glyph glyph-name="divide" unicode="&#xf7;" 
d="M369 470q0 -16 -11 -27t-25 -11t-24.5 11t-10.5 27t10.5 27t24.5 11t25 -11t11 -27zM94 293v20h479v-20h-479zM369 136q0 -16 -11 -27t-25 -11t-24.5 11t-10.5 27q0 17 10 27.5t25 10.5q14 0 25 -11t11 -27z" />
    <glyph glyph-name="oslash" unicode="&#xf8;" horiz-adv-x="605" 
d="M479 402q30 -31 47 -74t17 -97t-17.5 -99t-49.5 -77.5t-76.5 -50.5t-97.5 -18q-52 0 -95.5 18t-75.5 50l-66 -66l-14 13l67 67q-26 31 -41 72.5t-15 90.5q0 54 17.5 98.5t49.5 76.5t76 50t97 18q49 0 90.5 -15t73.5 -43l59 59l14 -14zM146 69q27 -30 66.5 -47t89.5 -17
q51 0 91.5 18t69 48.5t43.5 71.5t15 88q0 45 -14.5 85t-42.5 71zM451 401q-28 25 -65 39.5t-84 14.5q-51 0 -91 -17.5t-68.5 -48t-43.5 -71.5t-15 -87q0 -42 12.5 -80t36.5 -68z" />
    <glyph glyph-name="ugrave" unicode="&#xf9;" horiz-adv-x="572" 
d="M442 121q-11 -32 -29.5 -57.5t-42.5 -42.5t-52 -26t-58 -9q-48 0 -80 17t-51 45t-27 63t-8 71v278h22v-276q0 -29 6 -60.5t22.5 -57.5t44 -43.5t71.5 -17.5q38 0 71.5 15.5t58 44.5t39 70.5t14.5 94.5v230h22v-344q0 -11 0.5 -27t1 -32.5t1.5 -31.5t2 -25h-22
q-1 10 -1.5 25t-1 32.5t-1 34t-0.5 29.5h-2zM202 708l103 -144h-19l-111 144h27z" />
    <glyph glyph-name="uacute" unicode="&#xfa;" horiz-adv-x="572" 
d="M442 121q-11 -32 -29.5 -57.5t-42.5 -42.5t-52 -26t-58 -9q-48 0 -80 17t-51 45t-27 63t-8 71v278h22v-276q0 -29 6 -60.5t22.5 -57.5t44 -43.5t71.5 -17.5q38 0 71.5 15.5t58 44.5t39 70.5t14.5 94.5v230h22v-344q0 -11 0.5 -27t1 -32.5t1.5 -31.5t2 -25h-22
q-1 10 -1.5 25t-1 32.5t-1 34t-0.5 29.5h-2zM262 564h-19l103 144h27z" />
    <glyph glyph-name="ucircumflex" unicode="&#xfb;" horiz-adv-x="572" 
d="M442 121q-11 -32 -29.5 -57.5t-42.5 -42.5t-52 -26t-58 -9q-48 0 -80 17t-51 45t-27 63t-8 71v278h22v-276q0 -29 6 -60.5t22.5 -57.5t44 -43.5t71.5 -17.5q38 0 71.5 15.5t58 44.5t39 70.5t14.5 94.5v230h22v-344q0 -11 0.5 -27t1 -32.5t1.5 -31.5t2 -25h-22
q-1 10 -1.5 25t-1 32.5t-1 34t-0.5 29.5h-2zM292 708l103 -144h-23l-94 132l-94 -132h-23l103 144h28z" />
    <glyph glyph-name="udieresis" unicode="&#xfc;" horiz-adv-x="572" 
d="M442 121q-11 -32 -29.5 -57.5t-42.5 -42.5t-52 -26t-58 -9q-48 0 -80 17t-51 45t-27 63t-8 71v278h22v-276q0 -29 6 -60.5t22.5 -57.5t44 -43.5t71.5 -17.5q38 0 71.5 15.5t58 44.5t39 70.5t14.5 94.5v230h22v-344q0 -11 0.5 -27t1 -32.5t1.5 -31.5t2 -25h-22
q-1 10 -1.5 25t-1 32.5t-1 34t-0.5 29.5h-2zM201 633q-9 0 -16 7t-7 19q0 11 7 18t16 7t16 -7t7 -18q0 -12 -7.5 -19t-15.5 -7zM355 633q-9 0 -16 7t-7 19q0 11 7 18t16 7t16 -7t7 -18q0 -12 -7.5 -19t-15.5 -7z" />
    <glyph glyph-name="yacute" unicode="&#xfd;" horiz-adv-x="428" 
d="M176 -152q-16 -43 -42.5 -66.5t-68.5 -23.5q-9 0 -21 2t-20 5l6 19q6 -2 16.5 -4t20.5 -2q21 0 36.5 8t26.5 20.5t18.5 28.5t13.5 32l44 120l-182 473h24l169 -448l163 448h24zM213 564h-19l103 144h27z" />
    <glyph glyph-name="thorn" unicode="&#xfe;" horiz-adv-x="626" 
d="M127 335q30 69 85.5 104t121.5 35q51 0 93.5 -18.5t73 -51t47 -77.5t16.5 -98q0 -52 -17 -96.5t-47.5 -77t-73 -51t-92.5 -18.5q-33 0 -64.5 9t-58.5 26.5t-49 43t-35 59.5h-3v-364h-22v996h22v-421h3zM542 229q0 45 -14.5 86t-41.5 72t-65.5 49.5t-86.5 18.5
q-46 0 -84.5 -18t-66.5 -48.5t-44 -71.5t-16 -87t16 -87t44 -71.5t66.5 -48.5t84.5 -18q48 0 86.5 18t65.5 48.5t41.5 71.5t14.5 86z" />
    <glyph glyph-name="ydieresis" unicode="&#xff;" horiz-adv-x="428" 
d="M176 -152q-16 -43 -42.5 -66.5t-68.5 -23.5q-9 0 -21 2t-20 5l6 19q6 -2 16.5 -4t20.5 -2q21 0 36.5 8t26.5 20.5t18.5 28.5t13.5 32l44 120l-182 473h24l169 -448l163 448h24zM140 633q-9 0 -16 7t-7 19q0 11 7 18t16 7t16 -7t7 -18q0 -12 -7.5 -19t-15.5 -7zM294 633
q-9 0 -16 7t-7 19q0 11 7 18t16 7t16 -7t7 -18q0 -12 -7.5 -19t-15.5 -7z" />
    <glyph glyph-name="Amacron" unicode="&#x100;" 
d="M624 0l-84 203h-411l-87 -203h-24l307 708h28l295 -708h-24zM338 694l-201 -472h396zM222 821v20h232v-20h-232z" />
    <glyph glyph-name="amacron" unicode="&#x101;" horiz-adv-x="512" 
d="M418 104q0 -26 2.5 -55.5t5.5 -48.5h-21q-2 10 -3 24.5t-2.5 30t-2 30.5t-0.5 25h-3q-20 -63 -69 -93.5t-105 -30.5q-28 0 -55.5 8t-49.5 24t-35.5 41t-13.5 59q0 49 25.5 79t63.5 46.5t81.5 21.5t79.5 5h80v37q0 77 -41 112.5t-107 35.5q-41 0 -76.5 -15t-63.5 -40
l-12 17q32 28 72.5 42.5t79.5 14.5q79 0 124.5 -40.5t45.5 -127.5v-202zM396 251h-71q-38 0 -80 -4.5t-77 -18.5t-57.5 -40t-22.5 -70q0 -32 12.5 -53.5t32 -34.5t43 -19t44.5 -6q51 0 85 19t54.5 48.5t28.5 65t8 69.5v44zM146 621v20h232v-20h-232z" />
    <glyph glyph-name="Abreve" unicode="&#x102;" 
d="M624 0l-84 203h-411l-87 -203h-24l307 708h28l295 -708h-24zM338 694l-201 -472h396zM464 898q-10 -61 -43.5 -93.5t-83.5 -32.5q-49 0 -82.5 32.5t-41.5 93.5h19q10 -52 38 -79t67 -27q45 0 71 25t38 81h18z" />
    <glyph glyph-name="abreve" unicode="&#x103;" horiz-adv-x="512" 
d="M418 104q0 -26 2.5 -55.5t5.5 -48.5h-21q-2 10 -3 24.5t-2.5 30t-2 30.5t-0.5 25h-3q-20 -63 -69 -93.5t-105 -30.5q-28 0 -55.5 8t-49.5 24t-35.5 41t-13.5 59q0 49 25.5 79t63.5 46.5t81.5 21.5t79.5 5h80v37q0 77 -41 112.5t-107 35.5q-41 0 -76.5 -15t-63.5 -40
l-12 17q32 28 72.5 42.5t79.5 14.5q79 0 124.5 -40.5t45.5 -127.5v-202zM396 251h-71q-38 0 -80 -4.5t-77 -18.5t-57.5 -40t-22.5 -70q0 -32 12.5 -53.5t32 -34.5t43 -19t44.5 -6q51 0 85 19t54.5 48.5t28.5 65t8 69.5v44zM388 698q-10 -61 -43.5 -93.5t-83.5 -32.5
q-49 0 -82.5 32.5t-41.5 93.5h19q10 -52 38 -79t67 -27q45 0 71 25t38 81h18z" />
    <glyph glyph-name="Aogonek" unicode="&#x104;" 
d="M699 -192q-16 -14 -37.5 -22.5t-44.5 -8.5q-35 0 -59.5 21t-24.5 59q0 39 28 73.5t64 69.5h-1l-84 203h-411l-87 -203h-24l307 708h28l295 -708q-46 -46 -69.5 -76.5t-23.5 -64.5q0 -30 18 -47t47 -17q20 0 38.5 8t30.5 21zM338 694l-201 -472h396z" />
    <glyph glyph-name="aogonek" unicode="&#x105;" horiz-adv-x="512" 
d="M478 -192q-16 -14 -37.5 -22.5t-44.5 -8.5q-35 0 -59.5 21t-24.5 59q0 39 28 73.5t64 69.5h1q-2 10 -3 24.5t-2.5 30t-2 30.5t-0.5 25h-3q-20 -63 -69 -93.5t-105 -30.5q-28 0 -55.5 8t-49.5 24t-35.5 41t-13.5 59q0 49 25.5 79t63.5 46.5t81.5 21.5t79.5 5h80v37
q0 77 -41 112.5t-107 35.5q-41 0 -76.5 -15t-63.5 -40l-12 17q32 28 72.5 42.5t79.5 14.5q79 0 124.5 -40.5t45.5 -127.5v-202q0 -26 2.5 -55.5t5.5 -48.5h1q-46 -46 -69.5 -76.5t-23.5 -64.5q0 -30 18 -47t47 -17q20 0 38.5 8t30.5 21zM396 251h-71q-38 0 -80 -4.5
t-77 -18.5t-57.5 -40t-22.5 -70q0 -32 12.5 -53.5t32 -34.5t43 -19t44.5 -6q51 0 85 19t54.5 48.5t28.5 65t8 69.5v44z" />
    <glyph glyph-name="Cacute" unicode="&#x106;" horiz-adv-x="724" 
d="M686 87q-45 -54 -113.5 -80.5t-139.5 -26.5q-80 0 -146 28t-114 77.5t-74.5 118.5t-26.5 150t26.5 150t74.5 118.5t114.5 77.5t145.5 28q66 0 128.5 -22.5t106.5 -68.5l-14 -16q-21 22 -47.5 38.5t-56 27.5t-59.5 16t-58 5q-76 0 -138.5 -27.5t-107 -75.5t-69 -112.5
t-24.5 -138.5t24 -138.5t68.5 -112.5t107 -75.5t139.5 -27.5q66 0 130.5 25.5t106.5 76.5zM411 764h-19l103 144h27z" />
    <glyph glyph-name="cacute" unicode="&#x107;" horiz-adv-x="480" 
d="M430 398q-26 27 -61 42t-73 15q-49 0 -88 -18.5t-66.5 -49.5t-42.5 -72t-15 -86t15 -86t42.5 -71.5t66.5 -48.5t88 -18q38 0 74.5 13t63.5 39l15 -14q-30 -30 -70.5 -43.5t-82.5 -13.5q-51 0 -93.5 18t-74 50t-49 77t-17.5 98t17.5 98t49 77.5t74 51t93.5 18.5
q44 0 83.5 -16t67.5 -45zM285 564h-19l103 144h27z" />
    <glyph glyph-name="Ccircumflex" unicode="&#x108;" horiz-adv-x="724" 
d="M686 87q-45 -54 -113.5 -80.5t-139.5 -26.5q-80 0 -146 28t-114 77.5t-74.5 118.5t-26.5 150t26.5 150t74.5 118.5t114.5 77.5t145.5 28q66 0 128.5 -22.5t106.5 -68.5l-14 -16q-21 22 -47.5 38.5t-56 27.5t-59.5 16t-58 5q-76 0 -138.5 -27.5t-107 -75.5t-69 -112.5
t-24.5 -138.5t24 -138.5t68.5 -112.5t107 -75.5t139.5 -27.5q66 0 130.5 25.5t106.5 76.5zM447 908l103 -144h-23l-94 132l-94 -132h-23l103 144h28z" />
    <glyph glyph-name="ccircumflex" unicode="&#x109;" horiz-adv-x="480" 
d="M430 398q-26 27 -61 42t-73 15q-49 0 -88 -18.5t-66.5 -49.5t-42.5 -72t-15 -86t15 -86t42.5 -71.5t66.5 -48.5t88 -18q38 0 74.5 13t63.5 39l15 -14q-30 -30 -70.5 -43.5t-82.5 -13.5q-51 0 -93.5 18t-74 50t-49 77t-17.5 98t17.5 98t49 77.5t74 51t93.5 18.5
q44 0 83.5 -16t67.5 -45zM310 708l103 -144h-23l-94 132l-94 -132h-23l103 144h28z" />
    <glyph glyph-name="Cdotaccent" unicode="&#x10a;" horiz-adv-x="724" 
d="M686 87q-45 -54 -113.5 -80.5t-139.5 -26.5q-80 0 -146 28t-114 77.5t-74.5 118.5t-26.5 150t26.5 150t74.5 118.5t114.5 77.5t145.5 28q66 0 128.5 -22.5t106.5 -68.5l-14 -16q-21 22 -47.5 38.5t-56 27.5t-59.5 16t-58 5q-76 0 -138.5 -27.5t-107 -75.5t-69 -112.5
t-24.5 -138.5t24 -138.5t68.5 -112.5t107 -75.5t139.5 -27.5q66 0 130.5 25.5t106.5 76.5zM432 833q-9 0 -16 7t-7 19q0 11 7 18t16 7t16 -7t7 -18q0 -12 -7.5 -19t-15.5 -7z" />
    <glyph glyph-name="cdotaccent" unicode="&#x10b;" horiz-adv-x="480" 
d="M430 398q-26 27 -61 42t-73 15q-49 0 -88 -18.5t-66.5 -49.5t-42.5 -72t-15 -86t15 -86t42.5 -71.5t66.5 -48.5t88 -18q38 0 74.5 13t63.5 39l15 -14q-30 -30 -70.5 -43.5t-82.5 -13.5q-51 0 -93.5 18t-74 50t-49 77t-17.5 98t17.5 98t49 77.5t74 51t93.5 18.5
q44 0 83.5 -16t67.5 -45zM293 633q-9 0 -16 7t-7 19q0 11 7 18t16 7t16 -7t7 -18q0 -12 -7.5 -19t-15.5 -7z" />
    <glyph glyph-name="Ccaron" unicode="&#x10c;" horiz-adv-x="724" 
d="M686 87q-45 -54 -113.5 -80.5t-139.5 -26.5q-80 0 -146 28t-114 77.5t-74.5 118.5t-26.5 150t26.5 150t74.5 118.5t114.5 77.5t145.5 28q66 0 128.5 -22.5t106.5 -68.5l-14 -16q-21 22 -47.5 38.5t-56 27.5t-59.5 16t-58 5q-76 0 -138.5 -27.5t-107 -75.5t-69 -112.5
t-24.5 -138.5t24 -138.5t68.5 -112.5t107 -75.5t139.5 -27.5q66 0 130.5 25.5t106.5 76.5zM419 764l-103 144h23l94 -132l94 132h23l-103 -144h-28z" />
    <glyph glyph-name="ccaron" unicode="&#x10d;" horiz-adv-x="480" 
d="M430 398q-26 27 -61 42t-73 15q-49 0 -88 -18.5t-66.5 -49.5t-42.5 -72t-15 -86t15 -86t42.5 -71.5t66.5 -48.5t88 -18q38 0 74.5 13t63.5 39l15 -14q-30 -30 -70.5 -43.5t-82.5 -13.5q-51 0 -93.5 18t-74 50t-49 77t-17.5 98t17.5 98t49 77.5t74 51t93.5 18.5
q44 0 83.5 -16t67.5 -45zM278 564l-103 144h23l94 -132l94 132h23l-103 -144h-28z" />
    <glyph glyph-name="Dcaron" unicode="&#x10e;" horiz-adv-x="770" 
d="M698 354q0 -92 -30 -158.5t-83 -110t-124.5 -64.5t-153.5 -21h-201v708h201q82 0 153.5 -20.5t124.5 -64t83 -110.5t30 -159zM129 688v-668h173q78 0 146.5 19.5t118.5 60t79 103.5t29 151t-29 151.5t-79 104t-118.5 59.5t-146.5 19h-173zM341 764l-103 144h23l94 -132
l94 132h23l-103 -144h-28z" />
    <glyph glyph-name="dcaron" unicode="&#x10f;" horiz-adv-x="626" 
d="M502 756h22v-756h-22v124h-3q-30 -68 -85.5 -103t-121.5 -35q-50 0 -92.5 18.5t-73 51t-47.5 77t-17 96.5t17 97t47.5 78t73 51.5t92.5 18.5q66 0 121.5 -35t85.5 -104h3v421zM84 229q0 -45 14.5 -86t41.5 -71.5t65.5 -48.5t86.5 -18q46 0 84.5 18t66.5 48.5t44 71.5
t16 87t-16 87t-44 71.5t-66.5 48.5t-84.5 18q-48 0 -86.5 -18.5t-65.5 -49.5t-41.5 -72t-14.5 -86zM603 523h-17l51 185h24z" />
    <glyph glyph-name="Dcroat" unicode="&#x110;" horiz-adv-x="770" 
d="M26 358v20h80v330h201q82 0 153.5 -20.5t124.5 -64t83 -110.5t30 -159t-30 -158.5t-83 -110t-124.5 -64.5t-153.5 -21h-201v358h-80zM397 378v-20h-268v-338h173q78 0 146.5 19.5t118.5 60t79 103.5t29 151t-29 151.5t-79 104t-118.5 59.5t-146.5 19h-173v-310h268z" />
    <glyph glyph-name="dcroat" unicode="&#x111;" horiz-adv-x="626" 
d="M524 570v-570h-22v124h-3q-30 -68 -85.5 -103t-121.5 -35q-50 0 -92.5 18.5t-73 51t-47.5 77t-17 96.5t17 97t47.5 78t73 51.5t92.5 18.5q66 0 121.5 -35t85.5 -104h3v235h-213v18h213v168h22v-168h70v-18h-70zM84 229q0 -45 14.5 -86t41.5 -71.5t65.5 -48.5t86.5 -18
q46 0 84.5 18t66.5 48.5t44 71.5t16 87t-16 87t-44 71.5t-66.5 48.5t-84.5 18q-48 0 -86.5 -18.5t-65.5 -49.5t-41.5 -72t-14.5 -86z" />
    <glyph glyph-name="Emacron" unicode="&#x112;" horiz-adv-x="590" 
d="M106 0v708h412v-20h-391v-311h368v-20h-368v-337h407v-20h-428zM199 821v20h232v-20h-232z" />
    <glyph glyph-name="emacron" unicode="&#x113;" horiz-adv-x="556" 
d="M84 235q0 -42 12.5 -83t38 -73.5t64.5 -52.5t92 -20q54 0 96 21.5t73 62.5l16 -14q-34 -44 -79.5 -67t-105.5 -23q-51 0 -93 18.5t-72.5 51.5t-47 79t-16.5 100q0 52 17 96t46.5 76t69.5 49.5t86 17.5q54 0 94 -19t66.5 -50t39.5 -70.5t13 -80.5v-19h-410zM473 254
q-1 45 -15.5 82t-39.5 63.5t-60 41t-78 14.5q-52 0 -89 -21.5t-60.5 -53t-34.5 -66t-11 -60.5h388zM170 621v20h232v-20h-232z" />
    <glyph glyph-name="Ebreve" unicode="&#x114;" horiz-adv-x="590" 
d="M106 0v708h412v-20h-391v-311h368v-20h-368v-337h407v-20h-428zM441 898q-10 -61 -43.5 -93.5t-83.5 -32.5q-49 0 -82.5 32.5t-41.5 93.5h19q10 -52 38 -79t67 -27q45 0 71 25t38 81h18z" />
    <glyph glyph-name="ebreve" unicode="&#x115;" horiz-adv-x="556" 
d="M84 235q0 -42 12.5 -83t38 -73.5t64.5 -52.5t92 -20q54 0 96 21.5t73 62.5l16 -14q-34 -44 -79.5 -67t-105.5 -23q-51 0 -93 18.5t-72.5 51.5t-47 79t-16.5 100q0 52 17 96t46.5 76t69.5 49.5t86 17.5q54 0 94 -19t66.5 -50t39.5 -70.5t13 -80.5v-19h-410zM473 254
q-1 45 -15.5 82t-39.5 63.5t-60 41t-78 14.5q-52 0 -89 -21.5t-60.5 -53t-34.5 -66t-11 -60.5h388zM414 698q-10 -61 -43.5 -93.5t-83.5 -32.5q-49 0 -82.5 32.5t-41.5 93.5h19q10 -52 38 -79t67 -27q45 0 71 25t38 81h18z" />
    <glyph glyph-name="Edotaccent" unicode="&#x116;" horiz-adv-x="590" 
d="M106 0v708h412v-20h-391v-311h368v-20h-368v-337h407v-20h-428zM315 833q-9 0 -16 7t-7 19q0 11 7 18t16 7t16 -7t7 -18q0 -12 -7.5 -19t-15.5 -7z" />
    <glyph glyph-name="edotaccent" unicode="&#x117;" horiz-adv-x="556" 
d="M84 235q0 -42 12.5 -83t38 -73.5t64.5 -52.5t92 -20q54 0 96 21.5t73 62.5l16 -14q-34 -44 -79.5 -67t-105.5 -23q-51 0 -93 18.5t-72.5 51.5t-47 79t-16.5 100q0 52 17 96t46.5 76t69.5 49.5t86 17.5q54 0 94 -19t66.5 -50t39.5 -70.5t13 -80.5v-19h-410zM473 254
q-1 45 -15.5 82t-39.5 63.5t-60 41t-78 14.5q-52 0 -89 -21.5t-60.5 -53t-34.5 -66t-11 -60.5h388zM286 633q-9 0 -16 7t-7 19q0 11 7 18t16 7t16 -7t7 -18q0 -12 -7.5 -19t-15.5 -7z" />
    <glyph glyph-name="Eogonek" unicode="&#x118;" horiz-adv-x="590" 
d="M571 -192q-16 -14 -37.5 -22.5t-44.5 -8.5q-35 0 -59.5 21t-24.5 59q0 39 28 73.5t64 69.5h-391v708h412v-20h-391v-311h368v-20h-368v-337h407v-20h-14q-46 -46 -69.5 -76.5t-23.5 -64.5q0 -30 18 -47t47 -17q20 0 38.5 8t30.5 21z" />
    <glyph glyph-name="eogonek" unicode="&#x119;" horiz-adv-x="556" 
d="M402 -192q-16 -14 -37.5 -22.5t-44.5 -8.5q-35 0 -59.5 21t-24.5 59q0 35 23 67t55 63q-5 0 -11 -0.5t-12 -0.5q-51 0 -93 18.5t-72.5 51.5t-47 79t-16.5 100q0 52 17 96t46.5 76t69.5 49.5t86 17.5q54 0 94 -19t66.5 -50t39.5 -70.5t13 -80.5v-19h-410q0 -42 12.5 -83
t38 -73.5t64.5 -52.5t92 -20q54 0 96 21.5t73 62.5l16 -14q-54 -69 -134 -85q-41 -41 -62.5 -70.5t-21.5 -61.5q0 -30 18 -47t47 -17q20 0 38.5 8t30.5 21zM473 254q-1 45 -15.5 82t-39.5 63.5t-60 41t-78 14.5q-52 0 -89 -21.5t-60.5 -53t-34.5 -66t-11 -60.5h388z" />
    <glyph glyph-name="Ecaron" unicode="&#x11a;" horiz-adv-x="590" 
d="M106 0v708h412v-20h-391v-311h368v-20h-368v-337h407v-20h-428zM301 764l-103 144h23l94 -132l94 132h23l-103 -144h-28z" />
    <glyph glyph-name="ecaron" unicode="&#x11b;" horiz-adv-x="556" 
d="M84 235q0 -42 12.5 -83t38 -73.5t64.5 -52.5t92 -20q54 0 96 21.5t73 62.5l16 -14q-34 -44 -79.5 -67t-105.5 -23q-51 0 -93 18.5t-72.5 51.5t-47 79t-16.5 100q0 52 17 96t46.5 76t69.5 49.5t86 17.5q54 0 94 -19t66.5 -50t39.5 -70.5t13 -80.5v-19h-410zM473 254
q-1 45 -15.5 82t-39.5 63.5t-60 41t-78 14.5q-52 0 -89 -21.5t-60.5 -53t-34.5 -66t-11 -60.5h388zM271 564l-103 144h23l94 -132l94 132h23l-103 -144h-28z" />
    <glyph glyph-name="Gcircumflex" unicode="&#x11c;" horiz-adv-x="795" 
d="M699 41q-42 -23 -106 -42t-148 -19t-153 29t-118 79.5t-75.5 119t-26.5 148.5t27 148.5t75.5 118t116.5 77.5t150 28q72 0 132 -22t106 -60l-16 -16q-20 19 -46.5 33.5t-56 24.5t-60.5 15t-60 5q-78 0 -142 -27.5t-109.5 -75.5t-70 -112t-24.5 -137t24 -138t69.5 -113.5
t111 -76.5t148.5 -28q72 0 128 15t103 38v278h-184v19h205v-309zM449 908l103 -144h-23l-94 132l-94 -132h-23l103 144h28z" />
    <glyph glyph-name="gcircumflex" unicode="&#x11d;" horiz-adv-x="626" 
d="M502 124h-3q-13 -34 -35 -59.5t-49 -43t-58.5 -26.5t-64.5 -9q-50 0 -92.5 18.5t-73 51t-47.5 77t-17 96.5t17 97t47.5 78t73 51.5t92.5 18.5q66 0 121.5 -35t85.5 -104h3v125h22v-434q0 -55 -11.5 -105t-38 -88t-70 -60.5t-107.5 -22.5q-65 0 -116 22.5t-87 63.5l15 15
q38 -43 86.5 -62.5t101.5 -19.5q60 0 100 22t63 58t32.5 82.5t9.5 96.5v96zM84 229q0 -45 14.5 -86t41.5 -72t65.5 -49t86.5 -18q46 0 84.5 18t66.5 49t44 72t16 87t-16 87t-44 71.5t-66.5 48.5t-84.5 18q-48 0 -86.5 -18.5t-65.5 -49.5t-41.5 -72t-14.5 -86zM321 708
l103 -144h-23l-94 132l-94 -132h-23l103 144h28z" />
    <glyph glyph-name="Gbreve" unicode="&#x11e;" horiz-adv-x="795" 
d="M699 41q-42 -23 -106 -42t-148 -19t-153 29t-118 79.5t-75.5 119t-26.5 148.5t27 148.5t75.5 118t116.5 77.5t150 28q72 0 132 -22t106 -60l-16 -16q-20 19 -46.5 33.5t-56 24.5t-60.5 15t-60 5q-78 0 -142 -27.5t-109.5 -75.5t-70 -112t-24.5 -137t24 -138t69.5 -113.5
t111 -76.5t148.5 -28q72 0 128 15t103 38v278h-184v19h205v-309zM563 898q-10 -61 -43.5 -93.5t-83.5 -32.5q-49 0 -82.5 32.5t-41.5 93.5h19q10 -52 38 -79t67 -27q45 0 71 25t38 81h18z" />
    <glyph glyph-name="gbreve" unicode="&#x11f;" horiz-adv-x="626" 
d="M502 124h-3q-13 -34 -35 -59.5t-49 -43t-58.5 -26.5t-64.5 -9q-50 0 -92.5 18.5t-73 51t-47.5 77t-17 96.5t17 97t47.5 78t73 51.5t92.5 18.5q66 0 121.5 -35t85.5 -104h3v125h22v-434q0 -55 -11.5 -105t-38 -88t-70 -60.5t-107.5 -22.5q-65 0 -116 22.5t-87 63.5l15 15
q38 -43 86.5 -62.5t101.5 -19.5q60 0 100 22t63 58t32.5 82.5t9.5 96.5v96zM84 229q0 -45 14.5 -86t41.5 -72t65.5 -49t86.5 -18q46 0 84.5 18t66.5 49t44 72t16 87t-16 87t-44 71.5t-66.5 48.5t-84.5 18q-48 0 -86.5 -18.5t-65.5 -49.5t-41.5 -72t-14.5 -86zM431 698
q-10 -61 -43.5 -93.5t-83.5 -32.5q-49 0 -82.5 32.5t-41.5 93.5h19q10 -52 38 -79t67 -27q45 0 71 25t38 81h18z" />
    <glyph glyph-name="Gdotaccent" unicode="&#x120;" horiz-adv-x="795" 
d="M699 41q-42 -23 -106 -42t-148 -19t-153 29t-118 79.5t-75.5 119t-26.5 148.5t27 148.5t75.5 118t116.5 77.5t150 28q72 0 132 -22t106 -60l-16 -16q-20 19 -46.5 33.5t-56 24.5t-60.5 15t-60 5q-78 0 -142 -27.5t-109.5 -75.5t-70 -112t-24.5 -137t24 -138t69.5 -113.5
t111 -76.5t148.5 -28q72 0 128 15t103 38v278h-184v19h205v-309zM434 833q-9 0 -16 7t-7 19q0 11 7 18t16 7t16 -7t7 -18q0 -12 -7.5 -19t-15.5 -7z" />
    <glyph glyph-name="gdotaccent" unicode="&#x121;" horiz-adv-x="626" 
d="M502 124h-3q-13 -34 -35 -59.5t-49 -43t-58.5 -26.5t-64.5 -9q-50 0 -92.5 18.5t-73 51t-47.5 77t-17 96.5t17 97t47.5 78t73 51.5t92.5 18.5q66 0 121.5 -35t85.5 -104h3v125h22v-434q0 -55 -11.5 -105t-38 -88t-70 -60.5t-107.5 -22.5q-65 0 -116 22.5t-87 63.5l15 15
q38 -43 86.5 -62.5t101.5 -19.5q60 0 100 22t63 58t32.5 82.5t9.5 96.5v96zM84 229q0 -45 14.5 -86t41.5 -72t65.5 -49t86.5 -18q46 0 84.5 18t66.5 49t44 72t16 87t-16 87t-44 71.5t-66.5 48.5t-84.5 18q-48 0 -86.5 -18.5t-65.5 -49.5t-41.5 -72t-14.5 -86zM304 633
q-9 0 -16 7t-7 19q0 11 7 18t16 7t16 -7t7 -18q0 -12 -7.5 -19t-15.5 -7z" />
    <glyph glyph-name="Gcommaaccent" unicode="&#x122;" horiz-adv-x="795" 
d="M699 41q-42 -23 -106 -42t-148 -19t-153 29t-118 79.5t-75.5 119t-26.5 148.5t27 148.5t75.5 118t116.5 77.5t150 28q72 0 132 -22t106 -60l-16 -16q-20 19 -46.5 33.5t-56 24.5t-60.5 15t-60 5q-78 0 -142 -27.5t-109.5 -75.5t-70 -112t-24.5 -137t24 -138t69.5 -113.5
t111 -76.5t148.5 -28q72 0 128 15t103 38v278h-184v19h205v-309zM403 -230h-17l51 185h24z" />
    <glyph glyph-name="gcommaaccent" unicode="&#x123;" horiz-adv-x="626" 
d="M502 124h-3q-13 -34 -35 -59.5t-49 -43t-58.5 -26.5t-64.5 -9q-50 0 -92.5 18.5t-73 51t-47.5 77t-17 96.5t17 97t47.5 78t73 51.5t92.5 18.5q66 0 121.5 -35t85.5 -104h3v125h22v-434q0 -55 -11.5 -105t-38 -88t-70 -60.5t-107.5 -22.5q-65 0 -116 22.5t-87 63.5l15 15
q38 -43 86.5 -62.5t101.5 -19.5q60 0 100 22t63 58t32.5 82.5t9.5 96.5v96zM84 229q0 -45 14.5 -86t41.5 -72t65.5 -49t86.5 -18q46 0 84.5 18t66.5 49t44 72t16 87t-16 87t-44 71.5t-66.5 48.5t-84.5 18q-48 0 -86.5 -18.5t-65.5 -49.5t-41.5 -72t-14.5 -86zM335 749h17
l-51 -185h-24z" />
    <glyph glyph-name="Hcircumflex" unicode="&#x124;" horiz-adv-x="732" 
d="M604 0v356h-476v-356h-22v708h22v-332h476v332h22v-708h-22zM381 908l103 -144h-23l-94 132l-94 -132h-23l103 144h28z" />
    <glyph glyph-name="hcircumflex" unicode="&#x125;" horiz-adv-x="569" 
d="M126 339q10 32 28.5 57t42.5 42.5t52 26.5t58 9q48 0 80 -17t51 -45t27 -63t8 -71v-278h-22v276q0 28 -6 60t-22.5 58t-44.5 43.5t-71 17.5q-38 0 -71.5 -15.5t-58 -44.5t-39 -70.5t-14.5 -94.5v-230h-22v756h22v-417h2zM298 940l103 -144h-23l-94 132l-94 -132h-23
l103 144h28z" />
    <glyph glyph-name="Hbar" unicode="&#x126;" horiz-adv-x="732" 
d="M604 0v356h-476v-356h-22v708h22v-190h476v190h22v-708h-22zM604 376v124h-476v-124h476z" />
    <glyph glyph-name="hbar" unicode="&#x127;" horiz-adv-x="569" 
d="M126 339q10 32 28.5 57t42.5 42.5t52 26.5t58 9q48 0 80 -17t51 -45t27 -63t8 -71v-278h-22v276q0 28 -6 60t-22.5 58t-44.5 43.5t-71 17.5q-38 0 -71.5 -15.5t-58 -44.5t-39 -70.5t-14.5 -94.5v-230h-22v570h-72v18h72v168h22v-168h211v-18h-211v-231h2z" />
    <glyph glyph-name="Itilde" unicode="&#x128;" horiz-adv-x="234" 
d="M106 0v708h22v-708h-22zM121 838q13 -8 22 -13t15.5 -7.5t11 -3t10.5 -0.5q33 0 40 48h16q-4 -36 -20 -51.5t-36 -15.5q-16 0 -28.5 5t-35.5 19q-26 16 -37 20t-22 4q-32 0 -40 -51h-16q4 36 20 53t36 17q16 0 29 -5t35 -19z" />
    <glyph glyph-name="itilde" unicode="&#x129;" horiz-adv-x="226" 
d="M102 0v460h22v-460h-22zM117 638q13 -8 22 -13t15.5 -7.5t11 -3t10.5 -0.5q33 0 40 48h16q-4 -36 -20 -51.5t-36 -15.5q-16 0 -28.5 5t-35.5 19q-26 16 -37 20t-22 4q-32 0 -40 -51h-16q4 36 20 53t36 17q16 0 29 -5t35 -19z" />
    <glyph glyph-name="Imacron" unicode="&#x12a;" horiz-adv-x="234" 
d="M106 0v708h22v-708h-22zM2 821v20h232v-20h-232z" />
    <glyph glyph-name="imacron" unicode="&#x12b;" horiz-adv-x="226" 
d="M102 0v460h22v-460h-22zM-2 621v20h232v-20h-232z" />
    <glyph glyph-name="Iogonek" unicode="&#x12e;" horiz-adv-x="234" 
d="M179 -192q-16 -14 -37.5 -22.5t-44.5 -8.5q-35 0 -59.5 21t-24.5 59q0 39 28 73.5t64 69.5h1v708h22v-708q-46 -46 -69.5 -76.5t-23.5 -64.5q0 -30 18 -47t47 -17q20 0 38.5 8t30.5 21z" />
    <glyph glyph-name="iogonek" unicode="&#x12f;" horiz-adv-x="226" 
d="M102 0v460h22v-460h-22zM176 -192q-16 -14 -37.5 -22.5t-44.5 -8.5q-35 0 -59.5 21t-24.5 59q0 39 28 73.5t64 69.5h23q-46 -46 -69.5 -76.5t-23.5 -64.5q0 -30 18 -47t47 -17q20 0 38.5 8t30.5 21zM113 633q-9 0 -16 7t-7 19q0 11 7 18t16 7t16 -7t7 -18q0 -12 -7.5 -19
t-15.5 -7z" />
    <glyph glyph-name="Idotaccent" unicode="&#x130;" horiz-adv-x="234" 
d="M106 0v708h22v-708h-22zM117 833q-9 0 -16 7t-7 19q0 11 7 18t16 7t16 -7t7 -18q0 -12 -7.5 -19t-15.5 -7z" />
    <glyph glyph-name="dotlessi" unicode="&#x131;" horiz-adv-x="226" 
d="M102 0v460h22v-460h-22z" />
    <glyph glyph-name="Jcircumflex" unicode="&#x134;" horiz-adv-x="480" 
d="M378 193q0 -98 -45.5 -154.5t-135.5 -56.5q-63 0 -107 32.5t-61 78.5l19 9q20 -45 59 -72.5t90 -27.5q43 0 73 14.5t49 40.5t28 61.5t9 77.5v512h22v-515zM379 908l103 -144h-23l-94 132l-94 -132h-23l103 144h28z" />
    <glyph glyph-name="jcircumflex" unicode="&#x135;" horiz-adv-x="226" 
d="M124 -97q0 -35 -4.5 -62t-17 -45t-34.5 -27.5t-56 -9.5q-7 0 -15 0.5t-14 2.5l4 19q13 -3 25 -3q32 0 50 11t27 28.5t11 39.5t2 44v559h22v-557zM125 708l103 -144h-23l-94 132l-94 -132h-23l103 144h28z" />
    <glyph glyph-name="Kcommaaccent" unicode="&#x136;" horiz-adv-x="565" 
d="M129 383l356 325h32l-360 -325l378 -383h-31l-375 381h-1v-381h-22v708h22v-325h1zM265 -230h-17l51 185h24z" />
    <glyph glyph-name="kcommaaccent" unicode="&#x137;" horiz-adv-x="445" 
d="M125 248l238 212h31l-243 -213l271 -247h-33l-264 243h-1v-243h-22v756h22v-508h1zM208 -230h-17l51 185h24z" />
    <glyph glyph-name="Lacute" unicode="&#x139;" horiz-adv-x="498" 
d="M106 0v708h22v-688h352v-20h-374zM125 764h-19l103 144h27z" />
    <glyph glyph-name="lacute" unicode="&#x13a;" horiz-adv-x="226" 
d="M102 0v756h22v-756h-22zM121 792h-19l103 144h27z" />
    <glyph glyph-name="Lcommaaccent" unicode="&#x13b;" horiz-adv-x="498" 
d="M106 0v708h22v-688h352v-20h-374zM250 -230h-17l51 185h24z" />
    <glyph glyph-name="lcommaaccent" unicode="&#x13c;" horiz-adv-x="226" 
d="M102 0v756h22v-756h-22zM82 -231h-17l51 185h24z" />
    <glyph glyph-name="Lcaron" unicode="&#x13d;" horiz-adv-x="498" 
d="M106 0v708h22v-688h352v-20h-374zM226 523h-17l51 185h24z" />
    <glyph glyph-name="lcaron" unicode="&#x13e;" horiz-adv-x="226" 
d="M102 0v756h22v-756h-22zM196 523h-17l51 185h24z" />
    <glyph glyph-name="Ldot" unicode="&#x13f;" horiz-adv-x="498" 
d="M106 0v708h22v-688h352v-20h-374zM367 273q-9 0 -16 7t-7 19q0 11 7 18t16 7t16 -7t7 -18q0 -12 -7.5 -19t-15.5 -7z" />
    <glyph glyph-name="ldot" unicode="&#x140;" horiz-adv-x="226" 
d="M102 0v756h22v-756h-22zM224 273q-9 0 -16 7t-7 19q0 11 7 18t16 7t16 -7t7 -18q0 -12 -7.5 -19t-15.5 -7z" />
    <glyph glyph-name="Lslash" unicode="&#x141;" horiz-adv-x="498" 
d="M41 198v27l65 60v423h22v-406l207 186v-24l-207 -189v-255h352v-20h-374v258z" />
    <glyph glyph-name="lslash" unicode="&#x142;" horiz-adv-x="226" 
d="M41 302v27l65 60v367h22v-350l73 63v-24l-73 -66v-379h-22v362z" />
    <glyph glyph-name="Nacute" unicode="&#x143;" horiz-adv-x="777" 
d="M639 0l-508 680h-3v-680h-22v708h31l509 -679h3v679h22v-708h-32zM386 764h-19l103 144h27z" />
    <glyph glyph-name="nacute" unicode="&#x144;" horiz-adv-x="572" 
d="M128 339q10 32 29 57t43 42.5t52 26.5t58 9q48 0 80 -17t51 -45t27 -63t8 -71v-278h-22v276q0 28 -6 60t-22.5 58t-44.5 43.5t-71 17.5q-38 0 -71.5 -15.5t-58 -44.5t-39 -70.5t-14.5 -94.5v-230h-22v344q0 11 -0.5 27t-1 32.5t-1.5 31.5t-2 25h22q1 -10 1.5 -25t1 -32.5
t1 -34t0.5 -29.5h2zM284 564h-19l103 144h27z" />
    <glyph glyph-name="Ncommaaccent" unicode="&#x145;" horiz-adv-x="777" 
d="M639 0l-508 680h-3v-680h-22v708h31l509 -679h3v679h22v-708h-32zM344 -230h-17l51 185h24z" />
    <glyph glyph-name="ncommaaccent" unicode="&#x146;" horiz-adv-x="572" 
d="M128 339q10 32 29 57t43 42.5t52 26.5t58 9q48 0 80 -17t51 -45t27 -63t8 -71v-278h-22v276q0 28 -6 60t-22.5 58t-44.5 43.5t-71 17.5q-38 0 -71.5 -15.5t-58 -44.5t-39 -70.5t-14.5 -94.5v-230h-22v344q0 11 -0.5 27t-1 32.5t-1.5 31.5t-2 25h22q1 -10 1.5 -25t1 -32.5
t1 -34t0.5 -29.5h2zM257 -230h-17l51 185h24z" />
    <glyph glyph-name="Ncaron" unicode="&#x147;" horiz-adv-x="777" 
d="M639 0l-508 680h-3v-680h-22v708h31l509 -679h3v679h22v-708h-32zM374 764l-103 144h23l94 -132l94 132h23l-103 -144h-28z" />
    <glyph glyph-name="ncaron" unicode="&#x148;" horiz-adv-x="572" 
d="M128 339q10 32 29 57t43 42.5t52 26.5t58 9q48 0 80 -17t51 -45t27 -63t8 -71v-278h-22v276q0 28 -6 60t-22.5 58t-44.5 43.5t-71 17.5q-38 0 -71.5 -15.5t-58 -44.5t-39 -70.5t-14.5 -94.5v-230h-22v344q0 11 -0.5 27t-1 32.5t-1.5 31.5t-2 25h22q1 -10 1.5 -25t1 -32.5
t1 -34t0.5 -29.5h2zM279 564l-103 144h23l94 -132l94 132h23l-103 -144h-28z" />
    <glyph glyph-name="Omacron" unicode="&#x14c;" horiz-adv-x="872" 
d="M800 354q0 -82 -27.5 -150.5t-76 -118t-115.5 -77.5t-145 -28t-145 28t-115.5 77.5t-76 118t-27.5 150.5t27.5 150.5t76 118t115 77.5t145.5 28t145.5 -28t115 -77.5t76 -118t27.5 -150.5zM778 354q0 74 -25 138.5t-70.5 112.5t-108.5 75.5t-138 27.5t-138 -27.5
t-108.5 -75.5t-70.5 -112.5t-25 -138.5t24.5 -138.5t69.5 -112.5t108 -75.5t140 -27.5t140 27.5t108 75.5t69.5 112.5t24.5 138.5zM322 821v20h232v-20h-232z" />
    <glyph glyph-name="omacron" unicode="&#x14d;" horiz-adv-x="605" 
d="M543 231q0 -54 -17.5 -99t-49.5 -77.5t-76.5 -50.5t-97.5 -18t-97 18t-76 50.5t-49.5 77.5t-17.5 99t17.5 98.5t49.5 76.5t76 50t97 18t97.5 -18t76.5 -50t49.5 -76.5t17.5 -98.5zM521 231q0 46 -15 87t-43.5 71.5t-69 48t-91.5 17.5t-91 -17.5t-68.5 -48t-43.5 -71.5
t-15 -87q0 -47 15 -88t43.5 -71.5t68.5 -48.5t91 -18t91.5 18t69 48.5t43.5 71.5t15 88zM185 621v20h232v-20h-232z" />
    <glyph glyph-name="Obreve" unicode="&#x14e;" horiz-adv-x="872" 
d="M800 354q0 -82 -27.5 -150.5t-76 -118t-115.5 -77.5t-145 -28t-145 28t-115.5 77.5t-76 118t-27.5 150.5t27.5 150.5t76 118t115 77.5t145.5 28t145.5 -28t115 -77.5t76 -118t27.5 -150.5zM778 354q0 74 -25 138.5t-70.5 112.5t-108.5 75.5t-138 27.5t-138 -27.5
t-108.5 -75.5t-70.5 -112.5t-25 -138.5t24.5 -138.5t69.5 -112.5t108 -75.5t140 -27.5t140 27.5t108 75.5t69.5 112.5t24.5 138.5zM561 898q-10 -61 -43.5 -93.5t-83.5 -32.5q-49 0 -82.5 32.5t-41.5 93.5h19q10 -52 38 -79t67 -27q45 0 71 25t38 81h18z" />
    <glyph glyph-name="obreve" unicode="&#x14f;" horiz-adv-x="605" 
d="M543 231q0 -54 -17.5 -99t-49.5 -77.5t-76.5 -50.5t-97.5 -18t-97 18t-76 50.5t-49.5 77.5t-17.5 99t17.5 98.5t49.5 76.5t76 50t97 18t97.5 -18t76.5 -50t49.5 -76.5t17.5 -98.5zM521 231q0 46 -15 87t-43.5 71.5t-69 48t-91.5 17.5t-91 -17.5t-68.5 -48t-43.5 -71.5
t-15 -87q0 -47 15 -88t43.5 -71.5t68.5 -48.5t91 -18t91.5 18t69 48.5t43.5 71.5t15 88zM428 698q-10 -61 -43.5 -93.5t-83.5 -32.5q-49 0 -82.5 32.5t-41.5 93.5h19q10 -52 38 -79t67 -27q45 0 71 25t38 81h18z" />
    <glyph glyph-name="Ohungarumlaut" unicode="&#x150;" horiz-adv-x="872" 
d="M800 354q0 -82 -27.5 -150.5t-76 -118t-115.5 -77.5t-145 -28t-145 28t-115.5 77.5t-76 118t-27.5 150.5t27.5 150.5t76 118t115 77.5t145.5 28t145.5 -28t115 -77.5t76 -118t27.5 -150.5zM778 354q0 74 -25 138.5t-70.5 112.5t-108.5 75.5t-138 27.5t-138 -27.5
t-108.5 -75.5t-70.5 -112.5t-25 -138.5t24.5 -138.5t69.5 -112.5t108 -75.5t140 -27.5t140 27.5t108 75.5t69.5 112.5t24.5 138.5zM384 763h-19l103 145h27zM501 763h-19l103 145h27z" />
    <glyph glyph-name="ohungarumlaut" unicode="&#x151;" horiz-adv-x="605" 
d="M543 231q0 -54 -17.5 -99t-49.5 -77.5t-76.5 -50.5t-97.5 -18t-97 18t-76 50.5t-49.5 77.5t-17.5 99t17.5 98.5t49.5 76.5t76 50t97 18t97.5 -18t76.5 -50t49.5 -76.5t17.5 -98.5zM521 231q0 46 -15 87t-43.5 71.5t-69 48t-91.5 17.5t-91 -17.5t-68.5 -48t-43.5 -71.5
t-15 -87q0 -47 15 -88t43.5 -71.5t68.5 -48.5t91 -18t91.5 18t69 48.5t43.5 71.5t15 88zM248 563h-19l103 145h27zM365 563h-19l103 145h27z" />
    <glyph glyph-name="OE" unicode="&#x152;" horiz-adv-x="978" 
d="M468 688q-78 0 -146.5 -19.5t-118.5 -60t-79 -103.5t-29 -151t29 -151.5t79 -104t118.5 -59.5t146.5 -19h64v668h-64zM463 0q-83 0 -154 20.5t-124 64t-83 110.5t-30 159t30 158.5t83 110t124 64.5t154 21h443v-20h-353v-311h331v-20h-331v-337h369v-20h-459z" />
    <glyph glyph-name="oe" unicode="&#x153;" horiz-adv-x="1012" 
d="M530 316q22 72 77.5 115t129.5 43q54 0 94 -19t66.5 -50t39.5 -70.5t13 -80.5v-19h-409q0 -42 12.5 -83t38 -73.5t64 -52.5t91.5 -20q54 0 96 21.5t73 62.5l16 -14q-34 -44 -79.5 -67t-105.5 -23q-80 0 -137 44t-79 118q-23 -74 -83.5 -118t-145.5 -44q-53 0 -97 18
t-76 50.5t-49.5 77.5t-17.5 99t17.5 98.5t49.5 76.5t76 50t97 18q83 0 144 -43t84 -115zM929 254q-1 45 -15.5 82t-39.5 63.5t-60 41t-78 14.5q-52 0 -89 -21.5t-60 -53t-34 -66t-11 -60.5h387zM520 231q0 46 -15 87t-43.5 71.5t-68.5 48t-91 17.5t-91 -17.5t-68.5 -48
t-43.5 -71.5t-15 -87q0 -47 15 -88t43.5 -71.5t68.5 -48.5t91 -18t91 18t68.5 48.5t43.5 71.5t15 88z" />
    <glyph glyph-name="Racute" unicode="&#x154;" horiz-adv-x="594" 
d="M508 0l-214 357h-166v-357h-22v708h196q39 0 79 -7t71.5 -26.5t51.5 -53.5t20 -88q0 -50 -19 -83t-49 -53.5t-66.5 -29.5t-71.5 -9l215 -358h-25zM502 533q0 46 -18 76.5t-47.5 48t-68 24.5t-78.5 7h-162v-313h173q98 0 149.5 41t51.5 116zM258 764h-19l103 144h27z" />
    <glyph glyph-name="racute" unicode="&#x155;" horiz-adv-x="317" 
d="M128 339q20 72 64 103.5t95 31.5h9t9 -1v-19q-4 1 -7.5 1h-5.5q-44 0 -75 -19.5t-51 -51t-29.5 -70t-9.5 -76.5v-238h-22v344q0 11 -0.5 27t-1 32.5t-1.5 31.5t-2 25h22q1 -10 1.5 -25t1 -32.5t1 -34t0.5 -29.5h2zM144 564h-19l103 144h27z" />
    <glyph glyph-name="Rcommaaccent" unicode="&#x156;" horiz-adv-x="594" 
d="M508 0l-214 357h-166v-357h-22v708h196q39 0 79 -7t71.5 -26.5t51.5 -53.5t20 -88q0 -50 -19 -83t-49 -53.5t-66.5 -29.5t-71.5 -9l215 -358h-25zM502 533q0 46 -18 76.5t-47.5 48t-68 24.5t-78.5 7h-162v-313h173q98 0 149.5 41t51.5 116zM264 -230h-17l51 185h24z" />
    <glyph glyph-name="rcommaaccent" unicode="&#x157;" horiz-adv-x="317" 
d="M128 339q20 72 64 103.5t95 31.5h9t9 -1v-19q-4 1 -7.5 1h-5.5q-44 0 -75 -19.5t-51 -51t-29.5 -70t-9.5 -76.5v-238h-22v344q0 11 -0.5 27t-1 32.5t-1.5 31.5t-2 25h22q1 -10 1.5 -25t1 -32.5t1 -34t0.5 -29.5h2zM85 -231h-17l51 185h24z" />
    <glyph glyph-name="Rcaron" unicode="&#x158;" horiz-adv-x="594" 
d="M508 0l-214 357h-166v-357h-22v708h196q39 0 79 -7t71.5 -26.5t51.5 -53.5t20 -88q0 -50 -19 -83t-49 -53.5t-66.5 -29.5t-71.5 -9l215 -358h-25zM502 533q0 46 -18 76.5t-47.5 48t-68 24.5t-78.5 7h-162v-313h173q98 0 149.5 41t51.5 116zM255 764l-103 144h23l94 -132
l94 132h23l-103 -144h-28z" />
    <glyph glyph-name="rcaron" unicode="&#x159;" horiz-adv-x="317" 
d="M128 339q20 72 64 103.5t95 31.5h9t9 -1v-19q-4 1 -7.5 1h-5.5q-44 0 -75 -19.5t-51 -51t-29.5 -70t-9.5 -76.5v-238h-22v344q0 11 -0.5 27t-1 32.5t-1.5 31.5t-2 25h22q1 -10 1.5 -25t1 -32.5t1 -34t0.5 -29.5h2zM180 564l-103 144h23l94 -132l94 132h23l-103 -144h-28z
" />
    <glyph glyph-name="Sacute" unicode="&#x15a;" horiz-adv-x="570" 
d="M498 170q0 -45 -17.5 -80.5t-46.5 -60t-68.5 -37t-82.5 -12.5q-66 0 -120.5 23.5t-90.5 63.5l17 15q38 -41 88.5 -61.5t104.5 -20.5q39 0 74 11.5t62 33t42.5 53t15.5 72.5t-17 69t-44 48t-61.5 33.5t-69.5 24.5q-44 14 -80.5 29.5t-63 38t-41 54t-14.5 76.5
q0 44 17.5 78.5t47.5 58t69.5 36t83.5 12.5q54 0 102.5 -20.5t79.5 -58.5l-17 -15q-28 35 -71.5 54.5t-94.5 19.5q-36 0 -70.5 -10t-62.5 -30.5t-45 -51.5t-17 -73q0 -41 15 -69.5t40 -48.5t56.5 -33t64.5 -24q45 -15 84 -30.5t68.5 -37.5t46 -53.5t16.5 -76.5zM282 764h-19
l103 144h27z" />
    <glyph glyph-name="sacute" unicode="&#x15b;" horiz-adv-x="415" 
d="M361 120q0 -31 -12 -55.5t-32.5 -41.5t-47.5 -26t-58 -9q-51 0 -92.5 19.5t-68.5 57.5l18 12q50 -70 144 -70q22 0 44.5 7t41 21t30 35t11.5 48q0 32 -14.5 52t-36.5 32t-48.5 19.5t-49.5 13.5q-25 7 -47 15.5t-38.5 22t-26 33.5t-9.5 50t12 52t32 36.5t45.5 22t51.5 7.5
q94 0 141 -67l-19 -11q-23 30 -52 44.5t-70 14.5q-19 0 -40 -5t-38.5 -16.5t-29 -30.5t-11.5 -46q0 -30 9.5 -48t26.5 -29t41 -18.5t53 -14.5q27 -7 52.5 -16.5t45 -23.5t31 -35t11.5 -52zM197 564h-19l103 144h27z" />
    <glyph glyph-name="Scircumflex" unicode="&#x15c;" horiz-adv-x="570" 
d="M498 170q0 -45 -17.5 -80.5t-46.5 -60t-68.5 -37t-82.5 -12.5q-66 0 -120.5 23.5t-90.5 63.5l17 15q38 -41 88.5 -61.5t104.5 -20.5q39 0 74 11.5t62 33t42.5 53t15.5 72.5t-17 69t-44 48t-61.5 33.5t-69.5 24.5q-44 14 -80.5 29.5t-63 38t-41 54t-14.5 76.5
q0 44 17.5 78.5t47.5 58t69.5 36t83.5 12.5q54 0 102.5 -20.5t79.5 -58.5l-17 -15q-28 35 -71.5 54.5t-94.5 19.5q-36 0 -70.5 -10t-62.5 -30.5t-45 -51.5t-17 -73q0 -41 15 -69.5t40 -48.5t56.5 -33t64.5 -24q45 -15 84 -30.5t68.5 -37.5t46 -53.5t16.5 -76.5zM316 908
l103 -144h-23l-94 132l-94 -132h-23l103 144h28z" />
    <glyph glyph-name="scircumflex" unicode="&#x15d;" horiz-adv-x="415" 
d="M361 120q0 -31 -12 -55.5t-32.5 -41.5t-47.5 -26t-58 -9q-51 0 -92.5 19.5t-68.5 57.5l18 12q50 -70 144 -70q22 0 44.5 7t41 21t30 35t11.5 48q0 32 -14.5 52t-36.5 32t-48.5 19.5t-49.5 13.5q-25 7 -47 15.5t-38.5 22t-26 33.5t-9.5 50t12 52t32 36.5t45.5 22t51.5 7.5
q94 0 141 -67l-19 -11q-23 30 -52 44.5t-70 14.5q-19 0 -40 -5t-38.5 -16.5t-29 -30.5t-11.5 -46q0 -30 9.5 -48t26.5 -29t41 -18.5t53 -14.5q27 -7 52.5 -16.5t45 -23.5t31 -35t11.5 -52zM228 708l103 -144h-23l-94 132l-94 -132h-23l103 144h28z" />
    <glyph glyph-name="Scedilla" unicode="&#x15e;" horiz-adv-x="570" 
d="M384 -146q0 -24 -11.5 -39.5t-28.5 -24.5t-36.5 -12.5t-35.5 -3.5q-19 0 -43.5 5t-46.5 15l5 17q19 -10 43.5 -14t42.5 -4q15 0 30.5 2.5t29 9t22 18.5t8.5 31q0 16 -7 26t-17.5 15.5t-23 7.5t-24.5 2q-14 0 -35.5 -4t-33.5 -11l-10 9l55 82q-61 3 -111 25.5t-84 60.5
l17 15q38 -41 88.5 -61.5t104.5 -20.5q39 0 74 11.5t62 33t42.5 53t15.5 72.5t-17 69t-44 48t-61.5 33.5t-69.5 24.5q-44 14 -80.5 29.5t-63 38t-41 54t-14.5 76.5q0 44 17.5 78.5t47.5 58t69.5 36t83.5 12.5q54 0 102.5 -20.5t79.5 -58.5l-17 -15q-28 35 -71.5 54.5
t-94.5 19.5q-36 0 -70.5 -10t-62.5 -30.5t-45 -51.5t-17 -73q0 -41 15 -69.5t40 -48.5t56.5 -33t64.5 -24q45 -15 84 -30.5t68.5 -37.5t46 -53.5t16.5 -76.5t-17 -80t-45.5 -59t-66.5 -37t-81 -14l-45 -66q14 5 27 6.5t27 1.5q15 0 30.5 -3.5t28 -11t20.5 -21t8 -32.5z" />
    <glyph glyph-name="scedilla" unicode="&#x15f;" horiz-adv-x="415" 
d="M310 -146q0 -24 -11.5 -39.5t-28.5 -24.5t-36.5 -12.5t-35.5 -3.5q-19 0 -43.5 5t-46.5 15l5 17q19 -10 43.5 -14t42.5 -4q15 0 30.5 2.5t29 9t22 18.5t8.5 31q0 16 -7 26t-17.5 15.5t-23 7.5t-24.5 2q-14 0 -35.5 -4t-33.5 -11l-10 9l60 89q-47 2 -84.5 22t-63.5 55
l18 12q50 -70 144 -70q22 0 44.5 7t41 21t30 35t11.5 48q0 32 -14.5 52t-36.5 32t-48.5 19.5t-49.5 13.5q-25 7 -47 15.5t-38.5 22t-26 33.5t-9.5 50t12 52t32 36.5t45.5 22t51.5 7.5q94 0 141 -67l-19 -11q-23 30 -52 44.5t-70 14.5q-19 0 -40 -5t-38.5 -16.5t-29 -30.5
t-11.5 -46q0 -30 9.5 -48t26.5 -29t41 -18.5t53 -14.5q27 -7 52.5 -16.5t45 -23.5t31 -35t11.5 -52q0 -30 -11 -53.5t-30.5 -40.5t-45.5 -27t-55 -11l-50 -74q14 5 27 6.5t27 1.5q15 0 30.5 -3.5t28 -11t20.5 -21t8 -32.5z" />
    <glyph glyph-name="Scaron" unicode="&#x160;" horiz-adv-x="570" 
d="M498 170q0 -45 -17.5 -80.5t-46.5 -60t-68.5 -37t-82.5 -12.5q-66 0 -120.5 23.5t-90.5 63.5l17 15q38 -41 88.5 -61.5t104.5 -20.5q39 0 74 11.5t62 33t42.5 53t15.5 72.5t-17 69t-44 48t-61.5 33.5t-69.5 24.5q-44 14 -80.5 29.5t-63 38t-41 54t-14.5 76.5
q0 44 17.5 78.5t47.5 58t69.5 36t83.5 12.5q54 0 102.5 -20.5t79.5 -58.5l-17 -15q-28 35 -71.5 54.5t-94.5 19.5q-36 0 -70.5 -10t-62.5 -30.5t-45 -51.5t-17 -73q0 -41 15 -69.5t40 -48.5t56.5 -33t64.5 -24q45 -15 84 -30.5t68.5 -37.5t46 -53.5t16.5 -76.5zM285 764
l-103 144h23l94 -132l94 132h23l-103 -144h-28z" />
    <glyph glyph-name="scaron" unicode="&#x161;" horiz-adv-x="415" 
d="M361 120q0 -31 -12 -55.5t-32.5 -41.5t-47.5 -26t-58 -9q-51 0 -92.5 19.5t-68.5 57.5l18 12q50 -70 144 -70q22 0 44.5 7t41 21t30 35t11.5 48q0 32 -14.5 52t-36.5 32t-48.5 19.5t-49.5 13.5q-25 7 -47 15.5t-38.5 22t-26 33.5t-9.5 50t12 52t32 36.5t45.5 22t51.5 7.5
q94 0 141 -67l-19 -11q-23 30 -52 44.5t-70 14.5q-19 0 -40 -5t-38.5 -16.5t-29 -30.5t-11.5 -46q0 -30 9.5 -48t26.5 -29t41 -18.5t53 -14.5q27 -7 52.5 -16.5t45 -23.5t31 -35t11.5 -52zM200 564l-103 144h23l94 -132l94 132h23l-103 -144h-28z" />
    <glyph glyph-name="Tcommaaccent" unicode="&#x162;" horiz-adv-x="540" 
d="M281 688v-688h-22v688h-241v20h504v-20h-241zM362 -146q0 -24 -11.5 -39.5t-28.5 -24.5t-36.5 -12.5t-35.5 -3.5q-19 0 -43.5 5t-46.5 15l5 17q19 -10 43.5 -14t42.5 -4q15 0 30.5 2.5t29 9t22 18.5t8.5 31q0 16 -7 26t-17.5 15.5t-23 7.5t-24.5 2q-14 0 -35.5 -4
t-33.5 -11l-10 9l69 101h21l-59 -86q14 5 27 6.5t27 1.5q15 0 30.5 -3.5t28 -11t20.5 -21t8 -32.5z" />
    <glyph glyph-name="tcommaaccent" unicode="&#x163;" horiz-adv-x="304" 
d="M280 -1q-12 -5 -28 -8t-31 -3q-54 0 -77.5 30.5t-23.5 76.5v346h-100v19h99v135h23v-135h135v-19h-135v-346q0 -47 23 -67.5t61 -20.5q28 0 51 9zM306 -146q0 -24 -11.5 -39.5t-28.5 -24.5t-36.5 -12.5t-35.5 -3.5q-19 0 -43.5 5t-46.5 15l5 17q19 -10 43.5 -14t42.5 -4
q15 0 30.5 2.5t29 9t22 18.5t8.5 31q0 16 -7 26t-17.5 15.5t-23 7.5t-24.5 2q-14 0 -35.5 -4t-33.5 -11l-10 9l69 101h21l-59 -86q14 5 27 6.5t27 1.5q15 0 30.5 -3.5t28 -11t20.5 -21t8 -32.5z" />
    <glyph glyph-name="Tcaron" unicode="&#x164;" horiz-adv-x="540" 
d="M281 688v-688h-22v688h-241v20h504v-20h-241zM256 764l-103 144h23l94 -132l94 132h23l-103 -144h-28z" />
    <glyph glyph-name="tcaron" unicode="&#x165;" horiz-adv-x="304" 
d="M280 -1q-12 -5 -28 -8t-31 -3q-54 0 -77.5 30.5t-23.5 76.5v346h-100v19h99v135h23v-135h135v-19h-135v-346q0 -47 23 -67.5t61 -20.5q28 0 51 9zM247 546h-17l51 185h24z" />
    <glyph glyph-name="Tbar" unicode="&#x166;" horiz-adv-x="540" 
d="M281 527v-527h-22v527h-199v18h199v143h-241v20h504v-20h-241v-143h199v-18h-199z" />
    <glyph glyph-name="tbar" unicode="&#x167;" horiz-adv-x="304" 
d="M142 259v-164q0 -47 23 -67.5t61 -20.5q28 0 51 9l3 -17q-12 -5 -28 -8t-31 -3q-54 0 -77.5 30.5t-23.5 76.5v164h-92v18h92v164h-100v19h99v135h23v-135h135v-19h-135v-164h120v-18h-120z" />
    <glyph glyph-name="Utilde" unicode="&#x168;" horiz-adv-x="732" 
d="M636 268q0 -60 -14 -112.5t-46 -91.5t-83.5 -61.5t-126.5 -22.5t-126.5 22.5t-83.5 61.5t-46 91.5t-14 112.5v440h22v-436q0 -42 8.5 -89.5t35 -88t75 -67.5t129.5 -27q79 0 127.5 26t75.5 66.5t36 88t9 91.5v436h22v-440zM370 838q13 -8 22 -13t15.5 -7.5t11 -3
t10.5 -0.5q33 0 40 48h16q-4 -36 -20 -51.5t-36 -15.5q-16 0 -28.5 5t-35.5 19q-26 16 -37 20t-22 4q-32 0 -40 -51h-16q4 36 20 53t36 17q16 0 29 -5t35 -19z" />
    <glyph glyph-name="utilde" unicode="&#x169;" horiz-adv-x="572" 
d="M442 121q-11 -32 -29.5 -57.5t-42.5 -42.5t-52 -26t-58 -9q-48 0 -80 17t-51 45t-27 63t-8 71v278h22v-276q0 -29 6 -60.5t22.5 -57.5t44 -43.5t71.5 -17.5q38 0 71.5 15.5t58 44.5t39 70.5t14.5 94.5v230h22v-344q0 -11 0.5 -27t1 -32.5t1.5 -31.5t2 -25h-22
q-1 10 -1.5 25t-1 32.5t-1 34t-0.5 29.5h-2zM285 638q13 -8 22 -13t15.5 -7.5t11 -3t10.5 -0.5q33 0 40 48h16q-4 -36 -20 -51.5t-36 -15.5q-16 0 -28.5 5t-35.5 19q-26 16 -37 20t-22 4q-32 0 -40 -51h-16q4 36 20 53t36 17q16 0 29 -5t35 -19z" />
    <glyph glyph-name="Umacron" unicode="&#x16a;" horiz-adv-x="732" 
d="M636 268q0 -60 -14 -112.5t-46 -91.5t-83.5 -61.5t-126.5 -22.5t-126.5 22.5t-83.5 61.5t-46 91.5t-14 112.5v440h22v-436q0 -42 8.5 -89.5t35 -88t75 -67.5t129.5 -27q79 0 127.5 26t75.5 66.5t36 88t9 91.5v436h22v-440zM251 821v20h232v-20h-232z" />
    <glyph glyph-name="umacron" unicode="&#x16b;" horiz-adv-x="572" 
d="M442 121q-11 -32 -29.5 -57.5t-42.5 -42.5t-52 -26t-58 -9q-48 0 -80 17t-51 45t-27 63t-8 71v278h22v-276q0 -29 6 -60.5t22.5 -57.5t44 -43.5t71.5 -17.5q38 0 71.5 15.5t58 44.5t39 70.5t14.5 94.5v230h22v-344q0 -11 0.5 -27t1 -32.5t1.5 -31.5t2 -25h-22
q-1 10 -1.5 25t-1 32.5t-1 34t-0.5 29.5h-2zM165 621v20h232v-20h-232z" />
    <glyph glyph-name="Ubreve" unicode="&#x16c;" horiz-adv-x="732" 
d="M636 268q0 -60 -14 -112.5t-46 -91.5t-83.5 -61.5t-126.5 -22.5t-126.5 22.5t-83.5 61.5t-46 91.5t-14 112.5v440h22v-436q0 -42 8.5 -89.5t35 -88t75 -67.5t129.5 -27q79 0 127.5 26t75.5 66.5t36 88t9 91.5v436h22v-440zM493 898q-10 -61 -43.5 -93.5t-83.5 -32.5
q-49 0 -82.5 32.5t-41.5 93.5h19q10 -52 38 -79t67 -27q45 0 71 25t38 81h18z" />
    <glyph glyph-name="ubreve" unicode="&#x16d;" horiz-adv-x="572" 
d="M442 121q-11 -32 -29.5 -57.5t-42.5 -42.5t-52 -26t-58 -9q-48 0 -80 17t-51 45t-27 63t-8 71v278h22v-276q0 -29 6 -60.5t22.5 -57.5t44 -43.5t71.5 -17.5q38 0 71.5 15.5t58 44.5t39 70.5t14.5 94.5v230h22v-344q0 -11 0.5 -27t1 -32.5t1.5 -31.5t2 -25h-22
q-1 10 -1.5 25t-1 32.5t-1 34t-0.5 29.5h-2zM406 698q-10 -61 -43.5 -93.5t-83.5 -32.5q-49 0 -82.5 32.5t-41.5 93.5h19q10 -52 38 -79t67 -27q45 0 71 25t38 81h18z" />
    <glyph glyph-name="Uring" unicode="&#x16e;" horiz-adv-x="732" 
d="M636 268q0 -60 -14 -112.5t-46 -91.5t-83.5 -61.5t-126.5 -22.5t-126.5 22.5t-83.5 61.5t-46 91.5t-14 112.5v440h22v-436q0 -42 8.5 -89.5t35 -88t75 -67.5t129.5 -27q79 0 127.5 26t75.5 66.5t36 88t9 91.5v436h22v-440zM464 850q0 -20 -7.5 -37.5t-21 -30.5t-31 -20
t-36.5 -7q-20 0 -37 7t-30.5 20t-21 30.5t-7.5 37.5t7.5 37.5t21 30t30.5 20t37 7.5q19 0 36.5 -7.5t31 -20t21 -30t7.5 -37.5zM445 850q0 32 -22.5 55t-54.5 23t-54.5 -23t-22.5 -55t22.5 -55t54.5 -23t54.5 23t22.5 55z" />
    <glyph glyph-name="uring" unicode="&#x16f;" horiz-adv-x="572" 
d="M442 121q-11 -32 -29.5 -57.5t-42.5 -42.5t-52 -26t-58 -9q-48 0 -80 17t-51 45t-27 63t-8 71v278h22v-276q0 -29 6 -60.5t22.5 -57.5t44 -43.5t71.5 -17.5q38 0 71.5 15.5t58 44.5t39 70.5t14.5 94.5v230h22v-344q0 -11 0.5 -27t1 -32.5t1.5 -31.5t2 -25h-22
q-1 10 -1.5 25t-1 32.5t-1 34t-0.5 29.5h-2zM377 650q0 -20 -7.5 -37.5t-21 -30.5t-31 -20t-36.5 -7q-20 0 -37 7t-30.5 20t-21 30.5t-7.5 37.5t7.5 37.5t21 30t30.5 20t37 7.5q19 0 36.5 -7.5t31 -20t21 -30t7.5 -37.5zM358 650q0 32 -22.5 55t-54.5 23t-54.5 -23
t-22.5 -55t22.5 -55t54.5 -23t54.5 23t22.5 55z" />
    <glyph glyph-name="Uhungarumlaut" unicode="&#x170;" horiz-adv-x="732" 
d="M636 268q0 -60 -14 -112.5t-46 -91.5t-83.5 -61.5t-126.5 -22.5t-126.5 22.5t-83.5 61.5t-46 91.5t-14 112.5v440h22v-436q0 -42 8.5 -89.5t35 -88t75 -67.5t129.5 -27q79 0 127.5 26t75.5 66.5t36 88t9 91.5v436h22v-440zM313 763h-19l103 145h27zM430 763h-19l103 145
h27z" />
    <glyph glyph-name="uhungarumlaut" unicode="&#x171;" horiz-adv-x="572" 
d="M442 121q-11 -32 -29.5 -57.5t-42.5 -42.5t-52 -26t-58 -9q-48 0 -80 17t-51 45t-27 63t-8 71v278h22v-276q0 -29 6 -60.5t22.5 -57.5t44 -43.5t71.5 -17.5q38 0 71.5 15.5t58 44.5t39 70.5t14.5 94.5v230h22v-344q0 -11 0.5 -27t1 -32.5t1.5 -31.5t2 -25h-22
q-1 10 -1.5 25t-1 32.5t-1 34t-0.5 29.5h-2zM227 563h-19l103 145h27zM344 563h-19l103 145h27z" />
    <glyph glyph-name="Uogonek" unicode="&#x172;" horiz-adv-x="732" 
d="M479 -192q-16 -14 -37.5 -22.5t-44.5 -8.5q-35 0 -59.5 21t-24.5 59q0 34 21.5 64.5t50.5 59.5q-5 -1 -9.5 -1h-9.5q-75 0 -126.5 22.5t-83.5 61.5t-46 91.5t-14 112.5v440h22v-436q0 -42 8.5 -89.5t35 -88t75 -67.5t129.5 -27q79 0 127.5 26t75.5 66.5t36 88t9 91.5v436
h22v-440q0 -55 -12 -104t-38.5 -87t-69.5 -63t-105 -31q-38 -38 -57 -65.5t-19 -58.5q0 -30 18 -47t47 -17q20 0 38.5 8t30.5 21z" />
    <glyph glyph-name="uogonek" unicode="&#x173;" horiz-adv-x="572" 
d="M521 -192q-16 -14 -37.5 -22.5t-44.5 -8.5q-35 0 -59.5 21t-24.5 59q0 39 28 73.5t64 69.5h1q-1 10 -1.5 25t-1 32.5t-1 34t-0.5 29.5h-2q-11 -32 -29.5 -57.5t-42.5 -42.5t-52 -26t-58 -9q-48 0 -80 17t-51 45t-27 63t-8 71v278h22v-276q0 -29 6 -60.5t22.5 -57.5
t44 -43.5t71.5 -17.5q38 0 71.5 15.5t58 44.5t39 70.5t14.5 94.5v230h22v-344q0 -11 0.5 -27t1 -32.5t1.5 -31.5t2 -25q-46 -46 -69.5 -76.5t-23.5 -64.5q0 -30 18 -47t47 -17q20 0 38.5 8t30.5 21z" />
    <glyph glyph-name="Wcircumflex" unicode="&#x174;" horiz-adv-x="956" 
d="M716 0h-34l-205 687h-2l-201 -687h-34l-212 708h23l204 -688h3l201 688h34l205 -688h3l204 688h23zM490 908l103 -144h-23l-94 132l-94 -132h-23l103 144h28z" />
    <glyph glyph-name="wcircumflex" unicode="&#x175;" horiz-adv-x="698" 
d="M529 0h-30l-150 436h-2l-149 -436h-30l-134 460h23l126 -438h2l148 438h31l149 -438h2l126 438h23zM362 708l103 -144h-23l-94 132l-94 -132h-23l103 144h28z" />
    <glyph glyph-name="Ycircumflex" unicode="&#x176;" horiz-adv-x="538" 
d="M280 310v-310h-22v310l-243 398h26l229 -376l228 376h25zM284 908l103 -144h-23l-94 132l-94 -132h-23l103 144h28z" />
    <glyph glyph-name="ycircumflex" unicode="&#x177;" horiz-adv-x="428" 
d="M176 -152q-16 -43 -42.5 -66.5t-68.5 -23.5q-9 0 -21 2t-20 5l6 19q6 -2 16.5 -4t20.5 -2q21 0 36.5 8t26.5 20.5t18.5 28.5t13.5 32l44 120l-182 473h24l169 -448l163 448h24zM232 708l103 -144h-23l-94 132l-94 -132h-23l103 144h28z" />
    <glyph glyph-name="Ydieresis" unicode="&#x178;" horiz-adv-x="538" 
d="M280 310v-310h-22v310l-243 398h26l229 -376l228 376h25zM193 833q-9 0 -16 7t-7 19q0 11 7 18t16 7t16 -7t7 -18q0 -12 -7.5 -19t-15.5 -7zM347 833q-9 0 -16 7t-7 19q0 11 7 18t16 7t16 -7t7 -18q0 -12 -7.5 -19t-15.5 -7z" />
    <glyph glyph-name="Zacute" unicode="&#x179;" horiz-adv-x="594" 
d="M54 0v27l466 661h-453v20h473v-29l-465 -659h477v-20h-498zM298 764h-19l103 144h27z" />
    <glyph glyph-name="zacute" unicode="&#x17a;" horiz-adv-x="438" 
d="M49 0v21l304 420h-288v19h310v-22l-301 -419h313v-19h-338zM216 564h-19l103 144h27z" />
    <glyph glyph-name="Zdotaccent" unicode="&#x17b;" horiz-adv-x="594" 
d="M54 0v27l466 661h-453v20h473v-29l-465 -659h477v-20h-498zM305 833q-9 0 -16 7t-7 19q0 11 7 18t16 7t16 -7t7 -18q0 -12 -7.5 -19t-15.5 -7z" />
    <glyph glyph-name="zdotaccent" unicode="&#x17c;" horiz-adv-x="438" 
d="M49 0v21l304 420h-288v19h310v-22l-301 -419h313v-19h-338zM223 633q-9 0 -16 7t-7 19q0 11 7 18t16 7t16 -7t7 -18q0 -12 -7.5 -19t-15.5 -7z" />
    <glyph glyph-name="Zcaron" unicode="&#x17d;" horiz-adv-x="594" 
d="M54 0v27l466 661h-453v20h473v-29l-465 -659h477v-20h-498zM289 764l-103 144h23l94 -132l94 132h23l-103 -144h-28z" />
    <glyph glyph-name="zcaron" unicode="&#x17e;" horiz-adv-x="438" 
d="M49 0v21l304 420h-288v19h310v-22l-301 -419h313v-19h-338zM209 564l-103 144h23l94 -132l94 132h23l-103 -144h-28z" />
    <glyph glyph-name="florin" unicode="&#x192;" horiz-adv-x="560" 
d="M472 683q-10 8 -25 13t-29 5q-26 0 -44.5 -10t-30.5 -26t-19 -36t-11 -40l-33 -181h118v-19h-121l-74 -409q-5 -28 -13.5 -50.5t-22 -39t-34 -25.5t-49.5 -9q-16 0 -31 2.5t-27 10.5l10 19q24 -12 48 -12q26 0 43.5 9.5t29 27t18.5 41t12 51.5l68 384h-111v19h114l31 173
q5 27 13.5 52t23 44.5t37 31t54.5 11.5q43 0 67 -19z" />
    <glyph glyph-name="Scommaaccent" unicode="&#x218;" horiz-adv-x="570" 
d="M498 170q0 -45 -17.5 -80.5t-46.5 -60t-68.5 -37t-82.5 -12.5q-66 0 -120.5 23.5t-90.5 63.5l17 15q38 -41 88.5 -61.5t104.5 -20.5q39 0 74 11.5t62 33t42.5 53t15.5 72.5t-17 69t-44 48t-61.5 33.5t-69.5 24.5q-44 14 -80.5 29.5t-63 38t-41 54t-14.5 76.5
q0 44 17.5 78.5t47.5 58t69.5 36t83.5 12.5q54 0 102.5 -20.5t79.5 -58.5l-17 -15q-28 35 -71.5 54.5t-94.5 19.5q-36 0 -70.5 -10t-62.5 -30.5t-45 -51.5t-17 -73q0 -41 15 -69.5t40 -48.5t56.5 -33t64.5 -24q45 -15 84 -30.5t68.5 -37.5t46 -53.5t16.5 -76.5zM256 -230
h-17l51 185h24z" />
    <glyph glyph-name="scommaaccent" unicode="&#x219;" horiz-adv-x="415" 
d="M361 120q0 -31 -12 -55.5t-32.5 -41.5t-47.5 -26t-58 -9q-51 0 -92.5 19.5t-68.5 57.5l18 12q50 -70 144 -70q22 0 44.5 7t41 21t30 35t11.5 48q0 32 -14.5 52t-36.5 32t-48.5 19.5t-49.5 13.5q-25 7 -47 15.5t-38.5 22t-26 33.5t-9.5 50t12 52t32 36.5t45.5 22t51.5 7.5
q94 0 141 -67l-19 -11q-23 30 -52 44.5t-70 14.5q-19 0 -40 -5t-38.5 -16.5t-29 -30.5t-11.5 -46q0 -30 9.5 -48t26.5 -29t41 -18.5t53 -14.5q27 -7 52.5 -16.5t45 -23.5t31 -35t11.5 -52zM176 -230h-17l51 185h24z" />
    <glyph glyph-name="uni021A" unicode="&#x21a;" horiz-adv-x="540" 
d="M281 688v-688h-22v688h-241v20h504v-20h-241zM238 -230h-17l51 185h24z" />
    <glyph glyph-name="uni021B" unicode="&#x21b;" horiz-adv-x="304" 
d="M280 -1q-12 -5 -28 -8t-31 -3q-54 0 -77.5 30.5t-23.5 76.5v346h-100v19h99v135h23v-135h135v-19h-135v-346q0 -47 23 -67.5t61 -20.5q28 0 51 9zM156 -230h-17l51 185h24z" />
    <glyph glyph-name="circumflex" unicode="&#x2c6;" horiz-adv-x="240" 
d="M134 708l103 -144h-23l-94 132l-94 -132h-23l103 144h28z" />
    <glyph glyph-name="caron" unicode="&#x2c7;" horiz-adv-x="240" 
d="M106 564l-103 144h23l94 -132l94 132h23l-103 -144h-28z" />
    <glyph glyph-name="uni02C9" unicode="&#x2c9;" horiz-adv-x="240" 
d="M4 821v20h232v-20h-232z" />
    <glyph glyph-name="breve" unicode="&#x2d8;" horiz-adv-x="240" 
d="M245 698q-10 -61 -43.5 -93.5t-83.5 -32.5q-49 0 -82.5 32.5t-41.5 93.5h19q10 -52 38 -79t67 -27q45 0 71 25t38 81h18v0z" />
    <glyph glyph-name="dotaccent" unicode="&#x2d9;" horiz-adv-x="240" 
d="M120 633q-9 0 -16 7t-7 19q0 11 7 18t16 7t16 -7t7 -18q0 -12 -7.5 -19t-15.5 -7z" />
    <glyph glyph-name="ring" unicode="&#x2da;" horiz-adv-x="240" 
d="M216 650q0 -20 -7.5 -37.5t-21 -30.5t-31 -20t-36.5 -7q-20 0 -37 7t-30.5 20t-21 30.5t-7.5 37.5t7.5 37.5t21 30t30.5 20t37 7.5q19 0 36.5 -7.5t31 -20t21 -30t7.5 -37.5zM197 650q0 32 -22.5 55t-54.5 23t-54.5 -23t-22.5 -55t22.5 -55t54.5 -23t54.5 23t22.5 55z
" />
    <glyph glyph-name="ogonek" unicode="&#x2db;" horiz-adv-x="240" 
d="M206 -192q-16 -14 -37.5 -22.5t-44.5 -8.5q-35 0 -59.5 21t-24.5 59q0 39 28 73.5t64 69.5h23q-46 -46 -69.5 -76.5t-23.5 -64.5q0 -30 18 -47t47 -17q20 0 38.5 8t30.5 21z" />
    <glyph glyph-name="tilde" unicode="&#x2dc;" horiz-adv-x="240" 
d="M123 638q13 -8 22 -13t15.5 -7.5t11 -3t10.5 -0.5q33 0 40 48h16q-4 -36 -20 -51.5t-36 -15.5q-16 0 -28.5 5t-35.5 19q-26 16 -37 20t-22 4q-32 0 -40 -51h-16q4 36 20 53t36 17q16 0 29 -5t35 -19z" />
    <glyph glyph-name="hungarumlaut" unicode="&#x2dd;" horiz-adv-x="240" 
d="M60 563h-19l103 145h27zM177 563h-19l103 145h27z" />
    <glyph glyph-name="endash" unicode="&#x2013;" horiz-adv-x="400" 
d="M30 244v20h340v-20h-340z" />
    <glyph glyph-name="emdash" unicode="&#x2014;" horiz-adv-x="600" 
d="M30 244v20h540v-20h-540z" />
    <glyph glyph-name="quoteleft" unicode="&#x2018;" horiz-adv-x="220" 
d="M133 708h17l-56 -228h-24z" />
    <glyph glyph-name="quoteright" unicode="&#x2019;" horiz-adv-x="220" 
d="M87 480h-17l56 228h24z" />
    <glyph glyph-name="quotesinglbase" unicode="&#x201a;" horiz-adv-x="220" 
d="M87 -138h-17l56 228h24z" />
    <glyph glyph-name="quotedblleft" unicode="&#x201c;" horiz-adv-x="350" 
d="M263 708h17l-56 -228h-24zM135 708h17l-58 -228h-24z" />
    <glyph glyph-name="quotedblright" unicode="&#x201d;" horiz-adv-x="350" 
d="M87 480h-17l56 228h24zM215 480h-17l58 228h24z" />
    <glyph glyph-name="quotedblbase" unicode="&#x201e;" horiz-adv-x="350" 
d="M87 -138h-17l56 228h24zM215 -138h-17l58 228h24z" />
    <glyph glyph-name="dagger" unicode="&#x2020;" horiz-adv-x="520" 
d="M272 481v-607h-22v607h-196v20h196v207h22v-207h194v-20h-194z" />
    <glyph glyph-name="daggerdbl" unicode="&#x2021;" horiz-adv-x="520" 
d="M54 481v20h196v207h22v-207h194v-20h-194v-380h194v-20h-194v-207h-22v207h-196v20h196v380h-196z" />
    <glyph glyph-name="bullet" unicode="&#x2022;" horiz-adv-x="500" 
d="M73 354q0 37 14 69t38 56t56 38t69 14t69 -14t56 -38t38 -56t14 -69t-14 -69t-38 -56t-56 -38t-69 -14t-69 14t-56 38t-38 56t-14 69z" />
    <glyph glyph-name="ellipsis" unicode="&#x2026;" horiz-adv-x="1000" 
d="M165 -6q-9 0 -16 7t-7 19q0 11 7 18t16 7t16 -7t7 -18q0 -12 -7.5 -19t-15.5 -7zM835 -6q-9 0 -16 7t-7 19q0 11 7 18t16 7t16 -7t7 -18q0 -12 -7.5 -19t-15.5 -7zM500 -6q-9 0 -16 7t-7 19q0 11 7 18t16 7t16 -7t7 -18q0 -12 -7.5 -19t-15.5 -7z" />
    <glyph glyph-name="perthousand" unicode="&#x2030;" horiz-adv-x="1000" 
d="M334 570q0 -31 -11.5 -58t-31.5 -46.5t-46.5 -30.5t-56.5 -11t-56.5 11t-46 30.5t-31 46.5t-11.5 58t11.5 58t31 47t46 31.5t56.5 11.5t56.5 -11.5t46.5 -31.5t31.5 -47t11.5 -58zM312 570q0 27 -9.5 50.5t-26.5 41t-39.5 27t-48.5 9.5t-48 -9.5t-38.5 -27t-26 -41
t-9.5 -50.5t9.5 -50.5t26 -40.5t38.5 -26.5t48 -9.5t48.5 9.5t39.5 26.5t26.5 40.5t9.5 50.5zM623 141q0 -31 -11.5 -58t-31.5 -46.5t-46.5 -30.5t-56.5 -11t-56.5 11t-46 30.5t-31 46.5t-11.5 58t11.5 58t31 47t46 31.5t56.5 11.5t56.5 -11.5t46.5 -31.5t31.5 -47t11.5 -58
zM601 141q0 27 -9.5 50.5t-26.5 41t-39.5 27t-48.5 9.5t-48 -9.5t-38.5 -27t-26 -41t-9.5 -50.5t9.5 -50.5t26 -40.5t38.5 -26.5t48 -9.5t48.5 9.5t39.5 26.5t26.5 40.5t9.5 50.5zM965 141q0 -31 -11.5 -58t-31.5 -46.5t-46.5 -30.5t-56.5 -11t-56.5 11t-46 30.5t-31 46.5
t-11.5 58t11.5 58t31 47t46 31.5t56.5 11.5t56.5 -11.5t46.5 -31.5t31.5 -47t11.5 -58zM943 141q0 27 -9.5 50.5t-26.5 41t-39.5 27t-48.5 9.5t-48 -9.5t-38.5 -27t-26 -41t-9.5 -50.5t9.5 -50.5t26 -40.5t38.5 -26.5t48 -9.5t48.5 9.5t39.5 26.5t26.5 40.5t9.5 50.5z
M108 -24l-16 11l452 745l16 -11z" />
    <glyph glyph-name="guilsinglleft" unicode="&#x2039;" horiz-adv-x="315" 
d="M205 40l-123 197l122 196l16 -11l-113 -185l114 -185z" />
    <glyph glyph-name="guilsinglright" unicode="&#x203a;" horiz-adv-x="315" 
d="M111 41l-16 11l113 185l-114 185l16 12l123 -197z" />
    <glyph glyph-name="fraction" unicode="&#x2044;" horiz-adv-x="100" 
d="M-178 -27l-16 11l440 752l16 -11z" />
    <glyph glyph-name="Euro" unicode="&#x20ac;" horiz-adv-x="560" 
d="M508 675q-29 17 -61.5 25t-74.5 8q-98 0 -168 -68t-94 -196h342l-7 -19h-338q-2 -15 -3.5 -36.5t-1.5 -40.5q0 -14 0.5 -32.5t2.5 -31.5h297l-6 -19h-289q9 -61 32 -110t57.5 -83.5t78 -53t93.5 -18.5q91 0 150 46l11 -19q-64 -47 -167 -47q-58 0 -105 22t-82 60.5
t-57.5 90.5t-31.5 112h-65l8 19h55q-2 13 -2.5 31.5t-0.5 32.5q0 17 1 39t3 38h-62l6 19h59q13 70 40 123.5t64.5 89t83.5 53.5t98 18q40 0 77.5 -9t65.5 -24l-9 -20v0z" />
    <glyph glyph-name="afii61289" unicode="&#x2113;" horiz-adv-x="500" 
d="M286 -14q-19 0 -37 5.5t-32.5 19t-23 35.5t-8.5 55v164l-61 -71h-2l-10 10l73 83v274q0 83 28 121.5t66 38.5q35 0 58 -29t23 -84q0 -72 -41.5 -155.5t-115.5 -171.5v-177q0 -31 8 -50.5t20.5 -31t27.5 -15.5t29 -4q22 0 45 9.5t43 30.5h2l9 -11q-23 -23 -49 -34.5
t-52 -11.5zM343 605q0 46 -19 72.5t-45 26.5q-14 0 -28 -8t-24.5 -25t-17 -44t-6.5 -66v-258q65 78 102.5 157.5t37.5 144.5z" />
    <glyph glyph-name="trademark" unicode="&#x2122;" horiz-adv-x="1000" 
d="M869 296v391h-2l-169 -391h-13l-166 391h-2v-391h-22v412h37l160 -377l161 377h38v-412h-22zM255 689v-393h-22v393h-133v19h289v-19h-134z" />
    <glyph glyph-name="Omega" unicode="&#x2126;" horiz-adv-x="738" 
d="M364 701q-57 0 -107.5 -21.5t-88 -59.5t-59 -89.5t-21.5 -111.5q0 -47 12 -89.5t35.5 -77.5t58.5 -59t82 -33v-160h-210v20h192v122q-46 13 -81.5 40t-60 64t-37.5 81t-13 92q0 64 23.5 119.5t64 96t95 63.5t115.5 23t115.5 -23t95.5 -63.5t64.5 -96t23.5 -119.5
q0 -48 -13 -92t-37.5 -81t-60 -64t-81.5 -40v-122h192v-20h-210v160q47 9 82 33t58.5 59t35.5 77.5t12 89.5q0 60 -21.5 111.5t-59 89.5t-88 59.5t-108.5 21.5z" />
    <glyph glyph-name="estimated" unicode="&#x212e;" horiz-adv-x="800" 
d="M595 402v193q-82 79 -194 79t-191 -79v-193h385zM210 355v-240q76 -78 192 -78q83 0 144 37.5t112 121.5l46 -28q-30 -48 -61.5 -82t-67.5 -55.5t-78.5 -32t-94.5 -10.5q-78 0 -141 28.5t-108 78.5t-69 116.5t-24 143.5t24 143.5t69 116t108 77.5t141 28q76 0 139.5 -27
t108.5 -75.5t70 -115.5t25 -147h-535z" />
    <glyph glyph-name="partialdiff" unicode="&#x2202;" horiz-adv-x="475" 
d="M401 298q1 22 1.5 41t0.5 41q0 78 -14.5 138.5t-41 102t-63.5 63t-81 21.5q-34 0 -59 -10t-51 -30l-11 16q28 23 56.5 33.5t62.5 10.5q60 0 102 -27t68.5 -74.5t39 -113.5t12.5 -144q0 -111 -17 -178.5t-40 -109.5q-30 -54 -66.5 -74.5t-81.5 -20.5q-39 0 -71.5 17
t-56 47t-37 70t-13.5 86q0 52 14 91.5t38 66t56 39.5t68 13q59 0 108 -31.5t77 -83.5zM397 276q-31 51 -76.5 83.5t-101.5 32.5q-39 0 -68 -16t-48.5 -42.5t-29 -60.5t-9.5 -69q0 -33 9.5 -68t29 -64.5t48.5 -48t68 -18.5q50 0 83.5 28.5t53.5 70t29.5 88.5t11.5 84z" />
    <glyph glyph-name="Delta" unicode="&#x2206;" horiz-adv-x="657" 
d="M39 0l273 712h31l277 -712h-581zM327 693l-260 -673h523z" />
    <glyph glyph-name="product" unicode="&#x220f;" horiz-adv-x="704" 
d="M590 -214v980h-476v-980h-22v1000h520v-1000h-22z" />
    <glyph glyph-name="summation" unicode="&#x2211;" horiz-adv-x="593" 
d="M45 -214v22l339 481l-325 475v22h478v-20h-452l330 -477l-342 -483h475v-20h-503z" />
    <glyph glyph-name="minus" unicode="&#x2212;" 
d="M100 297v19h466v-19h-466z" />
    <glyph glyph-name="uni2215" unicode="&#x2215;" horiz-adv-x="100" 
d="M-178 -27l-16 11l440 752l16 -11z" />
    <glyph glyph-name="uni2219" unicode="&#x2219;" horiz-adv-x="240" 
d="M120 229q-9 0 -16 7t-7 19q0 11 7 18t16 7t16 -7t7 -18q0 -12 -7.5 -19t-15.5 -7z" />
    <glyph glyph-name="radical" unicode="&#x221a;" horiz-adv-x="475" 
d="M230 -215l-168 368l-62 -30l-8 20l81 37l170 -373l205 979h22l-209 -1001h-31z" />
    <glyph glyph-name="infinity" unicode="&#x221e;" horiz-adv-x="722" 
d="M370 234q-17 -20 -38.5 -41t-45 -38.5t-47.5 -29t-47 -11.5q-52 0 -85.5 37t-33.5 97t33.5 96.5t85.5 36.5q23 0 47 -11.5t47.5 -29t45 -39t38.5 -41.5q17 20 38.5 41.5t45 39t47.5 29t47 11.5q52 0 85.5 -36.5t33.5 -96.5t-33.5 -97t-85.5 -37q-23 0 -47 11.5t-47.5 29
t-45 38.5t-38.5 41zM382 246q29 -31 52 -52.5t42.5 -35t37 -20t34.5 -6.5q24 0 42.5 9.5t31 25.5t19 36.5t6.5 42.5q0 23 -6.5 44.5t-19 37.5t-31 25.5t-42.5 9.5q-17 0 -34.5 -6.5t-37 -21t-43 -36.5t-51.5 -53zM358 246q-57 62 -94.5 89.5t-71.5 27.5q-24 0 -42.5 -9.5
t-31 -25.5t-19 -37.5t-6.5 -44.5q0 -22 6.5 -42.5t19 -36.5t31 -25.5t42.5 -9.5q17 0 34.5 6.5t37 20t42.5 35t52 52.5z" />
    <glyph glyph-name="integral" unicode="&#x222b;" horiz-adv-x="535" 
d="M258 71q0 -41 -0.5 -69.5t-1 -48.5t-2 -33t-2.5 -22q-8 -48 -30.5 -75t-58.5 -27q-19 0 -32 7.5t-13 22.5q0 10 6.5 15t13.5 5t12.5 -6t9.5 -14q5 -11 20 -11q25 0 40.5 43.5t15.5 131.5v509q0 40 0.5 69t1 49t1.5 33t3 22q8 48 30.5 75t58.5 27q19 0 32 -7.5t13 -22.5
q0 -10 -6.5 -15t-13.5 -5t-12.5 6t-9.5 14q-5 11 -20 11q-25 0 -40.5 -43t-15.5 -129v-512v0z" />
    <glyph glyph-name="approxequal" unicode="&#x2248;" 
d="M437 328q27 0 45.5 7.5t30 20t17.5 28.5t9 33h18q-2 -21 -9.5 -40.5t-22 -35t-36.5 -25t-53 -9.5q-33 0 -69.5 11t-72.5 23.5t-69.5 23.5t-60.5 11q-29 0 -48 -7.5t-31 -19.5t-18 -28t-9 -33h-18q2 21 9.5 40.5t21.5 34.5t35.5 24.5t51.5 9.5q33 0 69.5 -11t73.5 -23.5
t72 -23.5t64 -11zM437 140q27 0 45.5 7.5t30 20t17.5 28.5t9 33h18q-2 -21 -9.5 -40.5t-22 -35t-36.5 -25t-53 -9.5q-33 0 -69.5 11t-72.5 23.5t-69.5 23.5t-60.5 11q-29 0 -48 -7.5t-31 -19.5t-18 -28t-9 -33h-18q2 21 9.5 40.5t21.5 34.5t35.5 24.5t51.5 9.5
q33 0 69.5 -11t73.5 -23.5t72 -23.5t64 -11z" />
    <glyph glyph-name="notequal" unicode="&#x2260;" 
d="M100 380v19h261l73 147l18 -8l-69 -139h183v-19h-192l-75 -152h267v-19h-277l-85 -172l-17 9l81 163h-168v19h177l75 152h-252z" />
    <glyph glyph-name="lessequal" unicode="&#x2264;" 
d="M100 0v20h466v-20h-466zM100 291v24l466 224v-20l-454 -216l454 -216v-20z" />
    <glyph glyph-name="greaterequal" unicode="&#x2265;" 
d="M100 20h466v-20h-466v20zM100 87l454 216l-454 216v20l466 -224v-24l-466 -224v20z" />
    <glyph glyph-name="lozenge" unicode="&#x25ca;" horiz-adv-x="593" 
d="M307 -35h-24l-161 391l161 391h24l163 -391zM295 733l-151 -377l151 -377l151 377z" />
    <glyph glyph-name="dotlessj" unicode="&#xf6be;" horiz-adv-x="226" 
d="M124 -97q0 -35 -4.5 -62t-17 -45t-34.5 -27.5t-56 -9.5q-7 0 -15 0.5t-14 2.5l4 19q13 -3 25 -3q32 0 50 11t27 28.5t11 39.5t2 44v559h22v-557v0z" />
    <glyph glyph-name="commaaccent" unicode="&#xf6c3;" horiz-adv-x="240" 
d="M92 -230h-17l51 185h24z" />
    <glyph glyph-name="uniF8FF" unicode="&#xf8ff;" horiz-adv-x="876" 
d="M484 664q24 29 55 43.5t52 14.5q0 -67 -46 -119t-110 -52q0 31 14 61q8 17 35 52zM678 237q19 -29 44.5 -51.5t43.5 -27.5q-5 -14 -9 -25t-8 -19q-23 -50 -48 -78q-40 -44 -58 -57q-26 -17 -60 -17q-29 0 -69 17q-38 16 -59 16q-19 0 -75 -22q-30 -11 -48 -11
q-49 0 -103 58q-22 23 -44 56q-41 60 -61 115.5t-20 127.5q0 88 54 159q58 76 146 76q42 0 71 -12q63 -26 78 -26q27 0 57 12q66 26 90 26q58 0 90 -23q15 -12 60 -64q-42 -19 -67 -59.5t-25 -86.5q0 -55 20 -84z" />
    <glyph glyph-name="thorn.sc" horiz-adv-x="454" 
d="M102 0v520h22v-100h122q31 0 60.5 -6.5t52.5 -21.5t37 -40.5t14 -63.5t-14 -63.5t-37 -40.5t-52.5 -21t-60.5 -6h-122v-157h-22zM238 177q30 0 57 5t47.5 18t33 34.5t12.5 53.5t-12.5 53.5t-33 34.5t-47.5 18.5t-57 5.5h-114v-223h114z" />
    <glyph glyph-name="cent.sc" horiz-adv-x="464" 
d="M293 6q37 1 72 14t61 38l15 -14q-29 -29 -68.5 -42.5t-79.5 -14.5v-59h-22v59q-47 3 -87 22t-69 51t-45 75t-16 94t16 94t45 75.5t68.5 52t87.5 22.5v67h22v-67q42 -1 80.5 -17t65.5 -44l-17 -15q-26 26 -59.5 41t-69.5 16v-448zM271 454q-45 -3 -81 -22t-61.5 -50
t-39 -70.5t-13.5 -82.5t13.5 -82t39 -69.5t61.5 -49.5t81 -22v448z" />
    <glyph glyph-name="ordfeminine.sc" horiz-adv-x="350" 
d="M302 431l-34 76h-184l-36 -76h-20l136 291h27l132 -291h-21zM178 709l-88 -186h172z" />
    <glyph glyph-name="florin.sc" horiz-adv-x="464" 
d="M407 494q-10 8 -26.5 13t-30.5 5q-23 0 -39.5 -8.5t-28 -23t-18 -33t-9.5 -38.5l-24 -135h97v-19h-100l-43 -235q-8 -45 -29.5 -75.5t-69.5 -30.5q-14 0 -33 4t-31 11l10 19q12 -6 27 -10t27 -4q41 0 57.5 30t25.5 81l37 210h-88v19h91l23 129q5 27 13 50.5t21.5 40.5
t33.5 27t49 10q21 0 39.5 -5.5t30.5 -13.5z" />
    <glyph glyph-name="questiondown.sc" horiz-adv-x="290" 
d="M86 242q15 16 24.5 29.5t15 27t7.5 28t2 32.5v37h22v-44q0 -26 -9 -53.5t-34 -56.5q-14 -16 -25 -29t-19 -26.5t-12 -30t-4 -39.5q0 -53 22 -81t60 -28q40 0 62.5 28t29.5 76l22 -4q-8 -58 -38 -90t-78 -32q-50 0 -76.5 34.5t-26.5 95.5q0 49 17 76t38 50zM142 554
q8 0 14.5 -6.5t6.5 -15.5q0 -11 -6.5 -17t-14.5 -6t-14.5 6t-6.5 17q0 9 6.5 15.5t14.5 6.5z" />
    <glyph glyph-name="ampersand.sc" horiz-adv-x="595" 
d="M488 0l-80 86q-63 -100 -165 -100q-31 0 -58 9.5t-47 28t-31.5 45.5t-11.5 61q0 57 34.5 94.5t88.5 63.5q-20 22 -32.5 39.5t-20 33t-10.5 30t-3 30.5q0 48 32.5 80.5t83.5 32.5t81.5 -30t30.5 -72q0 -48 -31.5 -81.5t-97.5 -68.5l153 -162l80 150h24l-89 -164l98 -106
h-29zM358 429q0 39 -26 62.5t-66 23.5q-38 0 -65 -26t-27 -67q0 -33 15.5 -61.5t48.5 -64.5q62 31 91 63.5t29 69.5zM231 274q-23 -11 -44 -25t-36.5 -31.5t-24.5 -39t-9 -48.5q0 -30 10 -53t27.5 -39t41 -24.5t50.5 -8.5q47 0 83.5 25t63.5 72z" />
    <glyph glyph-name="percent.sc" horiz-adv-x="691" 
d="M311 415q0 -26 -9.5 -47.5t-25.5 -37.5t-37.5 -25t-45.5 -9t-45.5 9t-37 25t-25 37.5t-9.5 47.5q0 25 9.5 46.5t25 37.5t37 25.5t45.5 9.5t45.5 -9.5t37.5 -25.5t25.5 -37.5t9.5 -46.5zM289 415q0 21 -7.5 39t-20.5 31.5t-30.5 21t-37.5 7.5q-40 0 -67.5 -28.5
t-27.5 -70.5q0 -44 27.5 -71.5t67.5 -27.5q41 0 68.5 27.5t27.5 71.5zM615 105q0 -26 -9.5 -47.5t-25.5 -37.5t-37.5 -25t-45.5 -9t-45.5 9t-37 25t-25 37.5t-9.5 47.5q0 25 9.5 46.5t25 37.5t37 25.5t45.5 9.5t45.5 -9.5t37.5 -25.5t25.5 -37.5t9.5 -46.5zM593 105
q0 21 -7.5 39t-20.5 31.5t-30.5 21t-37.5 7.5q-40 0 -67.5 -28.5t-27.5 -70.5q0 -44 27.5 -71.5t67.5 -27.5q41 0 68.5 27.5t27.5 71.5zM187 -27l-18 10l330 565l18 -11z" />
    <glyph glyph-name="dollar.sc" horiz-adv-x="464" 
d="M241 -51h-21v51q-39 2 -75.5 17t-63.5 46l15 14q25 -29 57.5 -43t66.5 -15v235q-28 9 -51.5 20.5t-41 27.5t-27 38t-9.5 53q0 28 10.5 50t28.5 38.5t41 26t49 12.5v52h21v-52q45 0 79 -16t52 -39l-15 -14q-18 24 -49 37t-67 13v-230q30 -10 56 -21.5t44.5 -27.5t29.5 -38
t11 -53q0 -61 -40.5 -94.5t-100.5 -36.5v-51zM241 19q25 1 46.5 8.5t38 22t26 35t9.5 47.5t-10 45.5t-26.5 32t-38 22.5t-45.5 17v-230zM220 501q-19 -2 -38 -10t-34.5 -21.5t-25.5 -33t-10 -44.5q0 -26 8.5 -44.5t23.5 -32t34.5 -22.5t41.5 -16v224z" />
    <glyph glyph-name="exclam.sc" horiz-adv-x="250" 
d="M136 520v-384h-22v384h22zM125 45q9 0 16 -7t7 -19q0 -11 -6.5 -18t-16.5 -7t-16.5 7t-6.5 18q0 12 6.5 19t16.5 7z" />
    <glyph glyph-name="zero.sc" horiz-adv-x="464" 
d="M232 -14q-50 0 -82.5 25.5t-51.5 65t-26 87.5t-7 93q0 46 7 95t26 89.5t51.5 66.5t82.5 26t82.5 -26t51 -66.5t26 -89.5t7.5 -95q0 -45 -7.5 -93t-26 -87.5t-51 -65t-82.5 -25.5zM232 514q-31 0 -54 -13.5t-39 -35t-26 -49.5t-16 -56.5t-8 -55.5t-2 -47q0 -30 5 -73
t20.5 -82.5t44 -67.5t75.5 -28t75.5 28t44 67.5t20.5 82.5t5 73q0 20 -2 47t-7.5 55.5t-15.5 56.5t-26.5 49.5t-39.5 35t-54 13.5z" />
    <glyph glyph-name="one.sc" horiz-adv-x="464" 
d="M243 0v492l-110 -93l-13 17l124 104h21v-520h-22z" />
    <glyph glyph-name="two.sc" horiz-adv-x="464" 
d="M96 0v25l185 213q40 47 63.5 85t23.5 77q0 54 -33 84t-82 30q-42 0 -73.5 -23.5t-45.5 -68.5l-21 8q14 49 51.5 76.5t88.5 27.5q62 0 99.5 -36t37.5 -96q0 -23 -6 -43.5t-18.5 -42t-30.5 -45t-42 -51.5l-173 -200h275v-20h-299z" />
    <glyph glyph-name="three.sc" horiz-adv-x="464" 
d="M203 281q24 0 48.5 7t43.5 22t31 37.5t12 53.5q0 50 -34 81.5t-84 31.5q-35 0 -63 -15t-48 -43l-19 12q22 30 55 48t75 18q30 0 55.5 -9t44.5 -26.5t29.5 -42t10.5 -55.5q0 -44 -26.5 -81t-82.5 -47v-2q33 -5 57 -17.5t39.5 -31t23 -40.5t7.5 -46q0 -30 -9.5 -57t-29 -48
t-49.5 -33t-70 -12q-21 0 -44 4.5t-45 15t-41 29t-32 47.5l22 10q21 -48 60.5 -67t79.5 -19q34 0 59.5 10.5t42.5 28t25.5 41t8.5 49.5q0 33 -14 57t-36 39t-49 22.5t-54 7.5h-19v20h19z" />
    <glyph glyph-name="four.sc" horiz-adv-x="464" 
d="M319 134v-134h-22v134h-247v23l239 363h30v-366h85v-20h-85zM297 493h-2l-222 -339h224v339z" />
    <glyph glyph-name="five.sc" horiz-adv-x="464" 
d="M381 158q0 -41 -14 -73t-37.5 -54t-54.5 -33.5t-66 -11.5q-54 0 -91 19.5t-60 53.5l20 13q20 -32 53 -49t78 -17q29 0 56 10t48 29.5t33.5 47.5t12.5 64q0 63 -40 103.5t-116 40.5q-27 0 -55 -8t-52 -22l6 249h256v-20h-235l-6 -199q22 11 45.5 15.5t45.5 4.5
q76 0 124.5 -42.5t48.5 -120.5z" />
    <glyph glyph-name="six.sc" horiz-adv-x="464" 
d="M69 147q0 33 14 69.5t39 75.5l143 228h26l-161 -251l2 -2q25 21 51 30.5t58 9.5q33 0 61.5 -12t50 -33t33.5 -50.5t12 -64.5q0 -34 -12 -63.5t-33.5 -51t-51.5 -34t-67 -12.5q-36 0 -66.5 12t-52.5 33.5t-34 51t-12 64.5zM91 147q0 -30 10.5 -56t29.5 -44.5t45 -29.5
t58 -11q31 0 57.5 11t45 29.5t29 44.5t10.5 56q0 29 -10 54.5t-28 44.5t-43.5 30t-56.5 11q-30 0 -56.5 -10t-46.5 -28.5t-32 -44.5t-12 -57z" />
    <glyph glyph-name="seven.sc" horiz-adv-x="464" 
d="M381 495l-216 -495h-24l219 500h-264v20h285v-25z" />
    <glyph glyph-name="eight.sc" horiz-adv-x="464" 
d="M392 135q0 -34 -12.5 -61.5t-34 -47t-50.5 -30t-63 -10.5q-33 0 -62.5 10.5t-51 30t-34 47t-12.5 61.5q0 46 26.5 86t83.5 56v2q-48 17 -68.5 51.5t-20.5 70.5q0 29 10.5 53.5t29 42t44 27.5t55.5 10t56 -10t44.5 -27.5t29 -42t10.5 -53.5q0 -36 -20 -70.5t-68 -51.5v-2
q57 -17 82.5 -56.5t25.5 -85.5zM350 401q0 48 -32 80.5t-86 32.5t-85.5 -32.5t-31.5 -80.5q0 -22 8 -42.5t23 -36.5t36.5 -25.5t49.5 -9.5q52 0 85 32.5t33 81.5zM370 136q0 28 -11 52.5t-29.5 41.5t-44 27t-53.5 10t-53 -10t-44 -27t-30 -41.5t-11 -52.5q0 -27 10 -50.5
t28 -41.5t43.5 -28t56.5 -10t56.5 10t43.5 28t28 41.5t10 50.5z" />
    <glyph glyph-name="nine.sc" horiz-adv-x="464" 
d="M398 373q0 -33 -14 -69.5t-39 -75.5l-143 -228h-26l162 254l-2 2q-25 -21 -50.5 -30.5t-57.5 -9.5t-60.5 12t-49.5 33t-33 50t-12 64q0 33 12 62t33 50.5t51 34t66 12.5t65.5 -12t51.5 -33.5t34 -51t12 -64.5zM376 375q0 30 -10.5 55t-29 44t-44.5 29.5t-57 10.5
t-57 -10.5t-44.5 -29.5t-28.5 -44t-10 -55q0 -29 9.5 -54.5t27.5 -44t43 -29.5t56 -11q29 0 55.5 10t46.5 28.5t31.5 44t11.5 56.5z" />
    <glyph glyph-name="zero.onum" horiz-adv-x="673" 
d="M606 261q0 -60 -19.5 -110.5t-55.5 -87t-85.5 -57t-109.5 -20.5q-59 0 -108.5 20.5t-85 57t-55.5 87t-20 110.5t20 110.5t55.5 86.5t85 56t108.5 20q60 0 109.5 -20t85.5 -56t55.5 -86.5t19.5 -110.5zM584 261q0 52 -17 98.5t-49.5 80.5t-78.5 54t-103 20t-103 -20
t-78 -54t-49 -80.5t-17 -98.5q0 -53 17 -99t49 -81t78 -55t103 -20t103 20t78.5 55t49.5 81t17 99z" />
    <glyph glyph-name="one.onum" horiz-adv-x="350" 
d="M178 0v492l-110 -93l-13 17l124 104h21v-520h-22z" />
    <glyph glyph-name="two.onum" horiz-adv-x="520" 
d="M66 0v25l136 99q51 36 89 66.5t63.5 60t38 60t12.5 66.5q0 33 -12 58.5t-32 43t-47.5 26.5t-57.5 9q-51 0 -93 -26t-62 -80l-20 6q23 60 67.5 90t107.5 30q36 0 67 -10.5t54.5 -30.5t36.5 -49t13 -67q0 -37 -12.5 -68.5t-39 -63t-67 -65t-96.5 -73.5l-116 -84v-3h346v-20
h-376z" />
    <glyph glyph-name="three.onum" horiz-adv-x="520" 
d="M423 489q-25 -23 -58 -51.5t-69 -59t-73 -61.5t-71 -59l1 -3q17 5 32.5 6.5t30.5 1.5q40 0 79 -12t70 -37t50.5 -63.5t19.5 -90.5q0 -62 -22 -105.5t-58 -71t-82.5 -40.5t-95.5 -13q-23 0 -49.5 2.5t-49.5 7.5l4 22q23 -6 48.5 -9t46.5 -3q45 0 87.5 11t75.5 36t53 65
t20 97q0 48 -17.5 82.5t-46 57t-64 33.5t-71.5 11q-23 0 -50.5 -4t-53.5 -13l-7 17q33 26 75 61t84 70.5t79.5 68t61.5 54.5v3h-327v20h347v-31v0z" />
    <glyph glyph-name="four.onum" horiz-adv-x="550" 
d="M76 32h295v293h22v-293h122v-20h-122v-182h-22v182h-320v21l299 501h24z" />
    <glyph glyph-name="five.onum" horiz-adv-x="520" 
d="M219 231q-32 0 -64.5 -8t-55.5 -19l33 316h298v-20h-280l-27 -267q18 8 45.5 13t50.5 5q43 0 82 -11.5t69 -35.5t48 -61t18 -88q0 -59 -20 -101.5t-54 -70t-78.5 -40.5t-92.5 -13q-26 0 -55.5 3t-52.5 8l4 22q23 -6 49 -9.5t55 -3.5q48 0 89 13t70.5 39t46.5 64t17 89
q0 47 -16.5 80.5t-44 54.5t-62.5 31t-72 10z" />
    <glyph glyph-name="six.onum" horiz-adv-x="560" 
d="M92 201q0 -42 14 -77.5t39 -61.5t59.5 -40.5t75.5 -14.5t75.5 14.5t59.5 40.5t39 61.5t14 77.5t-13 78t-37 62.5t-57.5 41.5t-75.5 15q-39 0 -74 -14.5t-61.5 -40.5t-42 -62.5t-15.5 -79.5zM396 697q-43 -38 -85.5 -82.5t-80 -92.5t-67.5 -96.5t-48 -93.5l2 -1
q32 42 75.5 64.5t94.5 22.5q46 0 83.5 -16.5t64 -45.5t41 -69t14.5 -86t-15.5 -85t-43.5 -67.5t-67 -44.5t-85 -16t-84.5 15.5t-66 44t-43 67.5t-15.5 86q0 73 32 146.5t79.5 140.5t101 124t96.5 98z" />
    <glyph glyph-name="seven.onum" horiz-adv-x="510" 
d="M450 500q-40 -84 -83 -176.5t-84 -183t-77.5 -174.5t-63.5 -150l-21 7q18 43 42 98t51.5 116t56.5 125t57.5 125t54 116t46.5 97h-369v20h390v-20v0z" />
    <glyph glyph-name="eight.onum" horiz-adv-x="560" 
d="M489 188q0 -46 -16 -83t-43.5 -63t-66 -40t-83.5 -14t-83.5 14t-66 40t-43.5 63t-16 83q0 31 9 60.5t27.5 55t46.5 45t66 30.5v2q-63 24 -92.5 70.5t-29.5 95.5q0 39 14 70.5t38 54.5t57.5 35.5t72.5 12.5t72.5 -12.5t57.5 -35.5t38 -54.5t14 -70.5q0 -49 -29.5 -96
t-92.5 -70v-2q39 -12 67.5 -32t46.5 -45t26.5 -54t8.5 -60zM441 547q0 34 -12.5 62.5t-34.5 49t-51 31.5t-63 11t-63.5 -11t-51 -31.5t-34 -49t-12.5 -62.5q0 -32 12 -60.5t33.5 -50.5t51 -35t64.5 -13t64.5 13t51 35t33.5 50.5t12 60.5zM467 188q0 40 -14.5 73.5t-40 58
t-59.5 38t-73 13.5t-73 -13.5t-59.5 -38t-40 -58t-14.5 -73.5q0 -38 13.5 -71t38 -57.5t59 -38.5t76.5 -14t76.5 14t59 38.5t38 57.5t13.5 71z" />
    <glyph glyph-name="nine.onum" horiz-adv-x="560" 
d="M468 321q0 42 -14 77.5t-39 61.5t-59.5 40.5t-75.5 14.5t-75.5 -14.5t-59.5 -40.5t-39 -61.5t-14 -77.5t13 -78t37 -62.5t57.5 -41.5t75.5 -15q39 0 74 14.5t61.5 40.5t42 62t15.5 80zM164 -171q43 36 85.5 80t80 91.5t67.5 96t48 93.5l-2 1q-32 -42 -75.5 -64.5
t-94.5 -22.5q-46 0 -83.5 16.5t-64 45.5t-41 68.5t-14.5 86.5q0 46 15.5 85t43.5 67.5t67 44.5t85 16t84.5 -15.5t66 -44t43 -67.5t15.5 -86q0 -49 -15 -98t-40 -96.5t-57 -92t-66.5 -84.5t-68.5 -74t-62 -60z" />
    <glyph glyph-name="Euro.sc" horiz-adv-x="464" 
d="M391 490q-22 12 -46 18t-53 6q-34 0 -65 -12t-57 -35t-44.5 -57t-27.5 -79h249l-7 -19h-245q-2 -14 -3 -30t-1 -25q0 -10 0.5 -22t2.5 -26h219l-6 -19h-210q13 -85 64 -134.5t128 -49.5q33 0 59.5 7.5t50.5 23.5l11 -18q-23 -15 -54.5 -24t-68.5 -9q-43 0 -79 15
t-63.5 42t-45.5 64.5t-25 82.5h-49l6 19h40q-2 14 -2 24.5v21.5q0 13 1 29t3 28h-49l6 19h46q10 51 30.5 89.5t49 63.5t63.5 37.5t74 12.5q30 0 58 -7t49 -18l-9 -19v0z" />
    <glyph glyph-name="sterling.sc" horiz-adv-x="464" 
d="M299 280v-19h-124v-241h181v-20h-283v20h80v241h-72v19h72v102q0 69 33 110.5t99 41.5q26 0 48 -8.5t39 -22.5l-14 -16q-32 27 -73 27q-57 0 -83.5 -37t-26.5 -99v-98h124z" />
    <glyph glyph-name="yen.sc" horiz-adv-x="464" 
d="M85 255v19h128l-173 246h26l167 -242l167 242h24l-171 -246h127v-19h-137v-91h137v-19h-137v-145h-22v145h-136v19h136v91h-136z" />
    <glyph glyph-name="perthousand.sc" horiz-adv-x="965" 
d="M311 415q0 -26 -9.5 -47.5t-25.5 -37.5t-37.5 -25t-45.5 -9t-45.5 9t-37 25t-25 37.5t-9.5 47.5q0 25 9.5 46.5t25 37.5t37 25.5t45.5 9.5t45.5 -9.5t37.5 -25.5t25.5 -37.5t9.5 -46.5zM289 415q0 21 -7.5 39t-20.5 31.5t-30.5 21t-37.5 7.5q-40 0 -67.5 -28.5
t-27.5 -70.5q0 -44 27.5 -71.5t67.5 -27.5q41 0 68.5 27.5t27.5 71.5zM615 105q0 -26 -9.5 -47.5t-25.5 -37.5t-37.5 -25t-45.5 -9t-45.5 9t-37 25t-25 37.5t-9.5 47.5q0 25 9.5 46.5t25 37.5t37 25.5t45.5 9.5t45.5 -9.5t37.5 -25.5t25.5 -37.5t9.5 -46.5zM593 105
q0 21 -7.5 39t-20.5 31.5t-30.5 21t-37.5 7.5q-40 0 -67.5 -28.5t-27.5 -70.5q0 -44 27.5 -71.5t67.5 -27.5q41 0 68.5 27.5t27.5 71.5zM903 105q0 -26 -9.5 -47.5t-25.5 -37.5t-37.5 -25t-45.5 -9t-45.5 9t-37 25t-25 37.5t-9.5 47.5q0 25 9.5 46.5t25 37.5t37 25.5
t45.5 9.5t45.5 -9.5t37.5 -25.5t25.5 -37.5t9.5 -46.5zM881 105q0 21 -7.5 39t-20.5 31.5t-30.5 21t-37.5 7.5q-40 0 -67.5 -28.5t-27.5 -70.5q0 -44 27.5 -71.5t67.5 -27.5q41 0 68.5 27.5t27.5 71.5zM187 -27l-18 10l330 565l18 -11z" />
    <glyph glyph-name="question.sc" horiz-adv-x="290" 
d="M204 307q-15 -16 -24.5 -29.5t-15 -27t-7.5 -28t-2 -32.5v-37h-22v44q0 26 9 53.5t34 56.5q14 16 25 29t19 26.5t12 30t4 39.5q0 53 -22 81t-60 28q-40 0 -62.5 -28t-29.5 -76l-22 4q8 58 38 90t78 32q50 0 76.5 -34.5t26.5 -95.5q0 -25 -4.5 -43.5t-12.5 -33t-18 -26
t-20 -23.5zM148 -5q-8 0 -14.5 6.5t-6.5 15.5q0 11 6.5 17t14.5 6t14.5 -6t6.5 -17q0 -9 -6.5 -15.5t-14.5 -6.5z" />
    <glyph glyph-name="exclamdown.sc" horiz-adv-x="250" 
d="M114 384h22v-384h-22v384zM125 475q-10 0 -16.5 7t-6.5 19q0 11 6.5 18t16.5 7t16.5 -7t6.5 -18q0 -12 -7 -19t-16 -7z" />
    <glyph glyph-name="a.sc" horiz-adv-x="513" 
d="M465 0l-59 145h-296l-63 -145h-23l225 520h22l218 -520h-24zM260 497l-142 -332h279z" />
    <glyph glyph-name="b.sc" horiz-adv-x="488" 
d="M428 138q0 -40 -15.5 -66.5t-40 -42.5t-55 -22.5t-60.5 -6.5h-155v520h143q28 0 56.5 -6.5t51 -21.5t37 -39t14.5 -59q0 -28 -9 -49t-23 -35t-32 -23t-37 -13v-2q20 -2 42 -10.5t40.5 -25t30.5 -41t12 -57.5zM382 393q0 30 -11.5 50.5t-31.5 33t-46 18t-54 5.5h-115v-219
h125q25 0 49 6.5t42.5 20t30 34.5t11.5 51zM406 137q0 34 -13 57.5t-33.5 38.5t-46.5 21.5t-52 6.5h-137v-241h126q33 0 61.5 6.5t49.5 21t33 36.5t12 53z" />
    <glyph glyph-name="c.sc" horiz-adv-x="554" 
d="M512 61q-33 -35 -80.5 -55t-106.5 -20q-58 0 -106.5 20.5t-84 57t-55 87t-19.5 109.5t19.5 109.5t55 87t84 57t106.5 20.5q50 0 96.5 -16.5t80.5 -49.5l-16 -15q-29 30 -73.5 45t-87.5 15q-54 0 -99 -20t-77 -54t-49.5 -80.5t-17.5 -98.5t17.5 -98.5t49 -81t76.5 -54.5
t100 -20q52 0 96.5 19t75.5 52z" />
    <glyph glyph-name="d.sc" horiz-adv-x="594" 
d="M534 258q0 -67 -22.5 -115.5t-60.5 -80t-90 -47t-110 -15.5h-149v520h149q58 0 109.5 -15.5t90 -47.5t61 -81.5t22.5 -117.5zM124 500v-480h122q57 0 106 15t84.5 44.5t55.5 74t20 104.5t-20 105.5t-55.5 75.5t-84.5 45.5t-106 15.5h-122z" />
    <glyph glyph-name="e.sc" horiz-adv-x="477" 
d="M102 0v520h304v-20h-282v-220h265v-20h-265v-240h293v-20h-315z" />
    <glyph glyph-name="f.sc" horiz-adv-x="449" 
d="M124 500v-224h256v-20h-256v-256h-22v520h297v-20h-275z" />
    <glyph glyph-name="g.sc" horiz-adv-x="611" 
d="M519 32q-32 -18 -79.5 -32t-107.5 -14q-61 0 -111 21t-86 58t-55.5 87.5t-19.5 108.5t20 108t55.5 87t85 57.5t109.5 20.5q54 0 99 -16.5t77 -45.5l-16 -16q-29 29 -73 43t-88 14q-56 0 -101.5 -20t-78 -54t-50 -80t-17.5 -98t17 -98t49.5 -81t79 -55.5t105.5 -20.5
q51 0 91.5 11t72.5 28v194h-132v20h154v-227v0z" />
    <glyph glyph-name="h.sc" horiz-adv-x="584" 
d="M460 0v257h-336v-257h-22v520h22v-243h336v243h22v-520h-22z" />
    <glyph glyph-name="i.sc" horiz-adv-x="226" 
d="M102 0v520h22v-520h-22z" />
    <glyph glyph-name="j.sc" horiz-adv-x="374" 
d="M280 140q0 -68 -33 -111t-100 -43q-26 0 -46.5 7.5t-36 19.5t-26 28t-16.5 33l19 9q14 -34 40 -55t65 -21q30 0 51.5 11t35 29.5t19.5 44t6 55.5v373h22v-380z" />
    <glyph glyph-name="k.sc" horiz-adv-x="454" 
d="M126 282l261 238h31l-265 -239l277 -281h-31l-273 278h-2v-278h-22v520h22v-238h2z" />
    <glyph glyph-name="l.sc" horiz-adv-x="390" 
d="M102 0v520h22v-500h254v-20h-276z" />
    <glyph glyph-name="m.sc" horiz-adv-x="710" 
d="M586 0v493h-3l-219 -493h-18l-220 493h-2v-493h-22v520h37l216 -488l216 488h37v-520h-22z" />
    <glyph glyph-name="n.sc" horiz-adv-x="610" 
d="M478 0l-352 490h-2v-490h-22v520h30l352 -490h2v490h22v-520h-30z" />
    <glyph glyph-name="o.sc" horiz-adv-x="659" 
d="M599 261q0 -60 -19.5 -110.5t-55.5 -87t-85.5 -57t-109.5 -20.5q-59 0 -108.5 20.5t-85 57t-55.5 87t-20 110.5t20 110.5t55.5 86.5t85 56t108.5 20q60 0 109.5 -20t85.5 -56t55.5 -86.5t19.5 -110.5zM577 261q0 52 -17 98.5t-49.5 80.5t-78.5 54t-103 20t-103 -20
t-78 -54t-49 -80.5t-17 -98.5q0 -53 17 -99t49 -81t78 -55t103 -20t103 20t78.5 55t49.5 81t17 99z" />
    <glyph glyph-name="p.sc" horiz-adv-x="455" 
d="M411 379q0 -35 -12.5 -62t-34 -45t-50 -27.5t-60.5 -9.5h-130v-235h-22v520h149q31 0 60 -7.5t51 -24.5t35.5 -43.5t13.5 -65.5zM389 379q0 33 -11.5 56t-30.5 37.5t-44 21t-52 6.5h-127v-245h130q27 0 51.5 7.5t43 22.5t29.5 38.5t11 55.5z" />
    <glyph glyph-name="q.sc" horiz-adv-x="659" 
d="M590 267q0 -45 -13.5 -85t-36.5 -72.5t-54 -55t-66 -32.5v-2h199v-20h-295q-54 0 -102 19.5t-84 54.5t-57 84t-21 109q0 58 20 107t55 84.5t84 55.5t106 20t105.5 -20t84 -56t55.5 -85t20 -106zM568 267q0 50 -18 95t-50 78.5t-76.5 53t-98.5 19.5t-98.5 -19.5
t-76.5 -52.5t-50 -78t-18 -96t18 -95.5t50 -78.5t76.5 -53.5t98.5 -19.5q55 0 100 21t77 55.5t49 79t17 91.5z" />
    <glyph glyph-name="r.sc" horiz-adv-x="478" 
d="M393 0l-151 257h-118v-257h-22v520h140q31 0 61 -6.5t54 -22t38.5 -41t14.5 -63.5q0 -34 -12.5 -58t-33 -39t-46.5 -22.5t-53 -9.5l153 -258h-25zM388 387q0 32 -12.5 54t-33 35t-47.5 18.5t-57 5.5h-114v-223h120q70 0 107 28t37 82z" />
    <glyph glyph-name="s.sc" horiz-adv-x="416" 
d="M362 126q0 -34 -13 -60t-34.5 -44t-50.5 -27t-60 -9q-48 0 -88 17t-66 48l17 15q26 -29 61.5 -44t74.5 -15q27 0 52 7.5t43.5 22.5t30 37t11.5 51q0 30 -11.5 50t-31 34t-44 23.5t-49.5 17.5q-31 10 -57.5 21t-46 27.5t-30.5 39.5t-11 56t13 59t35 44t51 27.5t61 9.5
q42 0 77 -15.5t57 -43.5l-17 -15q-20 26 -50.5 39.5t-67.5 13.5q-26 0 -50.5 -7.5t-43.5 -22.5t-31 -37t-12 -51t11 -49t28.5 -34t40 -23.5t45.5 -16.5q33 -11 61.5 -22.5t49.5 -28t33 -39.5t12 -56z" />
    <glyph glyph-name="t.sc" horiz-adv-x="403" 
d="M213 500v-500h-22v500h-176v20h373v-20h-175z" />
    <glyph glyph-name="u.sc" horiz-adv-x="580" 
d="M486 196q0 -42 -10.5 -80t-33.5 -67t-60.5 -46t-91.5 -17t-91.5 17t-60.5 46t-33.5 67t-10.5 80v324h22v-322q0 -38 9 -72.5t30 -60.5t54 -42t81 -16t81 16t54 42t30 60.5t9 72.5v322h22v-324z" />
    <glyph glyph-name="v.sc" horiz-adv-x="467" 
d="M247 0h-32l-195 520h24l187 -500h2l190 500h24z" />
    <glyph glyph-name="w.sc" horiz-adv-x="743" 
d="M553 0h-33l-149 499h-2l-147 -499h-33l-155 520h23l148 -500h2l146 500h34l149 -500h2l148 500h23z" />
    <glyph glyph-name="x.sc" horiz-adv-x="438" 
d="M389 0l-170 254l-170 -254h-25l182 271l-166 249h25l154 -232l154 232h25l-166 -249l182 -271h-25z" />
    <glyph glyph-name="y.sc" horiz-adv-x="408" 
d="M215 226v-226h-22v226l-179 294h25l166 -274l164 274h25z" />
    <glyph glyph-name="z.sc" horiz-adv-x="450" 
d="M42 0v23l338 477h-325v20h348v-24l-337 -476h342v-20h-366z" />
    <glyph glyph-name="aacute.sc" horiz-adv-x="513" 
d="M465 0l-59 145h-296l-63 -145h-23l225 520h22l218 -520h-24zM260 497l-142 -332h279zM270 564h-19l103 144h27z" />
    <glyph glyph-name="acircumflex.sc" horiz-adv-x="513" 
d="M465 0l-59 145h-296l-63 -145h-23l225 520h22l218 -520h-24zM260 497l-142 -332h279zM274 708l103 -144h-23l-94 132l-94 -132h-23l103 144h28z" />
    <glyph glyph-name="adieresis.sc" horiz-adv-x="513" 
d="M465 0l-59 145h-296l-63 -145h-23l225 520h22l218 -520h-24zM260 497l-142 -332h279zM183 633q-9 0 -16 7t-7 19q0 11 7 18t16 7t16 -7t7 -18q0 -12 -7.5 -19t-15.5 -7zM337 633q-9 0 -16 7t-7 19q0 11 7 18t16 7t16 -7t7 -18q0 -12 -7.5 -19t-15.5 -7z" />
    <glyph glyph-name="aring.sc" horiz-adv-x="513" 
d="M465 0l-59 145h-296l-63 -145h-23l225 520h22l218 -520h-24zM260 497l-142 -332h279zM355 650q0 -20 -7.5 -37.5t-21 -30.5t-31 -20t-36.5 -7q-20 0 -37 7t-30.5 20t-21 30.5t-7.5 37.5t7.5 37.5t21 30t30.5 20t37 7.5q19 0 36.5 -7.5t31 -20t21 -30t7.5 -37.5zM336 650
q0 32 -22.5 55t-54.5 23t-54.5 -23t-22.5 -55t22.5 -55t54.5 -23t54.5 23t22.5 55z" />
    <glyph glyph-name="amacron.sc" horiz-adv-x="513" 
d="M465 0l-59 145h-296l-63 -145h-23l225 520h22l218 -520h-24zM260 497l-142 -332h279zM144 621v20h232v-20h-232z" />
    <glyph glyph-name="ae.sc" horiz-adv-x="740" 
d="M365 0v155h-232l-101 -155h-26l338 520h325v-20h-282v-220h265v-20h-265v-240h293v-20h-315zM146 175h219v325h-10z" />
    <glyph glyph-name="agrave.sc" horiz-adv-x="513" 
d="M465 0l-59 145h-296l-63 -145h-23l225 520h22l218 -520h-24zM260 497l-142 -332h279zM166 708l103 -144h-19l-111 144h27z" />
    <glyph glyph-name="atilde.sc" horiz-adv-x="513" 
d="M465 0l-59 145h-296l-63 -145h-23l225 520h22l218 -520h-24zM260 497l-142 -332h279zM263 638q13 -8 22 -13t15.5 -7.5t11 -3t10.5 -0.5q33 0 40 48h16q-4 -36 -20 -51.5t-36 -15.5q-16 0 -28.5 5t-35.5 19q-26 16 -37 20t-22 4q-32 0 -40 -51h-16q4 36 20 53t36 17
q16 0 29 -5t35 -19z" />
    <glyph glyph-name="aogonek.sc" horiz-adv-x="513" 
d="M489 0q-46 -46 -69.5 -76.5t-23.5 -64.5q0 -30 18 -47t47 -17q20 0 38.5 8t30.5 21l10 -16q-16 -14 -37.5 -22.5t-44.5 -8.5q-35 0 -59.5 21t-24.5 59q0 39 27.5 73.5t63.5 69.5l-59 145h-296l-63 -145h-23l225 520h22zM260 497l-142 -332h279z" />
    <glyph glyph-name="abreve.sc" horiz-adv-x="513" 
d="M465 0l-59 145h-296l-63 -145h-23l225 520h22l218 -520h-24zM260 497l-142 -332h279zM386 698q-10 -61 -43.5 -93.5t-83.5 -32.5q-49 0 -82.5 32.5t-41.5 93.5h19q10 -52 38 -79t67 -27q45 0 71 25t38 81h18z" />
    <glyph glyph-name="cacute.sc" horiz-adv-x="554" 
d="M512 61q-33 -35 -80.5 -55t-106.5 -20q-58 0 -106.5 20.5t-84 57t-55 87t-19.5 109.5t19.5 109.5t55 87t84 57t106.5 20.5q50 0 96.5 -16.5t80.5 -49.5l-16 -15q-29 30 -73.5 45t-87.5 15q-54 0 -99 -20t-77 -54t-49.5 -80.5t-17.5 -98.5t17.5 -98.5t49 -81t76.5 -54.5
t100 -20q52 0 96.5 19t75.5 52zM293 564h-19l103 144h27z" />
    <glyph glyph-name="ccaron.sc" horiz-adv-x="554" 
d="M512 61q-33 -35 -80.5 -55t-106.5 -20q-58 0 -106.5 20.5t-84 57t-55 87t-19.5 109.5t19.5 109.5t55 87t84 57t106.5 20.5q50 0 96.5 -16.5t80.5 -49.5l-16 -15q-29 30 -73.5 45t-87.5 15q-54 0 -99 -20t-77 -54t-49.5 -80.5t-17.5 -98.5t17.5 -98.5t49 -81t76.5 -54.5
t100 -20q52 0 96.5 19t75.5 52zM309 564l-103 144h23l94 -132l94 132h23l-103 -144h-28z" />
    <glyph glyph-name="cdotaccent.sc" horiz-adv-x="554" 
d="M512 61q-33 -35 -80.5 -55t-106.5 -20q-58 0 -106.5 20.5t-84 57t-55 87t-19.5 109.5t19.5 109.5t55 87t84 57t106.5 20.5q50 0 96.5 -16.5t80.5 -49.5l-16 -15q-29 30 -73.5 45t-87.5 15q-54 0 -99 -20t-77 -54t-49.5 -80.5t-17.5 -98.5t17.5 -98.5t49 -81t76.5 -54.5
t100 -20q52 0 96.5 19t75.5 52zM324 633q-9 0 -16 7t-7 19q0 11 7 18t16 7t16 -7t7 -18q0 -12 -7.5 -19t-15.5 -7z" />
    <glyph glyph-name="ccedilla.sc" horiz-adv-x="554" 
d="M421 -146q0 -24 -11.5 -39.5t-28.5 -24.5t-36.5 -12.5t-35.5 -3.5q-19 0 -43.5 5t-46.5 15l5 17q19 -10 43.5 -14t42.5 -4q15 0 30.5 2.5t29 9t22 18.5t8.5 31q0 16 -7 26t-17.5 15.5t-23 7.5t-24.5 2q-14 0 -35.5 -4t-33.5 -11l-10 9l59 88q-55 3 -100.5 24.5
t-78.5 57.5t-51 85t-18 106q0 59 19.5 109.5t55 87t84 57t106.5 20.5q50 0 96.5 -16.5t80.5 -49.5l-16 -15q-29 30 -73.5 45t-87.5 15q-54 0 -99 -20t-77 -54t-49.5 -80.5t-17.5 -98.5t17.5 -98.5t49 -81t76.5 -54.5t100 -20q52 0 96.5 19t75.5 52l15 -16q-32 -34 -79 -54
t-104 -21l-49 -72q14 5 27 6.5t27 1.5q15 0 30.5 -3.5t28 -11t20.5 -21t8 -32.5z" />
    <glyph glyph-name="ccircumflex.sc" horiz-adv-x="554" 
d="M512 61q-33 -35 -80.5 -55t-106.5 -20q-58 0 -106.5 20.5t-84 57t-55 87t-19.5 109.5t19.5 109.5t55 87t84 57t106.5 20.5q50 0 96.5 -16.5t80.5 -49.5l-16 -15q-29 30 -73.5 45t-87.5 15q-54 0 -99 -20t-77 -54t-49.5 -80.5t-17.5 -98.5t17.5 -98.5t49 -81t76.5 -54.5
t100 -20q52 0 96.5 19t75.5 52zM341 708l103 -144h-23l-94 132l-94 -132h-23l103 144h28z" />
    <glyph glyph-name="dcaron.sc" horiz-adv-x="594" 
d="M534 258q0 -67 -22.5 -115.5t-60.5 -80t-90 -47t-110 -15.5h-149v520h149q58 0 109.5 -15.5t90 -47.5t61 -81.5t22.5 -117.5zM124 500v-480h122q57 0 106 15t84.5 44.5t55.5 74t20 104.5t-20 105.5t-55.5 75.5t-84.5 45.5t-106 15.5h-122zM271 564l-103 144h23l94 -132
l94 132h23l-103 -144h-28z" />
    <glyph glyph-name="dcroat.sc" horiz-adv-x="594" 
d="M534 258q0 -67 -22.5 -115.5t-60.5 -80t-90 -47t-110 -15.5h-149v263h-80v20h80v237h149q58 0 109.5 -15.5t90 -47.5t61 -81.5t22.5 -117.5zM124 500v-217h175v-20h-175v-243h122q57 0 106 15t84.5 44.5t55.5 74t20 104.5t-20 105.5t-55.5 75.5t-84.5 45.5t-106 15.5
h-122z" />
    <glyph glyph-name="egrave.sc" horiz-adv-x="477" 
d="M102 0v520h304v-20h-282v-220h265v-20h-265v-240h293v-20h-315zM169 708l103 -144h-19l-111 144h27z" />
    <glyph glyph-name="ecircumflex.sc" horiz-adv-x="477" 
d="M102 0v520h304v-20h-282v-220h265v-20h-265v-240h293v-20h-315zM269 708l103 -144h-23l-94 132l-94 -132h-23l103 144h28z" />
    <glyph glyph-name="ecaron.sc" horiz-adv-x="477" 
d="M102 0v520h304v-20h-282v-220h265v-20h-265v-240h293v-20h-315zM241 564l-103 144h23l94 -132l94 132h23l-103 -144h-28z" />
    <glyph glyph-name="edieresis.sc" horiz-adv-x="477" 
d="M102 0v520h304v-20h-282v-220h265v-20h-265v-240h293v-20h-315zM178 633q-9 0 -16 7t-7 19q0 11 7 18t16 7t16 -7t7 -18q0 -12 -7.5 -19t-15.5 -7zM332 633q-9 0 -16 7t-7 19q0 11 7 18t16 7t16 -7t7 -18q0 -12 -7.5 -19t-15.5 -7z" />
    <glyph glyph-name="ebreve.sc" horiz-adv-x="477" 
d="M102 0v520h304v-20h-282v-220h265v-20h-265v-240h293v-20h-315zM380 698q-10 -61 -43.5 -93.5t-83.5 -32.5q-49 0 -82.5 32.5t-41.5 93.5h19q10 -52 38 -79t67 -27q45 0 71 25t38 81h18z" />
    <glyph glyph-name="eogonek.sc" horiz-adv-x="477" 
d="M450 -192q-16 -14 -37.5 -22.5t-44.5 -8.5q-35 0 -59.5 21t-24.5 59q0 39 28 73.5t64 69.5h-274v520h304v-20h-282v-220h265v-20h-265v-240h293v-20h-18q-46 -46 -69.5 -76.5t-23.5 -64.5q0 -30 18 -47t47 -17q20 0 38.5 8t30.5 21z" />
    <glyph glyph-name="emacron.sc" horiz-adv-x="477" 
d="M102 0v520h304v-20h-282v-220h265v-20h-265v-240h293v-20h-315zM137 621v20h232v-20h-232z" />
    <glyph glyph-name="eacute.sc" horiz-adv-x="477" 
d="M102 0v520h304v-20h-282v-220h265v-20h-265v-240h293v-20h-315zM250 564h-19l103 144h27z" />
    <glyph glyph-name="edotaccent.sc" horiz-adv-x="477" 
d="M102 0v520h304v-20h-282v-220h265v-20h-265v-240h293v-20h-315zM255 633q-9 0 -16 7t-7 19q0 11 7 18t16 7t16 -7t7 -18q0 -12 -7.5 -19t-15.5 -7z" />
    <glyph glyph-name="gdotaccent.sc" horiz-adv-x="611" 
d="M519 32q-32 -18 -79.5 -32t-107.5 -14q-61 0 -111 21t-86 58t-55.5 87.5t-19.5 108.5t20 108t55.5 87t85 57.5t109.5 20.5q54 0 99 -16.5t77 -45.5l-16 -16q-29 29 -73 43t-88 14q-56 0 -101.5 -20t-78 -54t-50 -80t-17.5 -98t17 -98t49.5 -81t79 -55.5t105.5 -20.5
q51 0 91.5 11t72.5 28v194h-132v20h154v-227zM329 633q-9 0 -16 7t-7 19q0 11 7 18t16 7t16 -7t7 -18q0 -12 -7.5 -19t-15.5 -7z" />
    <glyph glyph-name="gbreve.sc" horiz-adv-x="611" 
d="M519 32q-32 -18 -79.5 -32t-107.5 -14q-61 0 -111 21t-86 58t-55.5 87.5t-19.5 108.5t20 108t55.5 87t85 57.5t109.5 20.5q54 0 99 -16.5t77 -45.5l-16 -16q-29 29 -73 43t-88 14q-56 0 -101.5 -20t-78 -54t-50 -80t-17.5 -98t17 -98t49.5 -81t79 -55.5t105.5 -20.5
q51 0 91.5 11t72.5 28v194h-132v20h154v-227zM456 698q-10 -61 -43.5 -93.5t-83.5 -32.5q-49 0 -82.5 32.5t-41.5 93.5h19q10 -52 38 -79t67 -27q45 0 71 25t38 81h18z" />
    <glyph glyph-name="gcommaaccent.sc" horiz-adv-x="611" 
d="M519 32q-32 -18 -79.5 -32t-107.5 -14q-61 0 -111 21t-86 58t-55.5 87.5t-19.5 108.5t20 108t55.5 87t85 57.5t109.5 20.5q54 0 99 -16.5t77 -45.5l-16 -16q-29 29 -73 43t-88 14q-56 0 -101.5 -20t-78 -54t-50 -80t-17.5 -98t17 -98t49.5 -81t79 -55.5t105.5 -20.5
q51 0 91.5 11t72.5 28v194h-132v20h154v-227zM289 -230h-17l51 185h24z" />
    <glyph glyph-name="gcircumflex.sc" horiz-adv-x="611" 
d="M519 32q-32 -18 -79.5 -32t-107.5 -14q-61 0 -111 21t-86 58t-55.5 87.5t-19.5 108.5t20 108t55.5 87t85 57.5t109.5 20.5q54 0 99 -16.5t77 -45.5l-16 -16q-29 29 -73 43t-88 14q-56 0 -101.5 -20t-78 -54t-50 -80t-17.5 -98t17 -98t49.5 -81t79 -55.5t105.5 -20.5
q51 0 91.5 11t72.5 28v194h-132v20h154v-227zM346 708l103 -144h-23l-94 132l-94 -132h-23l103 144h28z" />
    <glyph glyph-name="hbar.sc" horiz-adv-x="584" 
d="M460 0v257h-336v-257h-22v520h22v-134h336v134h22v-520h-22zM460 277v91h-336v-91h336z" />
    <glyph glyph-name="hcircumflex.sc" horiz-adv-x="584" 
d="M460 0v257h-336v-257h-22v520h22v-243h336v243h22v-520h-22zM305 708l103 -144h-23l-94 132l-94 -132h-23l103 144h28z" />
    <glyph glyph-name="iogonek.sc" horiz-adv-x="226" 
d="M176 -192q-16 -14 -37.5 -22.5t-44.5 -8.5q-35 0 -59.5 21t-24.5 59q0 39 28 73.5t64 69.5v520h22v-520q-45 -45 -68.5 -76t-23.5 -65q0 -30 18 -47t47 -17q20 0 38.5 8t30.5 21z" />
    <glyph glyph-name="iacute.sc" horiz-adv-x="226" 
d="M102 0v520h22v-520h-22zM122 564h-19l103 144h27z" />
    <glyph glyph-name="itilde.sc" horiz-adv-x="226" 
d="M102 0v520h22v-520h-22zM116 638q13 -8 22 -13t15.5 -7.5t11 -3t10.5 -0.5q33 0 40 48h16q-4 -36 -20 -51.5t-36 -15.5q-16 0 -28.5 5t-35.5 19q-26 16 -37 20t-22 4q-32 0 -40 -51h-16q4 36 20 53t36 17q16 0 29 -5t35 -19z" />
    <glyph glyph-name="idotaccent.sc" horiz-adv-x="226" 
d="M102 0v520h22v-520h-22zM113 633q-9 0 -16 7t-7 19q0 11 7 18t16 7t16 -7t7 -18q0 -12 -7.5 -19t-15.5 -7z" />
    <glyph glyph-name="icircumflex.sc" horiz-adv-x="226" 
d="M102 0v520h22v-520h-22zM126 708l103 -144h-23l-94 132l-94 -132h-23l103 144h28z" />
    <glyph glyph-name="idieresis.sc" horiz-adv-x="226" 
d="M102 0v520h22v-520h-22zM35 633q-9 0 -16 7t-7 19q0 11 7 18t16 7t16 -7t7 -18q0 -12 -7.5 -19t-15.5 -7zM189 633q-9 0 -16 7t-7 19q0 11 7 18t16 7t16 -7t7 -18q0 -12 -7.5 -19t-15.5 -7z" />
    <glyph glyph-name="imacron.sc" horiz-adv-x="226" 
d="M102 0v520h22v-520h-22zM-3 621v20h232v-20h-232z" />
    <glyph glyph-name="igrave.sc" horiz-adv-x="226" 
d="M102 0v520h22v-520h-22zM21 708l103 -144h-19l-111 144h27z" />
    <glyph glyph-name="jcircumflex.sc" horiz-adv-x="374" 
d="M280 140q0 -68 -33 -111t-100 -43q-26 0 -46.5 7.5t-36 19.5t-26 28t-16.5 33l19 9q14 -34 40 -55t65 -21q30 0 51.5 11t35 29.5t19.5 44t6 55.5v373h22v-380zM282 708l103 -144h-23l-94 132l-94 -132h-23l103 144h28z" />
    <glyph glyph-name="kcommaaccent.sc" horiz-adv-x="454" 
d="M126 282l261 238h31l-265 -239l277 -281h-31l-273 278h-2v-278h-22v520h22v-238h2zM211 -230h-17l51 185h24z" />
    <glyph glyph-name="lslash.sc" horiz-adv-x="390" 
d="M102 0v255l-65 -57v27l65 56v239h22v-220l121 105v-24l-121 -107v-254h254v-20h-276z" />
    <glyph glyph-name="lacute.sc" horiz-adv-x="390" 
d="M102 0v520h22v-500h254v-20h-276zM124 564h-19l103 144h27z" />
    <glyph glyph-name="lcaron.sc" horiz-adv-x="390" 
d="M102 0v520h22v-500h254v-20h-276zM227 335h-17l51 185h24z" />
    <glyph glyph-name="lcommaaccent.sc" horiz-adv-x="390" 
d="M102 0v520h22v-500h254v-20h-276zM209 -230h-17l51 185h24z" />
    <glyph glyph-name="ldot.sc" horiz-adv-x="390" 
d="M102 0v520h22v-500h254v-20h-276zM306 203q-9 0 -16 7t-7 19q0 11 7 18t16 7t16 -7t7 -18q0 -12 -7.5 -19t-15.5 -7z" />
    <glyph glyph-name="nacute.sc" horiz-adv-x="610" 
d="M478 0l-352 490h-2v-490h-22v520h30l352 -490h2v490h22v-520h-30zM283 564h-19l103 144h27z" />
    <glyph glyph-name="ncommaaccent.sc" horiz-adv-x="610" 
d="M478 0l-352 490h-2v-490h-22v520h30l352 -490h2v490h22v-520h-30zM270 -230h-17l51 185h24z" />
    <glyph glyph-name="ncaron.sc" horiz-adv-x="610" 
d="M478 0l-352 490h-2v-490h-22v520h30l352 -490h2v490h22v-520h-30zM293 564l-103 144h23l94 -132l94 132h23l-103 -144h-28z" />
    <glyph glyph-name="ntilde.sc" horiz-adv-x="610" 
d="M478 0l-352 490h-2v-490h-22v520h30l352 -490h2v490h22v-520h-30zM309 638q13 -8 22 -13t15.5 -7.5t11 -3t10.5 -0.5q33 0 40 48h16q-4 -36 -20 -51.5t-36 -15.5q-16 0 -28.5 5t-35.5 19q-26 16 -37 20t-22 4q-32 0 -40 -51h-16q4 36 20 53t36 17q16 0 29 -5t35 -19z" />
    <glyph glyph-name="ograve.sc" horiz-adv-x="659" 
d="M599 261q0 -60 -19.5 -110.5t-55.5 -87t-85.5 -57t-109.5 -20.5q-59 0 -108.5 20.5t-85 57t-55.5 87t-20 110.5t20 110.5t55.5 86.5t85 56t108.5 20q60 0 109.5 -20t85.5 -56t55.5 -86.5t19.5 -110.5zM577 261q0 52 -17 98.5t-49.5 80.5t-78.5 54t-103 20t-103 -20
t-78 -54t-49 -80.5t-17 -98.5q0 -53 17 -99t49 -81t78 -55t103 -20t103 20t78.5 55t49.5 81t17 99zM257 708l103 -144h-19l-111 144h27z" />
    <glyph glyph-name="oacute.sc" horiz-adv-x="659" 
d="M599 261q0 -60 -19.5 -110.5t-55.5 -87t-85.5 -57t-109.5 -20.5q-59 0 -108.5 20.5t-85 57t-55.5 87t-20 110.5t20 110.5t55.5 86.5t85 56t108.5 20q60 0 109.5 -20t85.5 -56t55.5 -86.5t19.5 -110.5zM577 261q0 52 -17 98.5t-49.5 80.5t-78.5 54t-103 20t-103 -20
t-78 -54t-49 -80.5t-17 -98.5q0 -53 17 -99t49 -81t78 -55t103 -20t103 20t78.5 55t49.5 81t17 99zM321 564h-19l103 144h27z" />
    <glyph glyph-name="ocircumflex.sc" horiz-adv-x="659" 
d="M599 261q0 -60 -19.5 -110.5t-55.5 -87t-85.5 -57t-109.5 -20.5q-59 0 -108.5 20.5t-85 57t-55.5 87t-20 110.5t20 110.5t55.5 86.5t85 56t108.5 20q60 0 109.5 -20t85.5 -56t55.5 -86.5t19.5 -110.5zM577 261q0 52 -17 98.5t-49.5 80.5t-78.5 54t-103 20t-103 -20
t-78 -54t-49 -80.5t-17 -98.5q0 -53 17 -99t49 -81t78 -55t103 -20t103 20t78.5 55t49.5 81t17 99zM343 708l103 -144h-23l-94 132l-94 -132h-23l103 144h28z" />
    <glyph glyph-name="omacron.sc" horiz-adv-x="659" 
d="M599 261q0 -60 -19.5 -110.5t-55.5 -87t-85.5 -57t-109.5 -20.5q-59 0 -108.5 20.5t-85 57t-55.5 87t-20 110.5t20 110.5t55.5 86.5t85 56t108.5 20q60 0 109.5 -20t85.5 -56t55.5 -86.5t19.5 -110.5zM577 261q0 52 -17 98.5t-49.5 80.5t-78.5 54t-103 20t-103 -20
t-78 -54t-49 -80.5t-17 -98.5q0 -53 17 -99t49 -81t78 -55t103 -20t103 20t78.5 55t49.5 81t17 99zM213 621v20h232v-20h-232z" />
    <glyph glyph-name="obreve.sc" horiz-adv-x="659" 
d="M599 261q0 -60 -19.5 -110.5t-55.5 -87t-85.5 -57t-109.5 -20.5q-59 0 -108.5 20.5t-85 57t-55.5 87t-20 110.5t20 110.5t55.5 86.5t85 56t108.5 20q60 0 109.5 -20t85.5 -56t55.5 -86.5t19.5 -110.5zM577 261q0 52 -17 98.5t-49.5 80.5t-78.5 54t-103 20t-103 -20
t-78 -54t-49 -80.5t-17 -98.5q0 -53 17 -99t49 -81t78 -55t103 -20t103 20t78.5 55t49.5 81t17 99zM455 698q-10 -61 -43.5 -93.5t-83.5 -32.5q-49 0 -82.5 32.5t-41.5 93.5h19q10 -52 38 -79t67 -27q45 0 71 25t38 81h18z" />
    <glyph glyph-name="oslash.sc" horiz-adv-x="659" 
d="M62 5l65 67q-32 36 -49.5 84t-17.5 105q0 60 20 110.5t55.5 86.5t85 56t108.5 20q56 0 102.5 -17.5t81.5 -49.5l63 65l14 -14l-63 -64q35 -36 53.5 -85t18.5 -108q0 -60 -19.5 -110.5t-55.5 -87t-85.5 -57t-109.5 -20.5q-57 0 -105.5 18.5t-83.5 53.5l-64 -66zM577 261
q0 106 -65 177l-357 -365q32 -32 76 -49.5t98 -17.5q57 0 103 20t78.5 55t49.5 81t17 99zM82 261q0 -103 60 -174l356 365q-32 29 -74.5 45.5t-94.5 16.5q-57 0 -103 -20t-78 -54t-49 -80.5t-17 -98.5z" />
    <glyph glyph-name="odieresis.sc" horiz-adv-x="659" 
d="M599 261q0 -60 -19.5 -110.5t-55.5 -87t-85.5 -57t-109.5 -20.5q-59 0 -108.5 20.5t-85 57t-55.5 87t-20 110.5t20 110.5t55.5 86.5t85 56t108.5 20q60 0 109.5 -20t85.5 -56t55.5 -86.5t19.5 -110.5zM577 261q0 52 -17 98.5t-49.5 80.5t-78.5 54t-103 20t-103 -20
t-78 -54t-49 -80.5t-17 -98.5q0 -53 17 -99t49 -81t78 -55t103 -20t103 20t78.5 55t49.5 81t17 99zM252 633q-9 0 -16 7t-7 19q0 11 7 18t16 7t16 -7t7 -18q0 -12 -7.5 -19t-15.5 -7zM406 633q-9 0 -16 7t-7 19q0 11 7 18t16 7t16 -7t7 -18q0 -12 -7.5 -19t-15.5 -7z" />
    <glyph glyph-name="otilde.sc" horiz-adv-x="659" 
d="M599 261q0 -60 -19.5 -110.5t-55.5 -87t-85.5 -57t-109.5 -20.5q-59 0 -108.5 20.5t-85 57t-55.5 87t-20 110.5t20 110.5t55.5 86.5t85 56t108.5 20q60 0 109.5 -20t85.5 -56t55.5 -86.5t19.5 -110.5zM577 261q0 52 -17 98.5t-49.5 80.5t-78.5 54t-103 20t-103 -20
t-78 -54t-49 -80.5t-17 -98.5q0 -53 17 -99t49 -81t78 -55t103 -20t103 20t78.5 55t49.5 81t17 99zM332 638q13 -8 22 -13t15.5 -7.5t11 -3t10.5 -0.5q33 0 40 48h16q-4 -36 -20 -51.5t-36 -15.5q-16 0 -28.5 5t-35.5 19q-26 16 -37 20t-22 4q-32 0 -40 -51h-16q4 36 20 53
t36 17q16 0 29 -5t35 -19z" />
    <glyph glyph-name="ohungarumlaut.sc" horiz-adv-x="659" 
d="M599 261q0 -60 -19.5 -110.5t-55.5 -87t-85.5 -57t-109.5 -20.5q-59 0 -108.5 20.5t-85 57t-55.5 87t-20 110.5t20 110.5t55.5 86.5t85 56t108.5 20q60 0 109.5 -20t85.5 -56t55.5 -86.5t19.5 -110.5zM577 261q0 52 -17 98.5t-49.5 80.5t-78.5 54t-103 20t-103 -20
t-78 -54t-49 -80.5t-17 -98.5q0 -53 17 -99t49 -81t78 -55t103 -20t103 20t78.5 55t49.5 81t17 99zM290 563h-19l103 145h27zM407 563h-19l103 145h27z" />
    <glyph glyph-name="racute.sc" horiz-adv-x="478" 
d="M393 0l-151 257h-118v-257h-22v520h140q31 0 61 -6.5t54 -22t38.5 -41t14.5 -63.5q0 -34 -12.5 -58t-33 -39t-46.5 -22.5t-53 -9.5l153 -258h-25zM388 387q0 32 -12.5 54t-33 35t-47.5 18.5t-57 5.5h-114v-223h120q70 0 107 28t37 82zM217 564h-19l103 144h27z" />
    <glyph glyph-name="rcommaaccent.sc" horiz-adv-x="478" 
d="M393 0l-151 257h-118v-257h-22v520h140q31 0 61 -6.5t54 -22t38.5 -41t14.5 -63.5q0 -34 -12.5 -58t-33 -39t-46.5 -22.5t-53 -9.5l153 -258h-25zM388 387q0 32 -12.5 54t-33 35t-47.5 18.5t-57 5.5h-114v-223h120q70 0 107 28t37 82zM209 -230h-17l51 185h24z" />
    <glyph glyph-name="rcaron.sc" horiz-adv-x="478" 
d="M393 0l-151 257h-118v-257h-22v520h140q31 0 61 -6.5t54 -22t38.5 -41t14.5 -63.5q0 -34 -12.5 -58t-33 -39t-46.5 -22.5t-53 -9.5l153 -258h-25zM388 387q0 32 -12.5 54t-33 35t-47.5 18.5t-57 5.5h-114v-223h120q70 0 107 28t37 82zM222 564l-103 144h23l94 -132
l94 132h23l-103 -144h-28z" />
    <glyph glyph-name="sacute.sc" horiz-adv-x="416" 
d="M362 126q0 -34 -13 -60t-34.5 -44t-50.5 -27t-60 -9q-48 0 -88 17t-66 48l17 15q26 -29 61.5 -44t74.5 -15q27 0 52 7.5t43.5 22.5t30 37t11.5 51q0 30 -11.5 50t-31 34t-44 23.5t-49.5 17.5q-31 10 -57.5 21t-46 27.5t-30.5 39.5t-11 56t13 59t35 44t51 27.5t61 9.5
q42 0 77 -15.5t57 -43.5l-17 -15q-20 26 -50.5 39.5t-67.5 13.5q-26 0 -50.5 -7.5t-43.5 -22.5t-31 -37t-12 -51t11 -49t28.5 -34t40 -23.5t45.5 -16.5q33 -11 61.5 -22.5t49.5 -28t33 -39.5t12 -56zM189 564h-19l103 144h27z" />
    <glyph glyph-name="scaron.sc" horiz-adv-x="416" 
d="M362 126q0 -34 -13 -60t-34.5 -44t-50.5 -27t-60 -9q-48 0 -88 17t-66 48l17 15q26 -29 61.5 -44t74.5 -15q27 0 52 7.5t43.5 22.5t30 37t11.5 51q0 30 -11.5 50t-31 34t-44 23.5t-49.5 17.5q-31 10 -57.5 21t-46 27.5t-30.5 39.5t-11 56t13 59t35 44t51 27.5t61 9.5
q42 0 77 -15.5t57 -43.5l-17 -15q-20 26 -50.5 39.5t-67.5 13.5q-26 0 -50.5 -7.5t-43.5 -22.5t-31 -37t-12 -51t11 -49t28.5 -34t40 -23.5t45.5 -16.5q33 -11 61.5 -22.5t49.5 -28t33 -39.5t12 -56zM204 564l-103 144h23l94 -132l94 132h23l-103 -144h-28z" />
    <glyph glyph-name="scommaaccent.sc" horiz-adv-x="416" 
d="M362 126q0 -34 -13 -60t-34.5 -44t-50.5 -27t-60 -9q-48 0 -88 17t-66 48l17 15q26 -29 61.5 -44t74.5 -15q27 0 52 7.5t43.5 22.5t30 37t11.5 51q0 30 -11.5 50t-31 34t-44 23.5t-49.5 17.5q-31 10 -57.5 21t-46 27.5t-30.5 39.5t-11 56t13 59t35 44t51 27.5t61 9.5
q42 0 77 -15.5t57 -43.5l-17 -15q-20 26 -50.5 39.5t-67.5 13.5q-26 0 -50.5 -7.5t-43.5 -22.5t-31 -37t-12 -51t11 -49t28.5 -34t40 -23.5t45.5 -16.5q33 -11 61.5 -22.5t49.5 -28t33 -39.5t12 -56zM166 -230h-17l51 185h24z" />
    <glyph glyph-name="scedilla.sc" horiz-adv-x="416" 
d="M302 -146q0 -24 -11.5 -39.5t-28.5 -24.5t-36.5 -12.5t-35.5 -3.5q-19 0 -43.5 5t-46.5 15l5 17q19 -10 43.5 -14t42.5 -4q15 0 30.5 2.5t29 9t22 18.5t8.5 31q0 16 -7 26t-17.5 15.5t-23 7.5t-24.5 2q-14 0 -35.5 -4t-33.5 -11l-10 9l59 88q-89 5 -139 64l17 15
q26 -29 61.5 -44t74.5 -15q27 0 52 7.5t43.5 22.5t30 37t11.5 51q0 30 -11.5 50t-31 34t-44 23.5t-49.5 17.5q-31 10 -57.5 21t-46 27.5t-30.5 39.5t-11 56t13 59t35 44t51 27.5t61 9.5q42 0 77 -15.5t57 -43.5l-17 -15q-20 26 -50.5 39.5t-67.5 13.5q-26 0 -50.5 -7.5
t-43.5 -22.5t-31 -37t-12 -51t11 -49t28.5 -34t40 -23.5t45.5 -16.5q33 -11 61.5 -22.5t49.5 -28t33 -39.5t12 -56t-12 -59t-33 -43.5t-48.5 -27t-58.5 -10.5l-49 -72q14 5 27 6.5t27 1.5q15 0 30.5 -3.5t28 -11t20.5 -21t8 -32.5z" />
    <glyph glyph-name="scircumflex.sc" horiz-adv-x="416" 
d="M362 126q0 -34 -13 -60t-34.5 -44t-50.5 -27t-60 -9q-48 0 -88 17t-66 48l17 15q26 -29 61.5 -44t74.5 -15q27 0 52 7.5t43.5 22.5t30 37t11.5 51q0 30 -11.5 50t-31 34t-44 23.5t-49.5 17.5q-31 10 -57.5 21t-46 27.5t-30.5 39.5t-11 56t13 59t35 44t51 27.5t61 9.5
q42 0 77 -15.5t57 -43.5l-17 -15q-20 26 -50.5 39.5t-67.5 13.5q-26 0 -50.5 -7.5t-43.5 -22.5t-31 -37t-12 -51t11 -49t28.5 -34t40 -23.5t45.5 -16.5q33 -11 61.5 -22.5t49.5 -28t33 -39.5t12 -56zM232 708l103 -144h-23l-94 132l-94 -132h-23l103 144h28z" />
    <glyph glyph-name="germandbls.sc" horiz-adv-x="873" 
d="M377 126q0 -34 -13 -60t-34.5 -44t-50.5 -27t-60 -9q-48 0 -88 17t-66 48l17 15q26 -29 61.5 -44t74.5 -15q27 0 52 7.5t43.5 22.5t30 37t11.5 51q0 30 -11.5 50t-31 34t-44 23.5t-49.5 17.5q-31 10 -57.5 21t-46 27.5t-30.5 39.5t-11 56t13 59t35 44t51 27.5t61 9.5
q42 0 77 -15.5t57 -43.5l-17 -15q-20 26 -50.5 39.5t-67.5 13.5q-26 0 -50.5 -7.5t-43.5 -22.5t-31 -37t-12 -51t11 -49t28.5 -34t40 -23.5t45.5 -16.5q33 -11 61.5 -22.5t49.5 -28t33 -39.5t12 -56zM819 126q0 -34 -13 -60t-34.5 -44t-50.5 -27t-60 -9q-48 0 -88 17t-66 48
l17 15q26 -29 61.5 -44t74.5 -15q27 0 52 7.5t43.5 22.5t30 37t11.5 51q0 30 -11.5 50t-31 34t-44 23.5t-49.5 17.5q-31 10 -57.5 21t-46 27.5t-30.5 39.5t-11 56t13 59t35 44t51 27.5t61 9.5q42 0 77 -15.5t57 -43.5l-17 -15q-20 26 -50.5 39.5t-67.5 13.5
q-26 0 -50.5 -7.5t-43.5 -22.5t-31 -37t-12 -51t11 -49t28.5 -34t40 -23.5t45.5 -16.5q33 -11 61.5 -22.5t49.5 -28t33 -39.5t12 -56z" />
    <glyph glyph-name="tcommaaccent.sc" horiz-adv-x="403" 
d="M213 500v-500h-22v500h-176v20h373v-20h-175zM161 -230h-17l51 185h24z" />
    <glyph glyph-name="tcaron.sc" horiz-adv-x="403" 
d="M213 500v-500h-22v500h-176v20h373v-20h-175zM188 564l-103 144h23l94 -132l94 132h23l-103 -144h-28z" />
    <glyph glyph-name="tbar.sc" horiz-adv-x="403" 
d="M213 342v-342h-22v342h-126v18h126v140h-176v20h373v-20h-175v-140h125v-18h-125z" />
    <glyph glyph-name="uogonek.sc" horiz-adv-x="580" 
d="M486 196q0 -40 -9 -76t-29.5 -64t-53 -46.5t-79.5 -22.5q-40 -40 -60 -68t-20 -60q0 -30 18 -47t47 -17q20 0 38.5 8t30.5 21l10 -16q-16 -14 -37.5 -22.5t-44.5 -8.5q-35 0 -59.5 21t-24.5 59q0 35 22.5 66.5t54.5 62.5q-54 0 -91.5 17t-60.5 46t-33.5 67t-10.5 80v324
h22v-322q0 -38 9 -72.5t30 -60.5t54 -42t81 -16t81 16t54 42t30 60.5t9 72.5v322h22v-324z" />
    <glyph glyph-name="uacute.sc" horiz-adv-x="580" 
d="M486 196q0 -42 -10.5 -80t-33.5 -67t-60.5 -46t-91.5 -17t-91.5 17t-60.5 46t-33.5 67t-10.5 80v324h22v-322q0 -38 9 -72.5t30 -60.5t54 -42t81 -16t81 16t54 42t30 60.5t9 72.5v322h22v-324zM292 564h-19l103 144h27z" />
    <glyph glyph-name="ugrave.sc" horiz-adv-x="580" 
d="M486 196q0 -42 -10.5 -80t-33.5 -67t-60.5 -46t-91.5 -17t-91.5 17t-60.5 46t-33.5 67t-10.5 80v324h22v-322q0 -38 9 -72.5t30 -60.5t54 -42t81 -16t81 16t54 42t30 60.5t9 72.5v322h22v-324zM201 708l103 -144h-19l-111 144h27z" />
    <glyph glyph-name="ucircumflex.sc" horiz-adv-x="580" 
d="M486 196q0 -42 -10.5 -80t-33.5 -67t-60.5 -46t-91.5 -17t-91.5 17t-60.5 46t-33.5 67t-10.5 80v324h22v-322q0 -38 9 -72.5t30 -60.5t54 -42t81 -16t81 16t54 42t30 60.5t9 72.5v322h22v-324zM303 708l103 -144h-23l-94 132l-94 -132h-23l103 144h28z" />
    <glyph glyph-name="udieresis.sc" horiz-adv-x="580" 
d="M486 196q0 -42 -10.5 -80t-33.5 -67t-60.5 -46t-91.5 -17t-91.5 17t-60.5 46t-33.5 67t-10.5 80v324h22v-322q0 -38 9 -72.5t30 -60.5t54 -42t81 -16t81 16t54 42t30 60.5t9 72.5v322h22v-324zM214 633q-9 0 -16 7t-7 19q0 11 7 18t16 7t16 -7t7 -18q0 -12 -7.5 -19
t-15.5 -7zM368 633q-9 0 -16 7t-7 19q0 11 7 18t16 7t16 -7t7 -18q0 -12 -7.5 -19t-15.5 -7z" />
    <glyph glyph-name="ubreve.sc" horiz-adv-x="580" 
d="M486 196q0 -42 -10.5 -80t-33.5 -67t-60.5 -46t-91.5 -17t-91.5 17t-60.5 46t-33.5 67t-10.5 80v324h22v-322q0 -38 9 -72.5t30 -60.5t54 -42t81 -16t81 16t54 42t30 60.5t9 72.5v322h22v-324zM417 698q-10 -61 -43.5 -93.5t-83.5 -32.5q-49 0 -82.5 32.5t-41.5 93.5h19
q10 -52 38 -79t67 -27q45 0 71 25t38 81h18z" />
    <glyph glyph-name="uhungarumlaut.sc" horiz-adv-x="580" 
d="M486 196q0 -42 -10.5 -80t-33.5 -67t-60.5 -46t-91.5 -17t-91.5 17t-60.5 46t-33.5 67t-10.5 80v324h22v-322q0 -38 9 -72.5t30 -60.5t54 -42t81 -16t81 16t54 42t30 60.5t9 72.5v322h22v-324zM233 563h-19l103 145h27zM350 563h-19l103 145h27z" />
    <glyph glyph-name="umacron.sc" horiz-adv-x="580" 
d="M486 196q0 -42 -10.5 -80t-33.5 -67t-60.5 -46t-91.5 -17t-91.5 17t-60.5 46t-33.5 67t-10.5 80v324h22v-322q0 -38 9 -72.5t30 -60.5t54 -42t81 -16t81 16t54 42t30 60.5t9 72.5v322h22v-324zM175 621v20h232v-20h-232z" />
    <glyph glyph-name="utilde.sc" horiz-adv-x="580" 
d="M486 196q0 -42 -10.5 -80t-33.5 -67t-60.5 -46t-91.5 -17t-91.5 17t-60.5 46t-33.5 67t-10.5 80v324h22v-322q0 -38 9 -72.5t30 -60.5t54 -42t81 -16t81 16t54 42t30 60.5t9 72.5v322h22v-324zM294 638q13 -8 22 -13t15.5 -7.5t11 -3t10.5 -0.5q33 0 40 48h16
q-4 -36 -20 -51.5t-36 -15.5q-16 0 -28.5 5t-35.5 19q-26 16 -37 20t-22 4q-32 0 -40 -51h-16q4 36 20 53t36 17q16 0 29 -5t35 -19z" />
    <glyph glyph-name="uring.sc" horiz-adv-x="580" 
d="M486 196q0 -42 -10.5 -80t-33.5 -67t-60.5 -46t-91.5 -17t-91.5 17t-60.5 46t-33.5 67t-10.5 80v324h22v-322q0 -38 9 -72.5t30 -60.5t54 -42t81 -16t81 16t54 42t30 60.5t9 72.5v322h22v-324zM386 650q0 -20 -7.5 -37.5t-21 -30.5t-31 -20t-36.5 -7q-20 0 -37 7
t-30.5 20t-21 30.5t-7.5 37.5t7.5 37.5t21 30t30.5 20t37 7.5q19 0 36.5 -7.5t31 -20t21 -30t7.5 -37.5zM367 650q0 32 -22.5 55t-54.5 23t-54.5 -23t-22.5 -55t22.5 -55t54.5 -23t54.5 23t22.5 55z" />
    <glyph glyph-name="wcircumflex.sc" horiz-adv-x="743" 
d="M553 0h-33l-149 499h-2l-147 -499h-33l-155 520h23l148 -500h2l146 500h34l149 -500h2l148 500h23zM385 708l103 -144h-23l-94 132l-94 -132h-23l103 144h28z" />
    <glyph glyph-name="ycircumflex.sc" horiz-adv-x="408" 
d="M215 226v-226h-22v226l-179 294h25l166 -274l164 274h25zM219 708l103 -144h-23l-94 132l-94 -132h-23l103 144h28z" />
    <glyph glyph-name="yacute.sc" horiz-adv-x="408" 
d="M215 226v-226h-22v226l-179 294h25l166 -274l164 274h25zM193 564h-19l103 144h27z" />
    <glyph glyph-name="ydieresis.sc" horiz-adv-x="408" 
d="M215 226v-226h-22v226l-179 294h25l166 -274l164 274h25zM128 633q-9 0 -16 7t-7 19q0 11 7 18t16 7t16 -7t7 -18q0 -12 -7.5 -19t-15.5 -7zM282 633q-9 0 -16 7t-7 19q0 11 7 18t16 7t16 -7t7 -18q0 -12 -7.5 -19t-15.5 -7z" />
    <glyph glyph-name="zacute.sc" horiz-adv-x="450" 
d="M42 0v23l338 477h-325v20h348v-24l-337 -476h342v-20h-366zM194 564h-19l103 144h27z" />
    <glyph glyph-name="zdotaccent.sc" horiz-adv-x="450" 
d="M42 0v23l338 477h-325v20h348v-24l-337 -476h342v-20h-366zM227 633q-9 0 -16 7t-7 19q0 11 7 18t16 7t16 -7t7 -18q0 -12 -7.5 -19t-15.5 -7z" />
    <glyph glyph-name="zcaron.sc" horiz-adv-x="450" 
d="M42 0v23l338 477h-325v20h348v-24l-337 -476h342v-20h-366zM218 564l-103 144h23l94 -132l94 132h23l-103 -144h-28z" />
    <glyph glyph-name="ij.sc" horiz-adv-x="601" 
d="M102 0v520h22v-520h-22zM507 140q0 -68 -33 -111t-100 -43q-26 0 -46.5 7.5t-36 19.5t-26 28t-16.5 33l19 9q14 -34 40 -55t65 -21q30 0 51.5 11t35 29.5t19.5 44t6 55.5v373h22v-380z" />
    <glyph glyph-name="oe.sc" horiz-adv-x="779" 
d="M338 0q-59 0 -109 18t-87.5 52t-58.5 81.5t-21 107.5t21.5 108t59 82t88 52.5t107.5 18.5h370v-20h-282v-220h265v-20h-265v-240h293v-20h-381zM404 21v478h-64q-54 0 -101 -18t-81.5 -49.5t-54 -76t-19.5 -96.5t19.5 -96t53.5 -75.5t81 -49t102 -17.5h64z" />
    <glyph glyph-name="eth.sc" horiz-adv-x="594" 
d="M534 258q0 -67 -22.5 -115.5t-60.5 -80t-90 -47t-110 -15.5h-149v263h-80v20h80v237h149q58 0 109.5 -15.5t90 -47.5t61 -81.5t22.5 -117.5zM124 500v-217h175v-20h-175v-243h122q57 0 106 15t84.5 44.5t55.5 74t20 104.5t-20 105.5t-55.5 75.5t-84.5 45.5t-106 15.5
h-122z" />
    <glyph glyph-name="Ohorn" unicode="&#x1a0;" horiz-adv-x="872" 
d="M696 639h-9t-9 1q53 -47 87.5 -118.5t34.5 -167.5q0 -82 -27.5 -150.5t-76 -118t-115.5 -77.5t-145 -28t-145 28t-115.5 77.5t-76 118t-27.5 150.5t27.5 150.5t76 118t115 77.5t145.5 28q55 0 93.5 -11t67.5 -23.5t52 -23.5t47 -11q82 0 82 72q0 14 -4 30t-10 28l23 7
q13 -28 13 -65q0 -44 -27 -68t-77 -24zM94 354q0 -74 24.5 -138.5t69.5 -112.5t108 -75.5t140 -27.5t140 27.5t108 75.5t69.5 112.5t24.5 138.5t-25 138.5t-70.5 112.5t-108.5 75.5t-138 27.5t-138 -27.5t-108.5 -75.5t-70.5 -112.5t-25 -138.5z" />
    <glyph glyph-name="ohorn" unicode="&#x1a1;" horiz-adv-x="610" 
d="M495 410h-13.5t-12.5 2q35 -32 54.5 -78t19.5 -103q0 -54 -17.5 -99t-49.5 -77.5t-76.5 -50.5t-97.5 -18t-97 18t-76 50.5t-49.5 77.5t-17.5 99t17.5 98.5t49.5 76.5t76 50t97 18q37 0 62.5 -7t46.5 -15t40.5 -15t43.5 -7q82 0 82 72q0 14 -4 30t-10 28l23 7
q13 -28 13 -65q0 -44 -27 -68t-77 -24zM302 455q-51 0 -91 -17.5t-68.5 -48t-43.5 -71.5t-15 -87q0 -47 15 -88t43.5 -71.5t68.5 -48.5t91 -18t91.5 18t69 48.5t43.5 71.5t15 88q0 46 -15 87t-43.5 71.5t-69 48t-91.5 17.5z" />
    <glyph glyph-name="Uhorn" unicode="&#x1af;" horiz-adv-x="732" 
d="M636 268q0 -60 -14 -112.5t-46 -91.5t-83.5 -61.5t-126.5 -22.5t-126.5 22.5t-83.5 61.5t-46 91.5t-14 112.5v440h22v-436q0 -42 8.5 -89.5t35 -88t75 -67.5t129.5 -27q79 0 127.5 26t75.5 66.5t36 88t9 91.5v436h22q82 0 82 72q0 14 -4 30t-10 28l23 7q13 -28 13 -65
q0 -44 -27 -68t-77 -24v-420z" />
    <glyph glyph-name="uhorn" unicode="&#x1b0;" horiz-adv-x="577" 
d="M442 121q-11 -32 -29.5 -57.5t-42.5 -42.5t-52 -26t-58 -9q-48 0 -80 17t-51 45t-27 63t-8 71v278h22v-276q0 -29 6 -60.5t22.5 -57.5t44 -43.5t71.5 -17.5q38 0 71.5 15.5t58 44.5t39 70.5t14.5 94.5v230h22q82 0 82 72q0 14 -4 30t-10 28l23 7q13 -28 13 -65
q0 -44 -27 -68t-77 -24v-324q0 -11 0.5 -27t1 -32.5t1.5 -31.5t2 -25h-22q-1 10 -1.5 25t-1 32.5t-1 34t-0.5 29.5h-2v0z" />
    <glyph glyph-name="hookabovecomb" unicode="&#x309;" horiz-adv-x="240" 
d="M106 555q0 18 9.5 31t36.5 26q19 9 27.5 22.5t8.5 27.5q0 23 -16 39t-45 16t-49 -14t-26 -49l-19 3q8 41 32.5 60t61.5 19t59 -21t22 -53q0 -21 -12.5 -39t-36.5 -29q-20 -10 -27 -19t-7 -20h-19z" />
    <glyph glyph-name="uni037E" unicode="&#x37e;" horiz-adv-x="280" 
d="M140 409q-9 0 -16 7t-7 19q0 11 7 18t16 7t16 -7t7 -18q0 -12 -7.5 -19t-15.5 -7zM98 -138h-17l57 228h24z" />
    <glyph glyph-name="uni1E02" unicode="&#x1e02;" horiz-adv-x="612" 
d="M551 189q0 -57 -21.5 -93.5t-55 -57.5t-74 -29.5t-77.5 -8.5h-217v708h193q40 0 79.5 -8t70.5 -27t50 -51t19 -81q0 -38 -12 -66t-32.5 -48t-46.5 -32.5t-53 -18.5v-2q27 -3 58 -14.5t57.5 -33.5t44 -56t17.5 -81zM496 538q0 43 -17 72t-45 46t-64.5 24.5t-76.5 7.5h-165
v-305h170q36 0 71.5 9t63.5 27.5t45.5 48t17.5 70.5zM529 186q0 48 -19.5 82t-49.5 55t-66 30.5t-70 9.5h-196v-343h185q46 0 86 9.5t68.5 29.5t45 51.5t16.5 75.5zM292 833q-9 0 -16 7t-7 19q0 11 7 18t16 7t16 -7t7 -18q0 -12 -7.5 -19t-15.5 -7z" />
    <glyph glyph-name="uni1E03" unicode="&#x1e03;" horiz-adv-x="626" 
d="M127 335q30 69 85.5 104t121.5 35q51 0 93.5 -18.5t73 -51t47 -77.5t16.5 -98q0 -52 -17 -96.5t-47.5 -77t-73 -51t-92.5 -18.5q-33 0 -64.5 9t-58.5 26.5t-49 43t-35 59.5h-3v-124h-22v756h22v-421h3zM542 229q0 45 -14.5 86t-41.5 72t-65.5 49.5t-86.5 18.5
q-46 0 -84.5 -18t-66.5 -48.5t-44 -71.5t-16 -87t16 -87t44 -71.5t66.5 -48.5t84.5 -18q48 0 86.5 18t65.5 48.5t41.5 71.5t14.5 86zM328 797q-9 0 -16 7t-7 19q0 11 7 18t16 7t16 -7t7 -18q0 -12 -7.5 -19t-15.5 -7z" />
    <glyph glyph-name="uni1E0A" unicode="&#x1e0a;" horiz-adv-x="770" 
d="M698 354q0 -92 -30 -158.5t-83 -110t-124.5 -64.5t-153.5 -21h-201v708h201q82 0 153.5 -20.5t124.5 -64t83 -110.5t30 -159zM129 688v-668h173q78 0 146.5 19.5t118.5 60t79 103.5t29 151t-29 151.5t-79 104t-118.5 59.5t-146.5 19h-173zM355 833q-9 0 -16 7t-7 19
q0 11 7 18t16 7t16 -7t7 -18q0 -12 -7.5 -19t-15.5 -7z" />
    <glyph glyph-name="uni1E0B" unicode="&#x1e0b;" horiz-adv-x="626" 
d="M502 756h22v-756h-22v124h-3q-30 -68 -85.5 -103t-121.5 -35q-50 0 -92.5 18.5t-73 51t-47.5 77t-17 96.5t17 97t47.5 78t73 51.5t92.5 18.5q66 0 121.5 -35t85.5 -104h3v421zM84 229q0 -45 14.5 -86t41.5 -71.5t65.5 -48.5t86.5 -18q46 0 84.5 18t66.5 48.5t44 71.5
t16 87t-16 87t-44 71.5t-66.5 48.5t-84.5 18q-48 0 -86.5 -18.5t-65.5 -49.5t-41.5 -72t-14.5 -86zM300 797q-9 0 -16 7t-7 19q0 11 7 18t16 7t16 -7t7 -18q0 -12 -7.5 -19t-15.5 -7z" />
    <glyph glyph-name="uni1E1E" unicode="&#x1e1e;" horiz-adv-x="560" 
d="M128 688v-311h355v-20h-355v-357h-22v708h404v-20h-382zM308 833q-9 0 -16 7t-7 19q0 11 7 18t16 7t16 -7t7 -18q0 -12 -7.5 -19t-15.5 -7z" />
    <glyph glyph-name="uni1E1F" unicode="&#x1e1f;" horiz-adv-x="282" 
d="M282 745q-10 2 -20 3.5t-21 1.5q-27 0 -46 -11t-30.5 -28.5t-16.5 -39.5t-5 -45v-166h125v-19h-125v-441h-22v441h-97v19h96v165q0 42 11 70t28.5 44t38.5 22.5t42 6.5q26 0 46 -6zM160 853q-9 0 -16 7t-7 19q0 11 7 18t16 7t16 -7t7 -18q0 -12 -7.5 -19t-15.5 -7z" />
    <glyph glyph-name="uni1E22" unicode="&#x1e22;" horiz-adv-x="732" 
d="M604 0v356h-476v-356h-22v708h22v-332h476v332h22v-708h-22zM367 833q-9 0 -16 7t-7 19q0 11 7 18t16 7t16 -7t7 -18q0 -12 -7.5 -19t-15.5 -7z" />
    <glyph glyph-name="uni1E23" unicode="&#x1e23;" horiz-adv-x="569" 
d="M126 339q10 32 28.5 57t42.5 42.5t52 26.5t58 9q48 0 80 -17t51 -45t27 -63t8 -71v-278h-22v276q0 28 -6 60t-22.5 58t-44.5 43.5t-71 17.5q-38 0 -71.5 -15.5t-58 -44.5t-39 -70.5t-14.5 -94.5v-230h-22v756h22v-417h2zM284 797q-9 0 -16 7t-7 19q0 11 7 18t16 7t16 -7
t7 -18q0 -12 -7.5 -19t-15.5 -7z" />
    <glyph glyph-name="uni1E56" unicode="&#x1e56;" horiz-adv-x="572" 
d="M517 532q0 -45 -16.5 -79.5t-44.5 -57.5t-65.5 -35t-79.5 -12h-183v-348h-22v708h192q38 0 77 -8.5t70.5 -28.5t51.5 -54t20 -85zM495 532q0 45 -17 75t-44 48t-60.5 26t-66.5 8h-179v-322h184q33 0 66 9t59 29t42 51.5t16 75.5zM300 833q-9 0 -16 7t-7 19q0 11 7 18
t16 7t16 -7t7 -18q0 -12 -7.5 -19t-15.5 -7z" />
    <glyph glyph-name="uni1E57" unicode="&#x1e57;" horiz-adv-x="626" 
d="M127 335q30 69 85.5 104t121.5 35q51 0 93.5 -18.5t73 -51t47 -77.5t16.5 -98q0 -52 -17 -96.5t-47.5 -77t-73 -51t-92.5 -18.5q-33 0 -64.5 9t-58.5 26.5t-49 43t-35 59.5h-3v-364h-22v700h22v-125h3zM542 229q0 45 -14.5 86t-41.5 72t-65.5 49.5t-86.5 18.5
q-46 0 -84.5 -18t-66.5 -48.5t-44 -71.5t-16 -87t16 -87t44 -71.5t66.5 -48.5t84.5 -18q48 0 86.5 18t65.5 48.5t41.5 71.5t14.5 86zM330 633q-9 0 -16 7t-7 19q0 11 7 18t16 7t16 -7t7 -18q0 -12 -7.5 -19t-15.5 -7z" />
    <glyph glyph-name="uni1E60" unicode="&#x1e60;" horiz-adv-x="570" 
d="M498 170q0 -45 -17.5 -80.5t-46.5 -60t-68.5 -37t-82.5 -12.5q-66 0 -120.5 23.5t-90.5 63.5l17 15q38 -41 88.5 -61.5t104.5 -20.5q39 0 74 11.5t62 33t42.5 53t15.5 72.5t-17 69t-44 48t-61.5 33.5t-69.5 24.5q-44 14 -80.5 29.5t-63 38t-41 54t-14.5 76.5
q0 44 17.5 78.5t47.5 58t69.5 36t83.5 12.5q54 0 102.5 -20.5t79.5 -58.5l-17 -15q-28 35 -71.5 54.5t-94.5 19.5q-36 0 -70.5 -10t-62.5 -30.5t-45 -51.5t-17 -73q0 -41 15 -69.5t40 -48.5t56.5 -33t64.5 -24q45 -15 84 -30.5t68.5 -37.5t46 -53.5t16.5 -76.5zM302 833
q-9 0 -16 7t-7 19q0 11 7 18t16 7t16 -7t7 -18q0 -12 -7.5 -19t-15.5 -7z" />
    <glyph glyph-name="uni1E61" unicode="&#x1e61;" horiz-adv-x="415" 
d="M361 120q0 -31 -12 -55.5t-32.5 -41.5t-47.5 -26t-58 -9q-51 0 -92.5 19.5t-68.5 57.5l18 12q50 -70 144 -70q22 0 44.5 7t41 21t30 35t11.5 48q0 32 -14.5 52t-36.5 32t-48.5 19.5t-49.5 13.5q-25 7 -47 15.5t-38.5 22t-26 33.5t-9.5 50t12 52t32 36.5t45.5 22t51.5 7.5
q94 0 141 -67l-19 -11q-23 30 -52 44.5t-70 14.5q-19 0 -40 -5t-38.5 -16.5t-29 -30.5t-11.5 -46q0 -30 9.5 -48t26.5 -29t41 -18.5t53 -14.5q27 -7 52.5 -16.5t45 -23.5t31 -35t11.5 -52zM214 633q-9 0 -16 7t-7 19q0 11 7 18t16 7t16 -7t7 -18q0 -12 -7.5 -19t-15.5 -7z
" />
    <glyph glyph-name="uni1E6A" unicode="&#x1e6a;" horiz-adv-x="540" 
d="M281 688v-688h-22v688h-241v20h504v-20h-241zM270 833q-9 0 -16 7t-7 19q0 11 7 18t16 7t16 -7t7 -18q0 -12 -7.5 -19t-15.5 -7z" />
    <glyph glyph-name="uni1E6B" unicode="&#x1e6b;" horiz-adv-x="304" 
d="M280 -1q-12 -5 -28 -8t-31 -3q-54 0 -77.5 30.5t-23.5 76.5v346h-100v19h99v135h23v-135h135v-19h-135v-346q0 -47 23 -67.5t61 -20.5q28 0 51 9zM130 713q-9 0 -16 7t-7 19q0 11 7 18t16 7t16 -7t7 -18q0 -12 -7.5 -19t-15.5 -7z" />
    <glyph glyph-name="uni1EA0" unicode="&#x1ea0;" 
d="M624 0l-84 203h-411l-87 -203h-24l307 708h28l295 -708h-24zM338 694l-201 -472h396zM315 -144q0 10 6.5 17.5t16.5 7.5t16.5 -7.5t6.5 -17.5q0 -11 -6.5 -18.5t-16.5 -7.5t-16.5 7.5t-6.5 18.5z" />
    <glyph glyph-name="uni1EA1" unicode="&#x1ea1;" horiz-adv-x="512" 
d="M418 104q0 -26 2.5 -55.5t5.5 -48.5h-21q-2 10 -3 24.5t-2.5 30t-2 30.5t-0.5 25h-3q-20 -63 -69 -93.5t-105 -30.5q-28 0 -55.5 8t-49.5 24t-35.5 41t-13.5 59q0 49 25.5 79t63.5 46.5t81.5 21.5t79.5 5h80v37q0 77 -41 112.5t-107 35.5q-41 0 -76.5 -15t-63.5 -40
l-12 17q32 28 72.5 42.5t79.5 14.5q79 0 124.5 -40.5t45.5 -127.5v-202zM396 251h-71q-38 0 -80 -4.5t-77 -18.5t-57.5 -40t-22.5 -70q0 -32 12.5 -53.5t32 -34.5t43 -19t44.5 -6q51 0 85 19t54.5 48.5t28.5 65t8 69.5v44zM225 -144q0 10 6.5 17.5t16.5 7.5t16.5 -7.5
t6.5 -17.5q0 -11 -6.5 -18.5t-16.5 -7.5t-16.5 7.5t-6.5 18.5z" />
    <glyph glyph-name="uni1EA2" unicode="&#x1ea2;" 
d="M624 0l-84 203h-411l-87 -203h-24l307 708h28l295 -708h-24zM338 694l-201 -472h396zM324 755q0 18 9.5 31t36.5 26q19 9 27.5 22.5t8.5 27.5q0 23 -16 39t-45 16t-49 -14t-26 -49l-19 3q8 41 32.5 60t61.5 19t59 -21t22 -53q0 -21 -12.5 -39t-36.5 -29q-20 -10 -27 -19
t-7 -20h-19z" />
    <glyph glyph-name="uni1EA3" unicode="&#x1ea3;" horiz-adv-x="512" 
d="M418 104q0 -26 2.5 -55.5t5.5 -48.5h-21q-2 10 -3 24.5t-2.5 30t-2 30.5t-0.5 25h-3q-20 -63 -69 -93.5t-105 -30.5q-28 0 -55.5 8t-49.5 24t-35.5 41t-13.5 59q0 49 25.5 79t63.5 46.5t81.5 21.5t79.5 5h80v37q0 77 -41 112.5t-107 35.5q-41 0 -76.5 -15t-63.5 -40
l-12 17q32 28 72.5 42.5t79.5 14.5q79 0 124.5 -40.5t45.5 -127.5v-202zM396 251h-71q-38 0 -80 -4.5t-77 -18.5t-57.5 -40t-22.5 -70q0 -32 12.5 -53.5t32 -34.5t43 -19t44.5 -6q51 0 85 19t54.5 48.5t28.5 65t8 69.5v44zM234 555q0 18 9.5 31t36.5 26q19 9 27.5 22.5
t8.5 27.5q0 23 -16 39t-45 16t-49 -14t-26 -49l-19 3q8 41 32.5 60t61.5 19t59 -21t22 -53q0 -21 -12.5 -39t-36.5 -29q-20 -10 -27 -19t-7 -20h-19z" />
    <glyph glyph-name="uni1EA4" unicode="&#x1ea4;" 
d="M624 0l-84 203h-411l-87 -203h-24l307 708h28l295 -708h-24zM338 694l-201 -472h396zM444 857l88 124h27l-96 -124h-19zM338 896l-94 -132h-23l103 144h28l103 -144h-23z" />
    <glyph glyph-name="uni1EA5" unicode="&#x1ea5;" horiz-adv-x="512" 
d="M418 104q0 -26 2.5 -55.5t5.5 -48.5h-21q-2 10 -3 24.5t-2.5 30t-2 30.5t-0.5 25h-3q-20 -63 -69 -93.5t-105 -30.5q-28 0 -55.5 8t-49.5 24t-35.5 41t-13.5 59q0 49 25.5 79t63.5 46.5t81.5 21.5t79.5 5h80v37q0 77 -41 112.5t-107 35.5q-41 0 -76.5 -15t-63.5 -40
l-12 17q32 28 72.5 42.5t79.5 14.5q79 0 124.5 -40.5t45.5 -127.5v-202zM396 251h-71q-38 0 -80 -4.5t-77 -18.5t-57.5 -40t-22.5 -70q0 -32 12.5 -53.5t32 -34.5t43 -19t44.5 -6q51 0 85 19t54.5 48.5t28.5 65t8 69.5v44zM354 657l88 124h27l-96 -124h-19zM248 676
l-94 -132h-23l103 144h28l103 -144h-23z" />
    <glyph glyph-name="uni1EA6" unicode="&#x1ea6;" 
d="M624 0l-84 203h-411l-87 -203h-24l307 708h28l295 -708h-24zM338 694l-201 -472h396zM213 857l-96 124h27l88 -124h-19zM244 764h-23l103 144h28l103 -144h-23l-94 132z" />
    <glyph glyph-name="uni1EA7" unicode="&#x1ea7;" horiz-adv-x="512" 
d="M418 104q0 -26 2.5 -55.5t5.5 -48.5h-21q-2 10 -3 24.5t-2.5 30t-2 30.5t-0.5 25h-3q-20 -63 -69 -93.5t-105 -30.5q-28 0 -55.5 8t-49.5 24t-35.5 41t-13.5 59q0 49 25.5 79t63.5 46.5t81.5 21.5t79.5 5h80v37q0 77 -41 112.5t-107 35.5q-41 0 -76.5 -15t-63.5 -40
l-12 17q32 28 72.5 42.5t79.5 14.5q79 0 124.5 -40.5t45.5 -127.5v-202zM396 251h-71q-38 0 -80 -4.5t-77 -18.5t-57.5 -40t-22.5 -70q0 -32 12.5 -53.5t32 -34.5t43 -19t44.5 -6q51 0 85 19t54.5 48.5t28.5 65t8 69.5v44zM123 657l-96 124h27l88 -124h-19zM154 544h-23
l103 144h28l103 -144h-23l-94 132z" />
    <glyph glyph-name="uni1EA8" unicode="&#x1ea8;" 
d="M624 0l-84 203h-411l-87 -203h-24l307 708h28l295 -708h-24zM338 694l-201 -472h396zM338 896l-94 -132h-23l103 144h28l103 -144h-23zM474 847q0 14 7.5 23.5t27.5 20.5q14 8 20.5 15.5t6.5 20.5q0 14 -11 25t-32 11t-34.5 -10t-18.5 -34l-19 3q6 30 24.5 44.5
t47.5 14.5t46 -15.5t17 -38.5q0 -19 -10 -31.5t-29 -21.5q-24 -11 -24 -27h-19z" />
    <glyph glyph-name="uni1EA9" unicode="&#x1ea9;" horiz-adv-x="512" 
d="M418 104q0 -26 2.5 -55.5t5.5 -48.5h-21q-2 10 -3 24.5t-2.5 30t-2 30.5t-0.5 25h-3q-20 -63 -69 -93.5t-105 -30.5q-28 0 -55.5 8t-49.5 24t-35.5 41t-13.5 59q0 49 25.5 79t63.5 46.5t81.5 21.5t79.5 5h80v37q0 77 -41 112.5t-107 35.5q-41 0 -76.5 -15t-63.5 -40
l-12 17q32 28 72.5 42.5t79.5 14.5q79 0 124.5 -40.5t45.5 -127.5v-202zM396 251h-71q-38 0 -80 -4.5t-77 -18.5t-57.5 -40t-22.5 -70q0 -32 12.5 -53.5t32 -34.5t43 -19t44.5 -6q51 0 85 19t54.5 48.5t28.5 65t8 69.5v44zM248 676l-94 -132h-23l103 144h28l103 -144h-23z
M384 647q0 14 7.5 23.5t27.5 20.5q14 8 20.5 15.5t6.5 20.5q0 14 -11 25t-32 11t-34.5 -10t-18.5 -34l-19 3q6 30 24.5 44.5t47.5 14.5t46 -15.5t17 -38.5q0 -19 -10 -31.5t-29 -21.5q-24 -11 -24 -27h-19z" />
    <glyph glyph-name="uni1EAA" unicode="&#x1eaa;" 
d="M624 0l-84 203h-411l-87 -203h-24l307 708h28l295 -708h-24zM338 694l-201 -472h396zM338 876l-94 -112h-23l103 124h28l103 -124h-23zM341 968q13 -8 22 -13t15.5 -7.5t11 -3t10.5 -0.5q33 0 40 48h16q-4 -36 -20 -51.5t-36 -15.5q-16 0 -28.5 5t-35.5 19q-26 16 -37 20
t-22 4q-32 0 -40 -51h-16q4 36 20 53t36 17q16 0 29 -5t35 -19z" />
    <glyph glyph-name="uni1EAB" unicode="&#x1eab;" horiz-adv-x="512" 
d="M418 104q0 -26 2.5 -55.5t5.5 -48.5h-21q-2 10 -3 24.5t-2.5 30t-2 30.5t-0.5 25h-3q-20 -63 -69 -93.5t-105 -30.5q-28 0 -55.5 8t-49.5 24t-35.5 41t-13.5 59q0 49 25.5 79t63.5 46.5t81.5 21.5t79.5 5h80v37q0 77 -41 112.5t-107 35.5q-41 0 -76.5 -15t-63.5 -40
l-12 17q32 28 72.5 42.5t79.5 14.5q79 0 124.5 -40.5t45.5 -127.5v-202zM396 251h-71q-38 0 -80 -4.5t-77 -18.5t-57.5 -40t-22.5 -70q0 -32 12.5 -53.5t32 -34.5t43 -19t44.5 -6q51 0 85 19t54.5 48.5t28.5 65t8 69.5v44zM248 676l-94 -132h-23l103 144h28l103 -144h-23z
M251 778q13 -8 22 -13t15.5 -7.5t11 -3t10.5 -0.5q33 0 40 48h16q-4 -36 -20 -51.5t-36 -15.5q-16 0 -28.5 5t-35.5 19q-26 16 -37 20t-22 4q-32 0 -40 -51h-16q4 36 20 53t36 17q16 0 29 -5t35 -19z" />
    <glyph glyph-name="uni1EAC" unicode="&#x1eac;" 
d="M624 0l-84 203h-411l-87 -203h-24l307 708h28l295 -708h-24zM338 694l-201 -472h396zM352 908l103 -144h-23l-94 132l-94 -132h-23l103 144h28zM315 -144q0 10 6.5 17.5t16.5 7.5t16.5 -7.5t6.5 -17.5q0 -11 -6.5 -18.5t-16.5 -7.5t-16.5 7.5t-6.5 18.5z" />
    <glyph glyph-name="uni1EAD" unicode="&#x1ead;" horiz-adv-x="512" 
d="M418 104q0 -26 2.5 -55.5t5.5 -48.5h-21q-2 10 -3 24.5t-2.5 30t-2 30.5t-0.5 25h-3q-20 -63 -69 -93.5t-105 -30.5q-28 0 -55.5 8t-49.5 24t-35.5 41t-13.5 59q0 49 25.5 79t63.5 46.5t81.5 21.5t79.5 5h80v37q0 77 -41 112.5t-107 35.5q-41 0 -76.5 -15t-63.5 -40
l-12 17q32 28 72.5 42.5t79.5 14.5q79 0 124.5 -40.5t45.5 -127.5v-202zM396 251h-71q-38 0 -80 -4.5t-77 -18.5t-57.5 -40t-22.5 -70q0 -32 12.5 -53.5t32 -34.5t43 -19t44.5 -6q51 0 85 19t54.5 48.5t28.5 65t8 69.5v44zM262 708l103 -144h-23l-94 132l-94 -132h-23
l103 144h28zM225 -144q0 10 6.5 17.5t16.5 7.5t16.5 -7.5t6.5 -17.5q0 -11 -6.5 -18.5t-16.5 -7.5t-16.5 7.5t-6.5 18.5z" />
    <glyph glyph-name="uni1EAE" unicode="&#x1eae;" 
d="M624 0l-84 203h-411l-87 -203h-24l307 708h28l295 -708h-24zM338 694l-201 -472h396zM304 848l103 144h27l-111 -144h-19zM463 898q-10 -61 -43.5 -93.5t-83.5 -32.5q-49 0 -82.5 32.5t-41.5 93.5h19q10 -52 38 -79t67 -27q45 0 71 25t38 81h18z" />
    <glyph glyph-name="uni1EAF" unicode="&#x1eaf;" horiz-adv-x="512" 
d="M418 104q0 -26 2.5 -55.5t5.5 -48.5h-21q-2 10 -3 24.5t-2.5 30t-2 30.5t-0.5 25h-3q-20 -63 -69 -93.5t-105 -30.5q-28 0 -55.5 8t-49.5 24t-35.5 41t-13.5 59q0 49 25.5 79t63.5 46.5t81.5 21.5t79.5 5h80v37q0 77 -41 112.5t-107 35.5q-41 0 -76.5 -15t-63.5 -40
l-12 17q32 28 72.5 42.5t79.5 14.5q79 0 124.5 -40.5t45.5 -127.5v-202zM396 251h-71q-38 0 -80 -4.5t-77 -18.5t-57.5 -40t-22.5 -70q0 -32 12.5 -53.5t32 -34.5t43 -19t44.5 -6q51 0 85 19t54.5 48.5t28.5 65t8 69.5v44zM214 648l103 144h27l-111 -144h-19zM373 678
q-10 -61 -43.5 -93.5t-83.5 -32.5q-49 0 -82.5 32.5t-41.5 93.5h19q10 -52 38 -79t67 -27q45 0 71 25t38 81h18z" />
    <glyph glyph-name="uni1EB0" unicode="&#x1eb0;" 
d="M624 0l-84 203h-411l-87 -203h-24l307 708h28l295 -708h-24zM338 694l-201 -472h396zM352 848l-111 144h27l103 -144h-19zM463 898q-10 -61 -43.5 -93.5t-83.5 -32.5q-49 0 -82.5 32.5t-41.5 93.5h19q10 -52 38 -79t67 -27q45 0 71 25t38 81h18z" />
    <glyph glyph-name="uni1EB1" unicode="&#x1eb1;" horiz-adv-x="512" 
d="M418 104q0 -26 2.5 -55.5t5.5 -48.5h-21q-2 10 -3 24.5t-2.5 30t-2 30.5t-0.5 25h-3q-20 -63 -69 -93.5t-105 -30.5q-28 0 -55.5 8t-49.5 24t-35.5 41t-13.5 59q0 49 25.5 79t63.5 46.5t81.5 21.5t79.5 5h80v37q0 77 -41 112.5t-107 35.5q-41 0 -76.5 -15t-63.5 -40
l-12 17q32 28 72.5 42.5t79.5 14.5q79 0 124.5 -40.5t45.5 -127.5v-202zM396 251h-71q-38 0 -80 -4.5t-77 -18.5t-57.5 -40t-22.5 -70q0 -32 12.5 -53.5t32 -34.5t43 -19t44.5 -6q51 0 85 19t54.5 48.5t28.5 65t8 69.5v44zM262 648l-111 144h27l103 -144h-19zM373 678
q-10 -61 -43.5 -93.5t-83.5 -32.5q-49 0 -82.5 32.5t-41.5 93.5h19q10 -52 38 -79t67 -27q45 0 71 25t38 81h18z" />
    <glyph glyph-name="uni1EB2" unicode="&#x1eb2;" 
d="M624 0l-84 203h-411l-87 -203h-24l307 708h28l295 -708h-24zM338 694l-201 -472h396zM318 858q0 14 7.5 23.5t27.5 20.5q14 8 20.5 15.5t6.5 20.5q0 14 -11 25t-32 11t-34.5 -10t-18.5 -34l-19 3q6 30 24.5 44.5t47.5 14.5t46 -15.5t17 -38.5q0 -19 -10 -31.5t-29 -21.5
q-24 -11 -24 -27h-19zM463 898q-10 -61 -43.5 -93.5t-83.5 -32.5q-49 0 -82.5 32.5t-41.5 93.5h19q10 -52 38 -79t67 -27q45 0 71 25t38 81h18z" />
    <glyph glyph-name="uni1EB3" unicode="&#x1eb3;" horiz-adv-x="512" 
d="M418 104q0 -26 2.5 -55.5t5.5 -48.5h-21q-2 10 -3 24.5t-2.5 30t-2 30.5t-0.5 25h-3q-20 -63 -69 -93.5t-105 -30.5q-28 0 -55.5 8t-49.5 24t-35.5 41t-13.5 59q0 49 25.5 79t63.5 46.5t81.5 21.5t79.5 5h80v37q0 77 -41 112.5t-107 35.5q-41 0 -76.5 -15t-63.5 -40
l-12 17q32 28 72.5 42.5t79.5 14.5q79 0 124.5 -40.5t45.5 -127.5v-202zM396 251h-71q-38 0 -80 -4.5t-77 -18.5t-57.5 -40t-22.5 -70q0 -32 12.5 -53.5t32 -34.5t43 -19t44.5 -6q51 0 85 19t54.5 48.5t28.5 65t8 69.5v44zM228 658q0 14 7.5 23.5t27.5 20.5q14 8 20.5 15.5
t6.5 20.5q0 14 -11 25t-32 11t-34.5 -10t-18.5 -34l-19 3q6 30 24.5 44.5t47.5 14.5t46 -15.5t17 -38.5q0 -19 -10 -31.5t-29 -21.5q-24 -11 -24 -27h-19zM373 678q-10 -61 -43.5 -93.5t-83.5 -32.5q-49 0 -82.5 32.5t-41.5 93.5h19q10 -52 38 -79t67 -27q45 0 71 25t38 81
h18z" />
    <glyph glyph-name="uni1EB4" unicode="&#x1eb4;" 
d="M624 0l-84 203h-411l-87 -203h-24l307 708h28l295 -708h-24zM338 694l-201 -472h396zM336 772q-49 0 -82.5 27t-41.5 79h19q8 -42 37 -64t68 -22t70 22t39 64h18q-8 -52 -43 -79t-84 -27zM340 968q13 -8 22 -13t15.5 -7.5t11 -3t10.5 -0.5q33 0 40 48h16
q-4 -36 -20 -51.5t-36 -15.5q-16 0 -28.5 5t-35.5 19q-26 16 -37 20t-22 4q-32 0 -40 -51h-16q4 36 20 53t36 17q16 0 29 -5t35 -19z" />
    <glyph glyph-name="uni1EB5" unicode="&#x1eb5;" horiz-adv-x="512" 
d="M418 104q0 -26 2.5 -55.5t5.5 -48.5h-21q-2 10 -3 24.5t-2.5 30t-2 30.5t-0.5 25h-3q-20 -63 -69 -93.5t-105 -30.5q-28 0 -55.5 8t-49.5 24t-35.5 41t-13.5 59q0 49 25.5 79t63.5 46.5t81.5 21.5t79.5 5h80v37q0 77 -41 112.5t-107 35.5q-41 0 -76.5 -15t-63.5 -40
l-12 17q32 28 72.5 42.5t79.5 14.5q79 0 124.5 -40.5t45.5 -127.5v-202zM396 251h-71q-38 0 -80 -4.5t-77 -18.5t-57.5 -40t-22.5 -70q0 -32 12.5 -53.5t32 -34.5t43 -19t44.5 -6q51 0 85 19t54.5 48.5t28.5 65t8 69.5v44zM250 768q13 -8 22 -13t15.5 -7.5t11 -3t10.5 -0.5
q33 0 40 48h16q-4 -36 -20 -51.5t-36 -15.5q-16 0 -28.5 5t-35.5 19q-26 16 -37 20t-22 4q-33 0 -40 -51h-16q4 36 20 53t36 17q16 0 29 -5.5t35 -18.5zM373 678q-10 -61 -43.5 -93.5t-83.5 -32.5q-49 0 -82.5 32.5t-41.5 93.5h19q10 -52 38 -79t67 -27q45 0 71 25t38 81h18
z" />
    <glyph glyph-name="uni1EB6" unicode="&#x1eb6;" 
d="M624 0l-84 203h-411l-87 -203h-24l307 708h28l295 -708h-24zM338 694l-201 -472h396zM464 898q-10 -61 -43.5 -93.5t-83.5 -32.5q-49 0 -82.5 32.5t-41.5 93.5h19q10 -52 38 -79t67 -27q45 0 71 25t38 81h18zM315 -144q0 10 6.5 17.5t16.5 7.5t16.5 -7.5t6.5 -17.5
q0 -11 -6.5 -18.5t-16.5 -7.5t-16.5 7.5t-6.5 18.5z" />
    <glyph glyph-name="uni1EB7" unicode="&#x1eb7;" horiz-adv-x="512" 
d="M418 104q0 -26 2.5 -55.5t5.5 -48.5h-21q-2 10 -3 24.5t-2.5 30t-2 30.5t-0.5 25h-3q-20 -63 -69 -93.5t-105 -30.5q-28 0 -55.5 8t-49.5 24t-35.5 41t-13.5 59q0 49 25.5 79t63.5 46.5t81.5 21.5t79.5 5h80v37q0 77 -41 112.5t-107 35.5q-41 0 -76.5 -15t-63.5 -40
l-12 17q32 28 72.5 42.5t79.5 14.5q79 0 124.5 -40.5t45.5 -127.5v-202zM396 251h-71q-38 0 -80 -4.5t-77 -18.5t-57.5 -40t-22.5 -70q0 -32 12.5 -53.5t32 -34.5t43 -19t44.5 -6q51 0 85 19t54.5 48.5t28.5 65t8 69.5v44zM374 698q-10 -61 -43.5 -93.5t-83.5 -32.5
q-49 0 -82.5 32.5t-41.5 93.5h19q10 -52 38 -79t67 -27q45 0 71 25t38 81h18zM225 -144q0 10 6.5 17.5t16.5 7.5t16.5 -7.5t6.5 -17.5q0 -11 -6.5 -18.5t-16.5 -7.5t-16.5 7.5t-6.5 18.5z" />
    <glyph glyph-name="uni1EB8" unicode="&#x1eb8;" horiz-adv-x="590" 
d="M106 0v708h412v-20h-391v-311h368v-20h-368v-337h407v-20h-428zM292 -144q0 10 6.5 17.5t16.5 7.5t16.5 -7.5t6.5 -17.5q0 -11 -6.5 -18.5t-16.5 -7.5t-16.5 7.5t-6.5 18.5z" />
    <glyph glyph-name="uni1EB9" unicode="&#x1eb9;" horiz-adv-x="556" 
d="M84 235q0 -42 12.5 -83t38 -73.5t64.5 -52.5t92 -20q54 0 96 21.5t73 62.5l16 -14q-34 -44 -79.5 -67t-105.5 -23q-51 0 -93 18.5t-72.5 51.5t-47 79t-16.5 100q0 52 17 96t46.5 76t69.5 49.5t86 17.5q54 0 94 -19t66.5 -50t39.5 -70.5t13 -80.5v-19h-410zM473 254
q-1 45 -15.5 82t-39.5 63.5t-60 41t-78 14.5q-52 0 -89 -21.5t-60.5 -53t-34.5 -66t-11 -60.5h388zM263 -144q0 10 6.5 17.5t16.5 7.5t16.5 -7.5t6.5 -17.5q0 -11 -6.5 -18.5t-16.5 -7.5t-16.5 7.5t-6.5 18.5z" />
    <glyph glyph-name="uni1EBA" unicode="&#x1eba;" horiz-adv-x="590" 
d="M106 0v708h412v-20h-391v-311h368v-20h-368v-337h407v-20h-428zM301 755q0 18 9.5 31t36.5 26q19 9 27.5 22.5t8.5 27.5q0 23 -16 39t-45 16t-49 -14t-26 -49l-19 3q8 41 32.5 60t61.5 19t59 -21t22 -53q0 -21 -12.5 -39t-36.5 -29q-20 -10 -27 -19t-7 -20h-19z" />
    <glyph glyph-name="uni1EBB" unicode="&#x1ebb;" horiz-adv-x="556" 
d="M84 235q0 -42 12.5 -83t38 -73.5t64.5 -52.5t92 -20q54 0 96 21.5t73 62.5l16 -14q-34 -44 -79.5 -67t-105.5 -23q-51 0 -93 18.5t-72.5 51.5t-47 79t-16.5 100q0 52 17 96t46.5 76t69.5 49.5t86 17.5q54 0 94 -19t66.5 -50t39.5 -70.5t13 -80.5v-19h-410zM473 254
q-1 45 -15.5 82t-39.5 63.5t-60 41t-78 14.5q-52 0 -89 -21.5t-60.5 -53t-34.5 -66t-11 -60.5h388zM272 555q0 18 9.5 31t36.5 26q19 9 27.5 22.5t8.5 27.5q0 23 -16 39t-45 16t-49 -14t-26 -49l-19 3q8 41 32.5 60t61.5 19t59 -21t22 -53q0 -21 -12.5 -39t-36.5 -29
q-20 -10 -27 -19t-7 -20h-19z" />
    <glyph glyph-name="uni1EBC" unicode="&#x1ebc;" horiz-adv-x="590" 
d="M106 0v708h412v-20h-391v-311h368v-20h-368v-337h407v-20h-428zM318 838q13 -8 22 -13t15.5 -7.5t11 -3t10.5 -0.5q33 0 40 48h16q-4 -36 -20 -51.5t-36 -15.5q-16 0 -28.5 5t-35.5 19q-26 16 -37 20t-22 4q-32 0 -40 -51h-16q4 36 20 53t36 17q16 0 29 -5t35 -19z" />
    <glyph glyph-name="uni1EBD" unicode="&#x1ebd;" horiz-adv-x="556" 
d="M84 235q0 -42 12.5 -83t38 -73.5t64.5 -52.5t92 -20q54 0 96 21.5t73 62.5l16 -14q-34 -44 -79.5 -67t-105.5 -23q-51 0 -93 18.5t-72.5 51.5t-47 79t-16.5 100q0 52 17 96t46.5 76t69.5 49.5t86 17.5q54 0 94 -19t66.5 -50t39.5 -70.5t13 -80.5v-19h-410zM473 254
q-1 45 -15.5 82t-39.5 63.5t-60 41t-78 14.5q-52 0 -89 -21.5t-60.5 -53t-34.5 -66t-11 -60.5h388zM289 638q13 -8 22 -13t15.5 -7.5t11 -3t10.5 -0.5q33 0 40 48h16q-4 -36 -20 -51.5t-36 -15.5q-16 0 -28.5 5t-35.5 19q-26 16 -37 20t-22 4q-32 0 -40 -51h-16q4 36 20 53
t36 17q16 0 29 -5t35 -19z" />
    <glyph glyph-name="uni1EBE" unicode="&#x1ebe;" horiz-adv-x="590" 
d="M106 0v708h412v-20h-391v-311h368v-20h-368v-337h407v-20h-428zM421 857l88 124h27l-96 -124h-19zM315 896l-94 -132h-23l103 144h28l103 -144h-23z" />
    <glyph glyph-name="uni1EBF" unicode="&#x1ebf;" horiz-adv-x="556" 
d="M84 235q0 -42 12.5 -83t38 -73.5t64.5 -52.5t92 -20q54 0 96 21.5t73 62.5l16 -14q-34 -44 -79.5 -67t-105.5 -23q-51 0 -93 18.5t-72.5 51.5t-47 79t-16.5 100q0 52 17 96t46.5 76t69.5 49.5t86 17.5q54 0 94 -19t66.5 -50t39.5 -70.5t13 -80.5v-19h-410zM473 254
q-1 45 -15.5 82t-39.5 63.5t-60 41t-78 14.5q-52 0 -89 -21.5t-60.5 -53t-34.5 -66t-11 -60.5h388zM392 657l88 124h27l-96 -124h-19zM286 676l-94 -132h-23l103 144h28l103 -144h-23z" />
    <glyph glyph-name="uni1EC0" unicode="&#x1ec0;" horiz-adv-x="590" 
d="M106 0v708h412v-20h-391v-311h368v-20h-368v-337h407v-20h-428zM190 857l-96 124h27l88 -124h-19zM221 764h-23l103 144h28l103 -144h-23l-94 132z" />
    <glyph glyph-name="uni1EC1" unicode="&#x1ec1;" horiz-adv-x="556" 
d="M84 235q0 -42 12.5 -83t38 -73.5t64.5 -52.5t92 -20q54 0 96 21.5t73 62.5l16 -14q-34 -44 -79.5 -67t-105.5 -23q-51 0 -93 18.5t-72.5 51.5t-47 79t-16.5 100q0 52 17 96t46.5 76t69.5 49.5t86 17.5q54 0 94 -19t66.5 -50t39.5 -70.5t13 -80.5v-19h-410zM473 254
q-1 45 -15.5 82t-39.5 63.5t-60 41t-78 14.5q-52 0 -89 -21.5t-60.5 -53t-34.5 -66t-11 -60.5h388zM161 657l-96 124h27l88 -124h-19zM192 544h-23l103 144h28l103 -144h-23l-94 132z" />
    <glyph glyph-name="uni1EC2" unicode="&#x1ec2;" horiz-adv-x="590" 
d="M106 0v708h412v-20h-391v-311h368v-20h-368v-337h407v-20h-428zM315 896l-94 -132h-23l103 144h28l103 -144h-23zM451 847q0 14 7.5 23.5t27.5 20.5q14 8 20.5 15.5t6.5 20.5q0 14 -11 25t-32 11t-34.5 -10t-18.5 -34l-19 3q6 30 24.5 44.5t47.5 14.5t46 -15.5t17 -38.5
q0 -19 -10 -31.5t-29 -21.5q-24 -11 -24 -27h-19z" />
    <glyph glyph-name="uni1EC3" unicode="&#x1ec3;" horiz-adv-x="556" 
d="M84 235q0 -42 12.5 -83t38 -73.5t64.5 -52.5t92 -20q54 0 96 21.5t73 62.5l16 -14q-34 -44 -79.5 -67t-105.5 -23q-51 0 -93 18.5t-72.5 51.5t-47 79t-16.5 100q0 52 17 96t46.5 76t69.5 49.5t86 17.5q54 0 94 -19t66.5 -50t39.5 -70.5t13 -80.5v-19h-410zM473 254
q-1 45 -15.5 82t-39.5 63.5t-60 41t-78 14.5q-52 0 -89 -21.5t-60.5 -53t-34.5 -66t-11 -60.5h388zM286 676l-94 -132h-23l103 144h28l103 -144h-23zM422 647q0 14 7.5 23.5t27.5 20.5q14 8 20.5 15.5t6.5 20.5q0 14 -11 25t-32 11t-34.5 -10t-18.5 -34l-19 3
q6 30 24.5 44.5t47.5 14.5t46 -15.5t17 -38.5q0 -19 -10 -31.5t-29 -21.5q-24 -11 -24 -27h-19z" />
    <glyph glyph-name="uni1EC4" unicode="&#x1ec4;" horiz-adv-x="590" 
d="M106 0v708h412v-20h-391v-311h368v-20h-368v-337h407v-20h-428zM315 876l-94 -112h-23l103 124h28l103 -124h-23zM318 968q13 -8 22 -13t15.5 -7.5t11 -3t10.5 -0.5q33 0 40 48h16q-4 -36 -20 -51.5t-36 -15.5q-16 0 -28.5 5t-35.5 19q-26 16 -37 20t-22 4q-32 0 -40 -51
h-16q4 36 20 53t36 17q16 0 29 -5t35 -19z" />
    <glyph glyph-name="uni1EC5" unicode="&#x1ec5;" horiz-adv-x="556" 
d="M84 235q0 -42 12.5 -83t38 -73.5t64.5 -52.5t92 -20q54 0 96 21.5t73 62.5l16 -14q-34 -44 -79.5 -67t-105.5 -23q-51 0 -93 18.5t-72.5 51.5t-47 79t-16.5 100q0 52 17 96t46.5 76t69.5 49.5t86 17.5q54 0 94 -19t66.5 -50t39.5 -70.5t13 -80.5v-19h-410zM473 254
q-1 45 -15.5 82t-39.5 63.5t-60 41t-78 14.5q-52 0 -89 -21.5t-60.5 -53t-34.5 -66t-11 -60.5h388zM286 676l-94 -132h-23l103 144h28l103 -144h-23zM289 778q13 -8 22 -13t15.5 -7.5t11 -3t10.5 -0.5q33 0 40 48h16q-4 -36 -20 -51.5t-36 -15.5q-16 0 -28.5 5t-35.5 19
q-26 16 -37 20t-22 4q-32 0 -40 -51h-16q4 36 20 53t36 17q16 0 29 -5t35 -19z" />
    <glyph glyph-name="uni1EC6" unicode="&#x1ec6;" horiz-adv-x="590" 
d="M106 0v708h412v-20h-391v-311h368v-20h-368v-337h407v-20h-428zM329 908l103 -144h-23l-94 132l-94 -132h-23l103 144h28zM292 -144q0 10 6.5 17.5t16.5 7.5t16.5 -7.5t6.5 -17.5q0 -11 -6.5 -18.5t-16.5 -7.5t-16.5 7.5t-6.5 18.5z" />
    <glyph glyph-name="uni1EC7" unicode="&#x1ec7;" horiz-adv-x="556" 
d="M84 235q0 -42 12.5 -83t38 -73.5t64.5 -52.5t92 -20q54 0 96 21.5t73 62.5l16 -14q-34 -44 -79.5 -67t-105.5 -23q-51 0 -93 18.5t-72.5 51.5t-47 79t-16.5 100q0 52 17 96t46.5 76t69.5 49.5t86 17.5q54 0 94 -19t66.5 -50t39.5 -70.5t13 -80.5v-19h-410zM473 254
q-1 45 -15.5 82t-39.5 63.5t-60 41t-78 14.5q-52 0 -89 -21.5t-60.5 -53t-34.5 -66t-11 -60.5h388zM300 708l103 -144h-23l-94 132l-94 -132h-23l103 144h28zM263 -144q0 10 6.5 17.5t16.5 7.5t16.5 -7.5t6.5 -17.5q0 -11 -6.5 -18.5t-16.5 -7.5t-16.5 7.5t-6.5 18.5z" />
    <glyph glyph-name="uni1EC8" unicode="&#x1ec8;" horiz-adv-x="234" 
d="M106 0v708h22v-708h-22zM103 755q0 18 9.5 31t36.5 26q19 9 27.5 22.5t8.5 27.5q0 23 -16 39t-45 16t-49 -14t-26 -49l-19 3q8 41 32.5 60t61.5 19t59 -21t22 -53q0 -21 -12.5 -39t-36.5 -29q-20 -10 -27 -19t-7 -20h-19z" />
    <glyph glyph-name="uni1EC9" unicode="&#x1ec9;" horiz-adv-x="226" 
d="M102 0v460h22v-460h-22zM99 555q0 18 9.5 31t36.5 26q19 9 27.5 22.5t8.5 27.5q0 23 -16 39t-45 16t-49 -14t-26 -49l-19 3q8 41 32.5 60t61.5 19t59 -21t22 -53q0 -21 -12.5 -39t-36.5 -29q-20 -10 -27 -19t-7 -20h-19z" />
    <glyph glyph-name="uni1ECA" unicode="&#x1eca;" horiz-adv-x="234" 
d="M106 0v708h22v-708h-22zM94 -144q0 10 6.5 17.5t16.5 7.5t16.5 -7.5t6.5 -17.5q0 -11 -6.5 -18.5t-16.5 -7.5t-16.5 7.5t-6.5 18.5z" />
    <glyph glyph-name="uni1ECB" unicode="&#x1ecb;" horiz-adv-x="226" 
d="M113 633q-9 0 -16 7t-7 19q0 11 7 18t16 7t16 -7t7 -18q0 -12 -7.5 -19t-15.5 -7zM102 0v460h22v-460h-22zM90 -144q0 10 6.5 17.5t16.5 7.5t16.5 -7.5t6.5 -17.5q0 -11 -6.5 -18.5t-16.5 -7.5t-16.5 7.5t-6.5 18.5z" />
    <glyph glyph-name="uni1ECC" unicode="&#x1ecc;" horiz-adv-x="872" 
d="M800 354q0 -82 -27.5 -150.5t-76 -118t-115.5 -77.5t-145 -28t-145 28t-115.5 77.5t-76 118t-27.5 150.5t27.5 150.5t76 118t115 77.5t145.5 28t145.5 -28t115 -77.5t76 -118t27.5 -150.5zM778 354q0 74 -25 138.5t-70.5 112.5t-108.5 75.5t-138 27.5t-138 -27.5
t-108.5 -75.5t-70.5 -112.5t-25 -138.5t24.5 -138.5t69.5 -112.5t108 -75.5t140 -27.5t140 27.5t108 75.5t69.5 112.5t24.5 138.5zM415 -144q0 10 6.5 17.5t16.5 7.5t16.5 -7.5t6.5 -17.5q0 -11 -6.5 -18.5t-16.5 -7.5t-16.5 7.5t-6.5 18.5z" />
    <glyph glyph-name="uni1ECD" unicode="&#x1ecd;" horiz-adv-x="605" 
d="M543 231q0 -54 -17.5 -99t-49.5 -77.5t-76.5 -50.5t-97.5 -18t-97 18t-76 50.5t-49.5 77.5t-17.5 99t17.5 98.5t49.5 76.5t76 50t97 18t97.5 -18t76.5 -50t49.5 -76.5t17.5 -98.5zM521 231q0 46 -15 87t-43.5 71.5t-69 48t-91.5 17.5t-91 -17.5t-68.5 -48t-43.5 -71.5
t-15 -87q0 -47 15 -88t43.5 -71.5t68.5 -48.5t91 -18t91.5 18t69 48.5t43.5 71.5t15 88zM281 -144q0 10 6.5 17.5t16.5 7.5t16.5 -7.5t6.5 -17.5q0 -11 -6.5 -18.5t-16.5 -7.5t-16.5 7.5t-6.5 18.5z" />
    <glyph glyph-name="uni1ECE" unicode="&#x1ece;" horiz-adv-x="872" 
d="M800 354q0 -82 -27.5 -150.5t-76 -118t-115.5 -77.5t-145 -28t-145 28t-115.5 77.5t-76 118t-27.5 150.5t27.5 150.5t76 118t115 77.5t145.5 28t145.5 -28t115 -77.5t76 -118t27.5 -150.5zM778 354q0 74 -25 138.5t-70.5 112.5t-108.5 75.5t-138 27.5t-138 -27.5
t-108.5 -75.5t-70.5 -112.5t-25 -138.5t24.5 -138.5t69.5 -112.5t108 -75.5t140 -27.5t140 27.5t108 75.5t69.5 112.5t24.5 138.5zM424 755q0 18 9.5 31t36.5 26q19 9 27.5 22.5t8.5 27.5q0 23 -16 39t-45 16t-49 -14t-26 -49l-19 3q8 41 32.5 60t61.5 19t59 -21t22 -53
q0 -21 -12.5 -39t-36.5 -29q-20 -10 -27 -19t-7 -20h-19z" />
    <glyph glyph-name="uni1ECF" unicode="&#x1ecf;" horiz-adv-x="605" 
d="M543 231q0 -54 -17.5 -99t-49.5 -77.5t-76.5 -50.5t-97.5 -18t-97 18t-76 50.5t-49.5 77.5t-17.5 99t17.5 98.5t49.5 76.5t76 50t97 18t97.5 -18t76.5 -50t49.5 -76.5t17.5 -98.5zM521 231q0 46 -15 87t-43.5 71.5t-69 48t-91.5 17.5t-91 -17.5t-68.5 -48t-43.5 -71.5
t-15 -87q0 -47 15 -88t43.5 -71.5t68.5 -48.5t91 -18t91.5 18t69 48.5t43.5 71.5t15 88zM290 555q0 18 9.5 31t36.5 26q19 9 27.5 22.5t8.5 27.5q0 23 -16 39t-45 16t-49 -14t-26 -49l-19 3q8 41 32.5 60t61.5 19t59 -21t22 -53q0 -21 -12.5 -39t-36.5 -29q-20 -10 -27 -19
t-7 -20h-19z" />
    <glyph glyph-name="uni1ED0" unicode="&#x1ed0;" horiz-adv-x="872" 
d="M800 354q0 -82 -27.5 -150.5t-76 -118t-115.5 -77.5t-145 -28t-145 28t-115.5 77.5t-76 118t-27.5 150.5t27.5 150.5t76 118t115 77.5t145.5 28t145.5 -28t115 -77.5t76 -118t27.5 -150.5zM778 354q0 74 -25 138.5t-70.5 112.5t-108.5 75.5t-138 27.5t-138 -27.5
t-108.5 -75.5t-70.5 -112.5t-25 -138.5t24.5 -138.5t69.5 -112.5t108 -75.5t140 -27.5t140 27.5t108 75.5t69.5 112.5t24.5 138.5zM544 857l88 124h27l-96 -124h-19zM438 896l-94 -132h-23l103 144h28l103 -144h-23z" />
    <glyph glyph-name="uni1ED1" unicode="&#x1ed1;" horiz-adv-x="605" 
d="M543 231q0 -54 -17.5 -99t-49.5 -77.5t-76.5 -50.5t-97.5 -18t-97 18t-76 50.5t-49.5 77.5t-17.5 99t17.5 98.5t49.5 76.5t76 50t97 18t97.5 -18t76.5 -50t49.5 -76.5t17.5 -98.5zM521 231q0 46 -15 87t-43.5 71.5t-69 48t-91.5 17.5t-91 -17.5t-68.5 -48t-43.5 -71.5
t-15 -87q0 -47 15 -88t43.5 -71.5t68.5 -48.5t91 -18t91.5 18t69 48.5t43.5 71.5t15 88zM410 657l88 124h27l-96 -124h-19zM304 676l-94 -132h-23l103 144h28l103 -144h-23z" />
    <glyph glyph-name="uni1ED2" unicode="&#x1ed2;" horiz-adv-x="872" 
d="M800 354q0 -82 -27.5 -150.5t-76 -118t-115.5 -77.5t-145 -28t-145 28t-115.5 77.5t-76 118t-27.5 150.5t27.5 150.5t76 118t115 77.5t145.5 28t145.5 -28t115 -77.5t76 -118t27.5 -150.5zM778 354q0 74 -25 138.5t-70.5 112.5t-108.5 75.5t-138 27.5t-138 -27.5
t-108.5 -75.5t-70.5 -112.5t-25 -138.5t24.5 -138.5t69.5 -112.5t108 -75.5t140 -27.5t140 27.5t108 75.5t69.5 112.5t24.5 138.5zM313 857l-96 124h27l88 -124h-19zM344 764h-23l103 144h28l103 -144h-23l-94 132z" />
    <glyph glyph-name="uni1ED3" unicode="&#x1ed3;" horiz-adv-x="605" 
d="M543 231q0 -54 -17.5 -99t-49.5 -77.5t-76.5 -50.5t-97.5 -18t-97 18t-76 50.5t-49.5 77.5t-17.5 99t17.5 98.5t49.5 76.5t76 50t97 18t97.5 -18t76.5 -50t49.5 -76.5t17.5 -98.5zM521 231q0 46 -15 87t-43.5 71.5t-69 48t-91.5 17.5t-91 -17.5t-68.5 -48t-43.5 -71.5
t-15 -87q0 -47 15 -88t43.5 -71.5t68.5 -48.5t91 -18t91.5 18t69 48.5t43.5 71.5t15 88zM179 657l-96 124h27l88 -124h-19zM210 544h-23l103 144h28l103 -144h-23l-94 132z" />
    <glyph glyph-name="uni1ED4" unicode="&#x1ed4;" horiz-adv-x="872" 
d="M800 354q0 -82 -27.5 -150.5t-76 -118t-115.5 -77.5t-145 -28t-145 28t-115.5 77.5t-76 118t-27.5 150.5t27.5 150.5t76 118t115 77.5t145.5 28t145.5 -28t115 -77.5t76 -118t27.5 -150.5zM778 354q0 74 -25 138.5t-70.5 112.5t-108.5 75.5t-138 27.5t-138 -27.5
t-108.5 -75.5t-70.5 -112.5t-25 -138.5t24.5 -138.5t69.5 -112.5t108 -75.5t140 -27.5t140 27.5t108 75.5t69.5 112.5t24.5 138.5zM438 896l-94 -132h-23l103 144h28l103 -144h-23zM574 847q0 14 7.5 23.5t27.5 20.5q14 8 20.5 15.5t6.5 20.5q0 14 -11 25t-32 11t-34.5 -10
t-18.5 -34l-19 3q6 30 24.5 44.5t47.5 14.5t46 -15.5t17 -38.5q0 -19 -10 -31.5t-29 -21.5q-24 -11 -24 -27h-19z" />
    <glyph glyph-name="uni1ED5" unicode="&#x1ed5;" horiz-adv-x="605" 
d="M543 231q0 -54 -17.5 -99t-49.5 -77.5t-76.5 -50.5t-97.5 -18t-97 18t-76 50.5t-49.5 77.5t-17.5 99t17.5 98.5t49.5 76.5t76 50t97 18t97.5 -18t76.5 -50t49.5 -76.5t17.5 -98.5zM521 231q0 46 -15 87t-43.5 71.5t-69 48t-91.5 17.5t-91 -17.5t-68.5 -48t-43.5 -71.5
t-15 -87q0 -47 15 -88t43.5 -71.5t68.5 -48.5t91 -18t91.5 18t69 48.5t43.5 71.5t15 88zM304 676l-94 -132h-23l103 144h28l103 -144h-23zM440 647q0 14 7.5 23.5t27.5 20.5q14 8 20.5 15.5t6.5 20.5q0 14 -11 25t-32 11t-34.5 -10t-18.5 -34l-19 3q6 30 24.5 44.5
t47.5 14.5t46 -15.5t17 -38.5q0 -19 -10 -31.5t-29 -21.5q-24 -11 -24 -27h-19z" />
    </font>
</defs>
</svg>
